{
copyright = "Copyright (c) 2024 by Vladimir Nikolic. All rights reserved.";
designer = "Vladimir Nikolic";
designerURL = "https://www.coroflot.com/vladimirnikolic";
familyName = Consequences;
customParameters = (
{
name = glyphOrder;
value = (
.notdef,
uni0000,
uni000D,
space,
exclam,
quotedbl,
numbersign,
dollar,
percent,
ampersand,
quotesingle,
parenleft,
parenright,
asterisk,
plus,
comma,
hyphen,
period,
slash,
zero,
one,
two,
three,
four,
five,
six,
seven,
eight,
nine,
colon,
semicolon,
less,
equal,
greater,
question,
at,
A,
B,
C,
D,
E,
F,
G,
H,
I,
J,
K,
L,
M,
N,
O,
P,
Q.001,
R,
S,
T,
U,
V,
W,
X,
Y,
Z,
bracketleft,
backslash,
bracketright,
asciicircum,
underscore,
grave,
a,
b,
c,
d,
e,
f,
g,
h,
i,
j,
k,
l,
m,
n,
o,
p,
r,
s,
t,
u,
v,
w,
z,
braceleft,
bar,
braceright,
asciitilde,
uni00A0,
exclamdown,
cent,
sterling,
currency,
yen,
brokenbar,
section,
dieresis,
copyright,
ordfeminine,
guillemotleft,
uni00AD,
registered,
macron,
degree,
plusminus,
twosuperior,
threesuperior,
acute,
paragraph,
periodcentered,
cedilla,
onesuperior,
ordmasculine,
guillemotright,
questiondown,
Agrave,
Aacute,
Acircumflex,
Atilde,
Adieresis,
Aring,
AE,
Ccedilla,
Egrave,
Eacute,
Ecircumflex,
Edieresis,
Igrave,
Iacute,
Icircumflex,
Idieresis,
Eth,
Ntilde,
Ograve,
Oacute,
Ocircumflex,
Otilde,
Odieresis,
multiply,
Oslash,
Ugrave,
Uacute,
Ucircumflex,
Udieresis,
Thorn,
germandbls,
agrave,
aacute,
acircumflex,
atilde,
adieresis,
aring,
ae,
ccedilla,
egrave,
eacute,
ecircumflex,
edieresis,
igrave,
iacute,
icircumflex,
idieresis,
eth,
ntilde,
ograve,
oacute,
ocircumflex,
otilde,
odieresis,
divide,
oslash,
ugrave,
uacute,
ucircumflex,
udieresis,
thorn,
ydieresis,
Amacron,
amacron,
Abreve,
abreve,
Aogonek,
aogonek,
Cacute,
cacute,
Ccircumflex,
ccircumflex,
Cdotaccent,
cdotaccent,
Ccaron,
ccaron,
Dcaron,
dcaron,
Dcroat,
dcroat,
Emacron,
emacron,
Ebreve,
ebreve,
Edotaccent,
edotaccent,
Eogonek,
eogonek,
Ecaron,
ecaron,
Gcircumflex,
gcircumflex,
Gbreve,
gbreve,
Gdotaccent,
gdotaccent,
Hcircumflex,

glyphs = (
{
glyphname = exclam;
layers = (
{
layerId = "92FC523E-9234-4103-A150-1ABFFCFEAB52";
paths = (
{
nodes = (
"355 694 LINE",
"355 179 LINE",
"28 179 LINE",
"28 694 LINE"
);
},
{
nodes = (
"355 120 LINE",
"355 0 LINE",
"28 0 LINE",
"28 122 LINE"
);
}
);
width = 384;
}
);
unicode = 0021;
},
{
glyphname = quotedbl;
layers = (
{
layerId = "92FC523E-9234-4103-A150-1ABFFCFEAB52";
paths = (
{
nodes = (
"288 694 LINE",
"240 394 LINE",
"77 394 LINE",
"25 694 LINE"
);
},
{
nodes = (
"569 694 LINE",
"521 394 LINE",
"358 394 LINE",
"306 694 LINE"
);
}
);
width = 600;
}
);
unicode = 0022;
},
{
glyphname = numbersign;
layers = (
{
layerId = "92FC523E-9234-4103-A150-1ABFFCFEAB52";
paths = (
{
nodes = (
"311 356 LINE",
"278 241 LINE",
"412 241 LINE",
"445 356 LINE"
);
},
{
nodes = (
"21 110 LINE",
"58 241 LINE",
"147 241 LINE",
"180 356 LINE",
"91 356 LINE",
"128 487 LINE",
"218 487 LINE",
"250 600 LINE",
"381 600 LINE",
"349 487 LINE",
"483 487 LINE",
"515 600 LINE",
"646 600 LINE",
"614 487 LINE",
"728 487 LINE",
"691 356 LINE",
"576 356 LINE",
"543 241 LINE",
"658 241 LINE",
"620 110 LINE",
"506 110 LINE",
"474 0 LINE",
"343 0 LINE",
"375 110 LINE",
"241 110 LINE",
"209 0 LINE",
"78 0 LINE",
"110 110 LINE"
);
}
);
width = 753;
}
);
unicode = 0023;
},
{
glyphname = dollar;
layers = (
{
layerId = "92FC523E-9234-4103-A150-1ABFFCFEAB52";
paths = (
{
nodes = (
"218 0 LINE SMOOTH",
"179 0 OFFCURVE",
"111 36 OFFCURVE",
"62 95 OFFCURVE",
"33 168 OFFCURVE",
"32 204 QCURVE",
"155 204 LINE",
"155 201 LINE",
"155 200 LINE",
"155 182 OFFCURVE",
"180 142 OFFCURVE",
"201 131 QCURVE",
"210 125 OFFCURVE",
"224 123 QCURVE",
"224 292 LINE",
"155 292 LINE SMOOTH",
"133 292 OFFCURVE",
"89 310 OFFCURVE",
"54 340 OFFCURVE",
"32 381 OFFCURVE",
"32 404 QCURVE SMOOTH",
"32 491 LINE SMOOTH",
"32 555 OFFCURVE",
"101 656 OFFCURVE",
"158 680 QCURVE SMOOTH",
"174 687 OFFCURVE",
"207 695 OFFCURVE",
"224 696 QCURVE",
"224 782 LINE",
"339 782 LINE",
"339 696 LINE",
"412 696 LINE",
"412 782 LINE",
"527 782 LINE",
"527 696 LINE",
"531 696 LINE SMOOTH",
"570 696 OFFCURVE",
"637 660 OFFCURVE",
"687 601 OFFCURVE",
"716 528 OFFCURVE",
"717 492 QCURVE",
"594 492 LINE",
"594 494 LINE",
"594 495 LINE",
"594 496 LINE",
"594 515 OFFCURVE",
"569 554 OFFCURVE",
"548 566 QCURVE",
"543 568 OFFCURVE",
"532 572 OFFCURVE",
"527 573 QCURVE",
"527 417 LINE",
"594 417 LINE SMOOTH",
"616 417 OFFCURVE",
"660 399 OFFCURVE",
"695 369 OFFCURVE",
"717 328 OFFCURVE",
"717 305 QCURVE SMOOTH",
"717 205 LINE SMOOTH",
"717 141 OFFCURVE",
"647 40 OFFCURVE",
"592 16 QCURVE SMOOTH",
"560 2 OFFCURVE",
"527 1 QCURVE",
"527 -85 LINE",
"412 -85 LINE",
"412 0 LINE",
"339 0 LINE",
"339 -85 LINE",
"224 -85 LINE",
"224 0 LINE"
);
},
{
nodes = (
"339 415 LINE",
"412 415 LINE",
"412 573 LINE",
"339 573 LINE"
);
},
{
nodes = (
"224 415 LINE",
"224 573 LINE",
"212 571 OFFCURVE",
"203 566 QCURVE SMOOTH",
"184 556 OFFCURVE",
"155 519 OFFCURVE",
"155 499 QCURVE SMOOTH",
"155 483 LINE SMOOTH",
"155 475 OFFCURVE",
"162 452 OFFCURVE",
"174 431 OFFCURVE",
"188 415 OFFCURVE",
"196 415 QCURVE SMOOTH"
);
},
{
nodes = (
"527 124 LINE",
"537 125 OFFCURVE",
"546 130 QCURVE SMOOTH",
"565 140 OFFCURVE",
"594 177 OFFCURVE",
"594 197 QCURVE SMOOTH",
"594 257 LINE SMOOTH",
"594 272 OFFCURVE",
"567 294 OFFCURVE",
"553 294 QCURVE SMOOTH",
"527 294 LINE"
);
},
{
nodes = (
"339 123 LINE",
"412 123 LINE",
"412 292 LINE",
"339 292 LINE"
);
}
);
width = 750;
}
);
unicode = 0024;
},
{
glyphname = percent;
layers = (
{
layerId = "92FC523E-9234-4103-A150-1ABFFCFEAB52";
paths = (
{
nodes = (
"701 696 LINE",
"305 0 LINE",
"138 0 LINE",
"527 696 LINE"
);
},
{
nodes = (
"319 412 LINE SMOOTH",
"319 391 OFFCURVE",
"300 355 OFFCURVE",
"270 327 OFFCURVE",
"232 311 OFFCURVE",
"213 311 QCURVE",
"121 312 LINE",
"100 312 OFFCURVE",
"64 331 OFFCURVE",
"37 362 OFFCURVE",
"22 402 OFFCURVE",
"22 422 QCURVE SMOOTH",
"22 595 LINE SMOOTH",
"22 613 OFFCURVE",
"39 649 OFFCURVE",
"68 678 OFFCURVE",
"103 696 OFFCURVE",
"121 696 QCURVE SMOOTH",
"221 696 LINE SMOOTH",
"242 696 OFFCURVE",
"277 676 OFFCURVE",
"304 645 OFFCURVE",
"319 605 OFFCURVE",
"319 585 QCURVE SMOOTH"
);
},
{
nodes = (
"239 585 LINE SMOOTH",
"239 596 OFFCURVE",
"226 613 OFFCURVE",
"216 613 QCURVE SMOOTH",
"167 613 LINE",
"167 393 LINE",
"216 393 LINE SMOOTH",
"224 393 OFFCURVE",
"239 409 OFFCURVE",
"239 418 QCURVE SMOOTH"
);
},
{
nodes = (
"801 100 LINE SMOOTH",
"801 79 OFFCURVE",
"782 43 OFFCURVE",
"752 15 OFFCURVE",
"714 -1 OFFCURVE",
"695 -1 QCURVE",
"603 0 LINE",
"582 0 OFFCURVE",
"546 19 OFFCURVE",
"519 50 OFFCURVE",
"504 90 OFFCURVE",
"504 110 QCURVE SMOOTH",
"504 283 LINE SMOOTH",
"504 301 OFFCURVE",
"521 337 OFFCURVE",
"550 366 OFFCURVE",
"585 384 OFFCURVE",
"603 384 QCURVE SMOOTH",
"703 384 LINE SMOOTH",
"724 384 OFFCURVE",
"759 364 OFFCURVE",
"786 333 OFFCURVE",
"801 293 OFFCURVE",
"801 273 QCURVE SMOOTH"
);
},
{
nodes = (
"721 273 LINE SMOOTH",
"721 284 OFFCURVE",
"708 301 OFFCURVE",
"698 301 QCURVE SMOOTH",
"649 301 LINE",
"649 81 LINE",
"698 81 LINE SMOOTH",
"706 81 OFFCURVE",
"721 97 OFFCURVE",
"721 106 QCURVE SMOOTH"
);
}
);
width = 830;
}
);
unicode = 0025;
},
{
glyphname = ampersand;
layers = (
{
layerId = "92FC523E-9234-4103-A150-1ABFFCFEAB52";
paths = (
{
nodes = (
"584 499 LINE",
"584 512 OFFCURVE",
"570 539 OFFCURVE",
"549 560 OFFCURVE",
"522 573 OFFCURVE",
"509 573 QCURVE SMOOTH",
"379 573 LINE",
"379 410 LINE",
"583 410 LINE",
"583 412 LINE",
"583 413 LINE",
"583 414 LINE",
"582 425 OFFCURVE",
"582 438 OFFCURVE",
"582 439 QCURVE",
"706 439 LINE",
"706 431 LINE",
"706 430 LINE",
"706 429 LINE",
"706 428 LINE",
"706 425 LINE",
"706 423 LINE",
"706 419 LINE",
"706 418 LINE",
"706 416 LINE",
"706 414 LINE",
"706 410 LINE",
"746 410 LINE",
"746 286 LINE",
"707 286 LINE",
"707 273 LINE",
"707 272 LINE",
"707 271 LINE",
"707 270 LINE",
"707 203 LINE",
"707 201 LINE",
"707 200 LINE",
"707 199 LINE",
"707 192 LINE",
"707 191 LINE",
"707 190 LINE",
"707 189 LINE",
"707 184 LINE",
"707 183 LINE",
"707 164 LINE",
"707 163 LINE",
"707 162 LINE",
"707 161 LINE",
"707 101 LINE",
"707 100 LINE",
"707 99 LINE",
"707 98 LINE",
"707 97 LINE",
"707 91 LINE",
"707 90 LINE",
"707 89 LINE",
"707 84 LINE",
"707 69 LINE",
"707 68 LINE",
"707 67 LINE",
"707 24 LINE",
"707 23 LINE",
"707 22 LINE",
"707 18 LINE",
"707 17 LINE",
"707 8 LINE",
"707 7 LINE",
"707 -1 LINE",
"514 0 LINE",
"215 0 LINE SMOOTH",
"175 0 OFFCURVE",
"105 30 OFFCURVE",
"52 83 OFFCURVE",
"22 153 OFFCURVE",
"22 193 QCURVE SMOOTH",
"22 210 OFFCURVE",
"21 226 OFFCURVE",
"21 227 QCURVE",
"21 239 OFFCURVE",
"26 256 QCURVE",
"30 274 OFFCURVE",
"52 307 OFFCURVE",
"82 333 OFFCURVE",
"116 348 OFFCURVE",
"133 348 QCURVE",
"134 348 LINE",
"135 348 LINE",
"136 348 LINE",
"137 348 LINE",
"114 349 OFFCURVE",
"73 367 OFFCURVE",
"41 397 OFFCURVE",
"22 439 OFFCURVE",
"22 465 QCURVE SMOOTH",
"22 470 LINE",
"22 471 LINE",
"22 472 LINE",
"22 473 LINE",
"22 474 LINE",
"22 475 LINE",
"22 476 LINE",
"22 477 LINE",
"22 478 LINE",
"22 479 LINE",
"22 480 LINE",
"22 483 LINE",
"22 484 LINE",
"22 485 LINE",
"22 487 LINE",
"22 488 LINE",
"22 505 LINE",
"22 506 LINE",
"22 511 LINE SMOOTH",
"22 535 OFFCURVE",
"29 556 QCURVE SMOOTH",
"38 587 OFFCURVE",
"74 639 OFFCURVE",
"123 676 OFFCURVE",
"182 696 OFFCURVE",
"215 696 QCURVE SMOOTH",
"291 696 OFFCURVE",
"404 698 OFFCURVE",
"441 698 QCURVE SMOOTH",
"460 698 OFFCURVE",
"498 698 OFFCURVE",
"517 697 QCURVE",
"560 697 OFFCURVE",
"628 665 OFFCURVE",
"677 610 OFFCURVE",
"705 537 OFFCURVE",
"707 497 QCURVE",
"584 497 LINE"
);
},
{
nodes = (
"379 123 LINE",
"584 122 LINE",
"584 124 LINE",
"584 125 LINE",
"584 151 LINE",
"584 152 LINE",
"584 158 LINE",
"584 159 LINE",
"584 161 LINE",
"584 162 LINE",
"584 256 LINE",
"584 258 LINE",
"584 261 LINE",
"584 263 LINE",
"584 271 LINE",
"584 274 LINE",
"584 280 LINE",
"583 282 OFFCURVE",
"583 286 QCURVE",
"379 286 LINE"
);
}
);
width = 767;
}
);
unicode = 0026;
},
{
glyphname = quotesingle;
layers = (
{
layerId = "92FC523E-9234-4103-A150-1ABFFCFEAB52";
paths = (
{
nodes = (
"288 694 LINE",
"240 367 LINE",
"77 367 LINE",
"25 694 LINE"
);
}
);
width = 317;
}
);
unicode = 0027;
},
{
glyphname = parenleft;
layers = (
{
layerId = "92FC523E-9234-4103-A150-1ABFFCFEAB52";
paths = (
{
nodes = (
"388 855 LINE",
"388 732 LINE",
"265 732 LINE",
"265 -43 LINE",
"388 -43 LINE",
"388 -166 LINE",
"226 -166 LINE SMOOTH",
"184 -166 OFFCURVE",
"110 -134 OFFCURVE",
"54 -78 OFFCURVE",
"22 -4 OFFCURVE",
"22 38 QCURVE SMOOTH",
"22 651 LINE SMOOTH",
"22 693 OFFCURVE",
"54 767 OFFCURVE",
"110 823 OFFCURVE",
"184 855 OFFCURVE",
"226 855 QCURVE SMOOTH"
);
}
);
width = 287;
}
);
unicode = 0028;
},
{
glyphname = parenright;
layers = (
{
layerId = "92FC523E-9234-4103-A150-1ABFFCFEAB52";
paths = (
{
nodes = (
"61 855 LINE SMOOTH",
"103 855 OFFCURVE",
"177 823 OFFCURVE",
"233 767 OFFCURVE",
"265 693 OFFCURVE",
"265 651 QCURVE SMOOTH",
"265 38 LINE SMOOTH",
"265 -4 OFFCURVE",
"233 -78 OFFCURVE",
"177 -134 OFFCURVE",
"103 -166 OFFCURVE",
"61 -166 QCURVE SMOOTH",
"-101 -166 LINE",
"-101 -43 LINE",
"22 -43 LINE",
"22 732 LINE",
"-101 732 LINE",
"-101 855 LINE"
);
}
);
width = 287;
}
);
unicode = 0029;
},
{
glyphname = asterisk;
layers = (
{
layerId = "92FC523E-9234-4103-A150-1ABFFCFEAB52";
paths = (
{
nodes = (
"371 456 LINE",
"310 355 LINE",
"239 421 LINE",
"249 324 LINE",
"132 324 LINE",
"142 405 LINE",
"86 349 LINE",
"20 451 LINE",
"91 487 LINE",
"15 523 LINE",
"81 619 LINE",
"142 563 LINE",
"127 660 LINE",
"244 660 LINE",
"234 558 LINE",
"305 619 LINE",
"366 523 LINE",
"300 492 LINE"
);
}
);
width = 394;
}
);
unicode = 002A;
},
{
glyphname = plus;
layers = (
{
layerId = "92FC523E-9234-4103-A150-1ABFFCFEAB52";
paths = (
{
nodes = (
"202 187 LINE",
"123 187 LINE",
"123 298 LINE",
"16 298 LINE",
"16 377 LINE",
"123 377 LINE",
"123 481 LINE",
"202 481 LINE",
"202 377 LINE",
"310 377 LINE",
"310 298 LINE",
"202 298 LINE"
);
}
);
width = 330;
}
);
unicode = 002B;
},
{
glyphname = comma;
layers = (
{
layerId = "92FC523E-9234-4103-A150-1ABFFCFEAB52";
paths = (
{
nodes = (
"208 123 LINE",
"208 0 LINE",
"46 -115 LINE",
"-13 -62 LINE",
"69 0 LINE",
"14 0 LINE",
"14 123 LINE"
);
}
);
width = 228;
}
);
unicode = 002C;
},
{
glyphname = hyphen;
layers = (
{
layerId = "92FC523E-9234-4103-A150-1ABFFCFEAB52";
paths = (
{
nodes = (
"310 377 LINE",
"310 298 LINE",
"16 298 LINE",
"16 377 LINE"
);
}
);
width = 331;
}
);
unicode = 002D;
},
{
glyphname = period;
layers = (
{
layerId = "92FC523E-9234-4103-A150-1ABFFCFEAB52";
paths = (
{
nodes = (
"209 123 LINE",
"209 0 LINE",
"17 0 LINE",
"17 123 LINE"
);
}
);
width = 227;
}
);
unicode = 002E;
},
{
glyphname = slash;
layers = (
{
layerId = "92FC523E-9234-4103-A150-1ABFFCFEAB52";
paths = (
{
nodes = (
"492 696 LINE",
"157 0 LINE",
"15 0 LINE",
"349 696 LINE"
);
}
);
width = 507;
}
);
unicode = 002F;
},
{
glyphname = zero;
layers = (
{
layerId = "92FC523E-9234-4103-A150-1ABFFCFEAB52";
paths = (
{
nodes = (
"722 186 LINE",
"722 147 OFFCURVE",
"686 80 OFFCURVE",
"627 29 OFFCURVE",
"554 0 OFFCURVE",
"518 0 QCURVE",
"213 1 LINE",
"174 1 OFFCURVE",
"106 37 OFFCURVE",
"55 95 OFFCURVE",
"26 168 OFFCURVE",
"26 205 QCURVE SMOOTH",
"26 510 LINE SMOOTH",
"26 543 OFFCURVE",
"60 609 OFFCURVE",
"114 663 OFFCURVE",
"180 696 OFFCURVE",
"213 696 QCURVE SMOOTH",
"536 696 LINE SMOOTH",
"574 696 OFFCURVE",
"642 659 OFFCURVE",
"693 601 OFFCURVE",
"723 528 OFFCURVE",
"723 492 QCURVE"
);
},
{
nodes = (
"589 533 LINE",
"585 540 OFFCURVE",
"570 554 OFFCURVE",
"553 566 OFFCURVE",
"535 573 OFFCURVE",
"527 573 QCURVE SMOOTH",
"395 573 LINE",
"395 202 LINE"
);
},
{
nodes = (
"599 466 LINE",
"395 123 LINE",
"525 123 LINE SMOOTH",
"538 123 OFFCURVE",
"565 136 OFFCURVE",
"586 157 OFFCURVE",
"599 183 OFFCURVE",
"599 197 QCURVE SMOOTH"
);
}
);
width = 751;
}
);
unicode = 0030;
},
{
glyphname = one;
layers = (
{
layerId = "92FC523E-9234-4103-A150-1ABFFCFEAB52";
paths = (
{
nodes = (
"143 696 LINE",
"471 696 LINE",
"471 0 LINE",
"143 0 LINE",
"143 492 LINE",
"20 492 LINE",
"20 573 LINE"
);
}
);
width = 499;
}
);
unicode = 0031;
},
{
glyphname = two;
layers = (
{
layerId = "92FC523E-9234-4103-A150-1ABFFCFEAB52";
paths = (
{
nodes = (
"530 696 LINE SMOOTH",
"563 696 OFFCURVE",
"629 663 OFFCURVE",
"683 609 OFFCURVE",
"716 543 OFFCURVE",
"716 510 QCURVE",
"717 368 LINE",
"717 347 OFFCURVE",
"699 303 OFFCURVE",
"669 268 OFFCURVE",
"628 246 OFFCURVE",
"605 246 QCURVE SMOOTH",
"184 246 LINE SMOOTH",
"158 246 OFFCURVE",
"143 209 OFFCURVE",
"143 187 QCURVE SMOOTH",
"143 183 LINE",
"143 182 LINE",
"143 180 LINE",
"143 173 LINE",
"143 160 LINE SMOOTH",
"143 150 OFFCURVE",
"165 123 OFFCURVE",
"177 123 QCURVE SMOOTH",
"717 123 LINE",
"717 0 LINE",
"20 0 LINE",
"20 246 LINE SMOOTH",
"20 268 OFFCURVE",
"38 311 OFFCURVE",
"68 346 OFFCURVE",
"109 368 OFFCURVE",
"132 368 QCURVE SMOOTH",
"348 368 LINE",
"348 573 LINE",
"218 573 LINE SMOOTH",
"192 573 OFFCURVE",
"162 549 OFFCURVE",
"147 513 OFFCURVE",
"143 470 OFFCURVE",
"143 451 QCURVE",
"20 451 LINE",
"20 492 LINE SMOOTH",
"20 528 OFFCURVE",
"49 601 OFFCURVE",
"100 660 OFFCURVE",
"168 696 OFFCURVE",
"207 696 QCURVE SMOOTH"
);
}
);
width = 734;
}
);
unicode = 0032;
},
{
glyphname = three;
layers = (
{
layerId = "92FC523E-9234-4103-A150-1ABFFCFEAB52";
paths = (
{
nodes = (
"507 697 LINE SMOOTH",
"559 697 OFFCURVE",
"632 659 OFFCURVE",
"679 595 OFFCURVE",
"701 511 OFFCURVE",
"701 465 QCURVE SMOOTH",
"701 440 OFFCURVE",
"682 398 OFFCURVE",
"651 367 OFFCURVE",
"608 349 OFFCURVE",
"584 348 QCURVE",
"585 348 LINE",
"587 348 LINE",
"588 348 LINE",
"589 348 LINE",
"622 348 OFFCURVE",
"665 322 OFFCURVE",
"691 278 OFFCURVE",
"701 223 OFFCURVE",
"701 194 QCURVE SMOOTH",
"701 155 OFFCURVE",
"670 84 OFFCURVE",
"617 31 OFFCURVE",
"546 0 OFFCURVE",
"507 0 QCURVE SMOOTH",
"220 0 LINE SMOOTH",
"166 0 OFFCURVE",
"88 41 OFFCURVE",
"38 109 OFFCURVE",
"15 195 OFFCURVE",
"15 239 QCURVE",
"15 240 LINE",
"15 242 LINE",
"15 243 LINE",
"15 244 LINE",
"15 245 LINE",
"15 246 LINE",
"138 246 LINE",
"138 228 OFFCURVE",
"142 185 OFFCURVE",
"158 148 OFFCURVE",
"187 123 OFFCURVE",
"213 123 QCURVE SMOOTH",
"343 123 LINE",
"343 287 LINE",
"261 287 LINE",
"261 411 LINE",
"343 411 LINE",
"343 574 LINE",
"220 574 LINE SMOOTH",
"192 574 OFFCURVE",
"159 552 OFFCURVE",
"143 517 OFFCURVE",
"138 473 OFFCURVE",
"138 451 QCURVE",
"15 451 LINE",
"15 492 LINE SMOOTH",
"15 534 OFFCURVE",
"48 609 OFFCURVE",
"103 664 OFFCURVE",
"178 697 OFFCURVE",
"220 697 QCURVE SMOOTH"
);
}
);
width = 722;
}
);
unicode = 0033;
},
{
glyphname = four;
layers = (
{
layerId = "92FC523E-9234-4103-A150-1ABFFCFEAB52";
paths = (
{
nodes = (
"199 410 LINE",
"308 410 LINE",
"308 532 LINE"
);
},
{
nodes = (
"636 410 LINE",
"695 410 LINE",
"695 286 LINE",
"636 286 LINE",
"636 0 LINE",
"308 0 LINE",
"308 286 LINE",
"31 286 LINE",
"31 409 LINE",
"308 696 LINE",
"636 696 LINE"
);
}
);
width = 724;
}
);
unicode = 0034;
},
{
glyphname = five;
layers = (
{
layerId = "92FC523E-9234-4103-A150-1ABFFCFEAB52";
paths = (
{
nodes = (
"393 246 LINE",
"393 123 LINE",
"524 123 LINE SMOOTH",
"537 123 OFFCURVE",
"564 137 OFFCURVE",
"585 158 OFFCURVE",
"598 185 OFFCURVE",
"598 198 QCURVE SMOOTH",
"598 294 LINE SMOOTH",
"598 306 OFFCURVE",
"571 328 OFFCURVE",
"561 328 QCURVE SMOOTH",
"25 328 LINE",
"25 697 LINE",
"721 697 LINE",
"721 574 LINE",
"393 574 LINE",
"393 451 LINE",
"598 451 LINE SMOOTH",
"620 451 OFFCURVE",
"664 433 OFFCURVE",
"699 403 OFFCURVE",
"721 362 OFFCURVE",
"721 339 QCURVE SMOOTH",
"721 205 LINE SMOOTH",
"721 163 OFFCURVE",
"689 88 OFFCURVE",
"633 32 OFFCURVE",
"558 0 OFFCURVE",
"516 0 QCURVE SMOOTH",
"211 0 LINE SMOOTH",
"161 0 OFFCURVE",
"90 46 OFFCURVE",
"45 116 OFFCURVE",
"25 201 OFFCURVE",
"25 239 QCURVE SMOOTH",
"25 242 LINE",
"25 243 LINE",
"25 244 LINE",
"25 245 LINE",
"25 246 LINE"
);
}
);
width = 744;
}
);
unicode = 0035;
},
{
glyphname = six;
layers = (
{
layerId = "92FC523E-9234-4103-A150-1ABFFCFEAB52";
paths = (
{
nodes = (
"591 492 LINE",
"591 496 LINE",
"591 497 LINE",
"591 499 LINE",
"591 500 LINE",
"591 533 OFFCURVE",
"546 568 OFFCURVE",
"511 573 QCURVE SMOOTH",
"488 576 OFFCURVE",
"459 577 OFFCURVE",
"453 577 QCURVE SMOOTH",
"436 577 OFFCURVE",
"399 574 OFFCURVE",
"386 574 QCURVE",
"386 451 LINE",
"602 451 LINE SMOOTH",
"625 451 OFFCURVE",
"666 429 OFFCURVE",
"696 393 OFFCURVE",
"714 349 OFFCURVE",
"714 328 QCURVE SMOOTH",
"714 205 LINE SMOOTH",
"714 163 OFFCURVE",
"681 88 OFFCURVE",
"626 33 OFFCURVE",
"551 0 OFFCURVE",
"509 0 QCURVE",
"204 1 LINE",
"165 1 OFFCURVE",
"97 37 OFFCURVE",
"46 96 OFFCURVE",
"17 169 OFFCURVE",
"17 205 QCURVE",
"18 510 LINE",
"18 543 OFFCURVE",
"51 610 OFFCURVE",
"105 663 OFFCURVE",
"171 696 OFFCURVE",
"204 696 QCURVE SMOOTH",
"509 696 LINE SMOOTH",
"552 696 OFFCURVE",
"627 664 OFFCURVE",
"681 609 OFFCURVE",
"713 534 OFFCURVE",
"714 492 QCURVE"
);
},
{
nodes = (
"386 328 LINE",
"386 123 LINE",
"516 123 LINE SMOOTH",
"529 123 OFFCURVE",
"556 137 OFFCURVE",
"578 158 OFFCURVE",
"591 185 OFFCURVE",
"591 198 QCURVE SMOOTH",
"591 291 LINE SMOOTH",
"591 304 OFFCURVE",
"567 328 OFFCURVE",
"554 328 QCURVE SMOOTH"
);
}
);
width = 743;
}
);
unicode = 0036;
},
{
glyphname = seven;
layers = (
{
layerId = "92FC523E-9234-4103-A150-1ABFFCFEAB52";
paths = (
{
nodes = (
"762 696 LINE",
"434 0 LINE",
"65 0 LINE",
"369 573 LINE",
"24 573 LINE",
"24 696 LINE"
);
}
);
width = 781;
}
);
unicode = 0037;
},
{
glyphname = eight;
layers = (
{
layerId = "92FC523E-9234-4103-A150-1ABFFCFEAB52";
paths = (
{
nodes = (
"230 698 OFFCURVE",
"268 698 OFFCURVE",
"287 698 QCURVE SMOOTH",
"325 698 OFFCURVE",
"437 696 OFFCURVE",
"513 696 QCURVE SMOOTH",
"546 696 OFFCURVE",
"605 676 OFFCURVE",
"654 639 OFFCURVE",
"690 587 OFFCURVE",
"699 556 QCURVE SMOOTH",
"706 535 OFFCURVE",
"706 511 QCURVE SMOOTH",
"706 507 LINE",
"706 506 LINE",
"706 503 LINE",
"706 498 LINE",
"706 497 LINE",
"706 492 LINE",
"706 490 LINE",
"706 489 LINE",
"706 465 LINE SMOOTH",
"706 439 OFFCURVE",
"687 397 OFFCURVE",
"655 367 OFFCURVE",
"613 349 OFFCURVE",
"591 348 QCURVE",
"592 348 LINE",
"593 348 LINE",
"594 348 LINE",
"595 348 LINE",
"611 348 OFFCURVE",
"646 333 OFFCURVE",
"676 307 OFFCURVE",
"698 274 OFFCURVE",
"702 256 QCURVE",
"707 239 OFFCURVE",
"707 227 QCURVE",
"707 226 OFFCURVE",
"706 210 OFFCURVE",
"706 193 QCURVE SMOOTH",
"706 153 OFFCURVE",
"676 83 OFFCURVE",
"623 30 OFFCURVE",
"553 0 OFFCURVE",
"513 0 QCURVE SMOOTH",
"214 0 LINE SMOOTH",
"169 0 OFFCURVE",
"98 35 OFFCURVE",
"48 93 OFFCURVE",
"21 168 OFFCURVE",
"21 209 QCURVE SMOOTH",
"21 249 OFFCURVE",
"63 317 OFFCURVE",
"94 334 QCURVE SMOOTH",
"113 345 OFFCURVE",
"132 348 QCURVE",
"128 348 LINE SMOOTH",
"109 348 OFFCURVE",
"70 373 OFFCURVE",
"55 395 QCURVE",
"39 416 OFFCURVE",
"21 467 OFFCURVE",
"21 488 QCURVE SMOOTH",
"21 530 OFFCURVE",
"48 606 OFFCURVE",
"97 663 OFFCURVE",
"167 697 OFFCURVE",
"211 697 QCURVE"
);
},
{
nodes = (
"144 482 OFFCURVE",
"155 451 OFFCURVE",
"175 425 OFFCURVE",
"202 410 OFFCURVE",
"218 410 QCURVE SMOOTH",
"349 410 LINE",
"349 573 LINE",
"219 573 LINE SMOOTH",
"206 573 OFFCURVE",
"179 560 OFFCURVE",
"158 539 OFFCURVE",
"144 512 OFFCURVE",
"144 499 QCURVE SMOOTH"
);
},
{
nodes = (
"349 123 LINE",
"349 286 LINE",
"225 286 LINE SMOOTH",
"192 286 OFFCURVE",
"144 237 OFFCURVE",
"144 204 QCURVE SMOOTH",
"144 189 OFFCURVE",
"156 160 OFFCURVE",
"177 137 OFFCURVE",
"204 123 OFFCURVE",
"219 123 QCURVE SMOOTH"
);
}
);
width = 722;
}
);
unicode = 0038;
},
{
glyphname = nine;
layers = (
{
layerId = "92FC523E-9234-4103-A150-1ABFFCFEAB52";
paths = (
{
nodes = (
"352 245 LINE",
"352 122 LINE",
"524 122 LINE SMOOTH",
"537 122 OFFCURVE",
"563 136 OFFCURVE",
"584 157 OFFCURVE",
"598 183 OFFCURVE",
"598 196 QCURVE SMOOTH",
"598 286 LINE",
"136 286 LINE SMOOTH",
"113 286 OFFCURVE",
"72 308 OFFCURVE",
"42 343 OFFCURVE",
"24 387 OFFCURVE",
"24 409 QCURVE SMOOTH",
"24 491 LINE SMOOTH",
"24 533 OFFCURVE",
"57 607 OFFCURVE",
"113 663 OFFCURVE",
"187 696 OFFCURVE",
"229 696 QCURVE",
"535 695 LINE",
"573 695 OFFCURVE",
"641 658 OFFCURVE",
"692 600 OFFCURVE",
"721 527 OFFCURVE",
"721 491 QCURVE SMOOTH",
"721 204 LINE SMOOTH",
"721 168 OFFCURVE",
"692 95 OFFCURVE",
"641 36 OFFCURVE",
"574 0 OFFCURVE",
"535 0 QCURVE",
"229 -1 LINE",
"174 -1 OFFCURVE",
"96 40 OFFCURVE",
"47 108 OFFCURVE",
"24 193 OFFCURVE",
"24 237 QCURVE",
"24 238 LINE",
"24 241 LINE",
"24 242 LINE",
"24 243 LINE",
"24 244 LINE",
"24 245 LINE"
);
},
{
nodes = (
"352 572 LINE",
"352 409 LINE",
"598 409 LINE",
"598 498 LINE SMOOTH",
"598 511 OFFCURVE",
"584 537 OFFCURVE",
"563 558 OFFCURVE",
"537 572 OFFCURVE",
"524 572 QCURVE SMOOTH"
);
}
);
width = 742;
}
);
unicode = 0039;
},
{
glyphname = colon;
layers = (
{
layerId = "92FC523E-9234-4103-A150-1ABFFCFEAB52";
paths = (
{
nodes = (
"195 123 LINE",
"195 0 LINE",
"21 0 LINE",
"21 123 LINE"
);
},
{
nodes = (
"196 452 LINE",
"196 329 LINE",
"22 329 LINE",
"22 452 LINE"
);
}
);
width = 212;
}
);
unicode = 003A;
},
{
glyphname = semicolon;
layers = (
{
layerId = "92FC523E-9234-4103-A150-1ABFFCFEAB52";
paths = (
{
nodes = (
"204 0 LINE",
"46 -115 LINE",
"-13 -62 LINE",
"69 0 LINE",
"14 0 LINE",
"14 123 LINE",
"204 123 LINE"
);
},
{
nodes = (
"22 458 LINE",
"212 458 LINE",
"212 335 LINE",
"22 335 LINE"
);
}
);
width = 238;
}
);
unicode = 003B;
},
{
glyphname = less;
layers = (
{
layerId = "92FC523E-9234-4103-A150-1ABFFCFEAB52";
paths = (
{
nodes = (
"24 281 LINE",
"24 369 LINE",
"327 588 LINE",
"371 522 LINE",
"97 325 LINE",
"371 128 LINE",
"327 62 LINE"
);
}
);
width = 405;
}
);
unicode = 003C;
},
{
glyphname = equal;
layers = (
{
layerId = "92FC523E-9234-4103-A150-1ABFFCFEAB52";
paths = (
{
nodes = (
"444 475 LINE",
"444 411 LINE",
"40 411 LINE",
"40 475 LINE"
);
},
{
nodes = (
"445 294 LINE",
"445 230 LINE",
"41 230 LINE",
"41 294 LINE"
);
}
);
width = 481;
}
);
unicode = 003D;
},
{
glyphname = greater;
layers = (
{
layerId = "92FC523E-9234-4103-A150-1ABFFCFEAB52";
paths = (
{
nodes = (
"371 369 LINE",
"371 281 LINE",
"68 62 LINE",
"24 128 LINE",
"298 325 LINE",
"24 522 LINE",
"68 588 LINE"
);
}
);
width = 405;
}
);
unicode = 003E;
},
{
glyphname = question;
layers = (
{
layerId = "92FC523E-9234-4103-A150-1ABFFCFEAB52";
paths = (
{
nodes = (
"387 572 LINE",
"344 572 LINE SMOOTH",
"292 572 OFFCURVE",
"248 574 OFFCURVE",
"243 574 QCURVE SMOOTH",
"219 574 OFFCURVE",
"181 566 OFFCURVE",
"154 540 OFFCURVE",
"140 490 OFFCURVE",
"140 449 QCURVE",
"17 449 LINE",
"17 490 LINE SMOOTH",
"17 532 OFFCURVE",
"49 606 OFFCURVE",
"105 661 OFFCURVE",
"179 694 OFFCURVE",
"221 694 QCURVE",
"525 693 LINE",
"558 693 OFFCURVE",
"624 660 OFFCURVE",
"677 608 OFFCURVE",
"710 541 OFFCURVE",
"710 508 QCURVE",
"711 368 LINE",
"711 324 OFFCURVE",
"677 275 OFFCURVE",
"623 251 OFFCURVE",
"556 245 OFFCURVE",
"523 245 QCURVE",
"523 182 LINE",
"229 182 LINE",
"229 256 LINE SMOOTH",
"229 289 OFFCURVE",
"259 332 OFFCURVE",
"304 357 OFFCURVE",
"357 368 OFFCURVE",
"379 368 QCURVE SMOOTH",
"383 368 LINE",
"384 368 LINE",
"385 368 LINE",
"386 368 LINE",
"387 368 LINE"
);
},
{
nodes = (
"523 123 LINE",
"523 0 LINE",
"229 0 LINE",
"229 123 LINE"
);
}
);
width = 729;
}
);
unicode = 003F;
},
{
glyphname = at;
layers = (
{
layerId = "92FC523E-9234-4103-A150-1ABFFCFEAB52";
paths = (
{
nodes = (
"436 625 OFFCURVE",
"560 571 OFFCURVE",
"652 478 OFFCURVE",
"706 353 OFFCURVE",
"706 282 QCURVE SMOOTH",
"706 225 OFFCURVE",
"690 174 QCURVE SMOOTH",
"689 171 OFFCURVE",
"687 165 OFFCURVE",
"685 161 QCURVE SMOOTH",
"683 155 OFFCURVE",
"677 140 OFFCURVE",
"672 131 QCURVE",
"248 131 LINE SMOOTH",
"231 131 OFFCURVE",
"200 147 OFFCURVE",
"177 172 OFFCURVE",
"164 204 OFFCURVE",
"164 221 QCURVE SMOOTH",
"164 352 LINE",
"165 367 OFFCURVE",
"180 396 OFFCURVE",
"204 420 OFFCURVE",
"233 434 OFFCURVE",
"248 434 QCURVE SMOOTH",
"555 434 LINE",
"555 179 LINE",
"645 179 LINE",
"653 204 OFFCURVE",
"663 255 OFFCURVE",
"663 282 QCURVE SMOOTH",
"663 343 OFFCURVE",
"616 452 OFFCURVE",
"536 534 OFFCURVE",
"427 581 OFFCURVE",
"366 581 QCURVE SMOOTH",
"304 581 OFFCURVE",
"196 534 OFFCURVE",
"114 452 OFFCURVE",
"67 343 OFFCURVE",
"67 282 QCURVE SMOOTH",
"67 220 OFFCURVE",
"114 112 OFFCURVE",
"196 32 OFFCURVE",
"304 -15 OFFCURVE",
"366 -15 QCURVE SMOOTH",
"415 -15 OFFCURVE",
"504 14 OFFCURVE",
"540 40 QCURVE",
"576 15 LINE",
"530 -20 OFFCURVE",
"426 -58 OFFCURVE",
"366 -58 QCURVE SMOOTH",
"295 -58 OFFCURVE",
"170 -4 OFFCURVE",
"77 88 OFFCURVE",
"23 212 OFFCURVE",
"23 282 QCURVE SMOOTH",
"23 353 OFFCURVE",
"77 478 OFFCURVE",
"170 571 OFFCURVE",
"295 625 OFFCURVE",
"366 625 QCURVE SMOOTH"
);
},
{
nodes = (
"370 373 LINE",
"330 373 LINE",
"330 192 LINE",
"370 192 LINE"
);
}
);
width = 742;
}
);
unicode = 0040;
},
{
glyphname = A;
layers = (
{
layerId = "92FC523E-9234-4103-A150-1ABFFCFEAB52";
paths = (
{
nodes = (
"243 287 LINE",
"385 287 LINE",
"320 506 LINE"
);
},
{
nodes = (
"469 0 LINE",
"409 205 LINE",
"214 205 LINE",
"141 0 LINE",
"18 0 LINE",
"264 696 LINE",
"592 696 LINE",
"838 0 LINE"
);
}
);
width = 844;
}
);
unicode = 0041;
},
{
glyphname = B;
layers = (
{
layerId = "92FC523E-9234-4103-A150-1ABFFCFEAB52";
paths = (
{
nodes = (
"662 194 OFFCURVE",
"623 105 OFFCURVE",
"557 38 OFFCURVE",
"467 0 OFFCURVE",
"416 0 QCURVE SMOOTH",
"7 0 LINE",
"7 696 LINE",
"416 696 LINE SMOOTH",
"458 696 OFFCURVE",
"533 664 OFFCURVE",
"589 608 OFFCURVE",
"621 533 OFFCURVE",
"621 491 QCURVE SMOOTH",
"621 446 OFFCURVE",
"603 406 QCURVE",
"632 373 OFFCURVE",
"662 290 OFFCURVE",
"662 245 QCURVE SMOOTH"
);
},
{
nodes = (
"498 512 OFFCURVE",
"484 538 OFFCURVE",
"463 559 OFFCURVE",
"437 573 OFFCURVE",
"424 573 QCURVE SMOOTH",
"376 573 LINE",
"376 409 LINE",
"416 409 LINE SMOOTH",
"455 409 OFFCURVE",
"498 462 OFFCURVE",
"498 499 QCURVE SMOOTH"
);
},
{
nodes = (
"376 327 LINE",
"376 163 LINE",
"416 163 LINE SMOOTH",
"455 163 OFFCURVE",
"498 217 OFFCURVE",
"498 253 QCURVE SMOOTH",
"498 266 OFFCURVE",
"484 293 OFFCURVE",
"463 314 OFFCURVE",
"437 327 OFFCURVE",
"424 327 QCURVE SMOOTH"
);
}
);
width = 686;
}
);
unicode = 0042;
},
{
glyphname = C;
layers = (
{
layerId = "92FC523E-9234-4103-A150-1ABFFCFEAB52";
paths = (
{
nodes = (
"524 696 LINE SMOOTH",
"563 696 OFFCURVE",
"630 660 OFFCURVE",
"680 601 OFFCURVE",
"709 528 OFFCURVE",
"710 492 QCURVE",
"587 492 LINE",
"587 494 LINE",
"587 495 LINE",
"587 496 LINE",
"587 508 OFFCURVE",
"575 535 OFFCURVE",
"555 558 OFFCURVE",
"528 573 OFFCURVE",
"513 573 QCURVE SMOOTH",
"382 573 LINE",
"382 123 LINE",
"513 123 LINE SMOOTH",
"528 123 OFFCURVE",
"555 138 OFFCURVE",
"575 162 OFFCURVE",
"587 189 OFFCURVE",
"587 201 QCURVE",
"587 203 LINE",
"587 204 LINE",
"587 205 LINE",
"710 205 LINE",
"709 163 OFFCURVE",
"677 88 OFFCURVE",
"623 32 OFFCURVE",
"549 0 OFFCURVE",
"506 0 QCURVE SMOOTH",
"200 0 LINE SMOOTH",
"161 0 OFFCURVE",
"94 37 OFFCURVE",
"43 95 OFFCURVE",
"14 169 OFFCURVE",
"14 205 QCURVE SMOOTH",
"14 492 LINE SMOOTH",
"14 528 OFFCURVE",
"43 601 OFFCURVE",
"94 659 OFFCURVE",
"161 696 OFFCURVE",
"200 696 QCURVE SMOOTH"
);
}
);
width = 723;
}
);
unicode = 0043;
},
{
glyphname = D;
layers = (
{
layerId = "92FC523E-9234-4103-A150-1ABFFCFEAB52";
paths = (
{
nodes = (
"714 205 LINE SMOOTH",
"714 163 OFFCURVE",
"682 88 OFFCURVE",
"626 32 OFFCURVE",
"551 0 OFFCURVE",
"509 0 QCURVE SMOOTH",
"18 0 LINE",
"18 697 LINE",
"509 697 LINE SMOOTH",
"551 697 OFFCURVE",
"626 664 OFFCURVE",
"681 609 OFFCURVE",
"714 534 OFFCURVE",
"714 492 QCURVE SMOOTH"
);
},
{
nodes = (
"591 499 LINE SMOOTH",
"591 512 OFFCURVE",
"577 539 OFFCURVE",
"556 560 OFFCURVE",
"530 573 OFFCURVE",
"517 573 QCURVE SMOOTH",
"345 573 LINE",
"345 123 LINE",
"517 123 LINE SMOOTH",
"530 123 OFFCURVE",
"556 137 OFFCURVE",
"577 158 OFFCURVE",
"591 184 OFFCURVE",
"591 197 QCURVE SMOOTH"
);
}
);
width = 726;
}
);
unicode = 0044;
},
{
glyphname = E;
layers = (
{
layerId = "92FC523E-9234-4103-A150-1ABFFCFEAB52";
paths = (
{
nodes = (
"349 410 LINE",
"554 410 LINE",
"554 328 LINE",
"349 328 LINE",
"349 123 LINE",
"595 123 LINE",
"595 0 LINE",
"22 0 LINE",
"22 696 LINE",
"595 696 LINE",
"595 573 LINE",
"349 573 LINE"
);
}
);
width = 616;
}
);
unicode = 0045;
},
{
glyphname = F;
layers = (
{
layerId = "92FC523E-9234-4103-A150-1ABFFCFEAB52";
paths = (
{
nodes = (
"360 410 LINE",
"565 410 LINE",
"565 328 LINE",
"360 328 LINE",
"360 0 LINE",
"33 0 LINE",
"33 697 LINE",
"606 697 LINE",
"606 574 LINE",
"360 574 LINE"
);
}
);
width = 631;
}
);
unicode = 0046;
},
{
glyphname = G;
layers = (
{
layerId = "92FC523E-9234-4103-A150-1ABFFCFEAB52";
paths = (
{
nodes = (
"591 492 LINE",
"591 496 LINE",
"591 497 LINE",
"591 499 LINE",
"591 500 LINE",
"591 533 OFFCURVE",
"547 568 OFFCURVE",
"512 574 QCURVE SMOOTH",
"477 579 OFFCURVE",
"406 574 OFFCURVE",
"386 574 QCURVE",
"386 123 LINE",
"399 123 OFFCURVE",
"436 120 OFFCURVE",
"453 120 QCURVE SMOOTH",
"456 120 OFFCURVE",
"477 120 OFFCURVE",
"505 123 OFFCURVE",
"538 130 OFFCURVE",
"553 137 QCURVE SMOOTH",
"591 156 OFFCURVE",
"591 197 QCURVE SMOOTH",
"591 201 LINE",
"591 202 LINE",
"591 204 LINE",
"591 205 LINE",
"468 205 LINE",
"468 328 LINE",
"714 328 LINE",
"714 205 LINE SMOOTH",
"714 163 OFFCURVE",
"681 89 OFFCURVE",
"626 33 OFFCURVE",
"551 0 OFFCURVE",
"509 0 QCURVE SMOOTH",
"204 0 LINE SMOOTH",
"165 0 OFFCURVE",
"97 37 OFFCURVE",
"46 95 OFFCURVE",
"17 169 OFFCURVE",
"17 205 QCURVE SMOOTH",
"17 492 LINE SMOOTH",
"17 529 OFFCURVE",
"46 602 OFFCURVE",
"97 660 OFFCURVE",
"165 696 OFFCURVE",
"204 696 QCURVE",
"509 697 LINE",
"552 697 OFFCURVE",
"627 665 OFFCURVE",
"681 609 OFFCURVE",
"713 534 OFFCURVE",
"714 492 QCURVE"
);
}
);
width = 744;
}
);
unicode = 0047;
},
{
glyphname = H;
layers = (
{
layerId = "92FC523E-9234-4103-A150-1ABFFCFEAB52";
paths = (
{
nodes = (
"636 410 LINE",
"636 697 LINE",
"759 697 LINE",
"759 0 LINE",
"636 0 LINE",
"636 328 LINE",
"390 328 LINE",
"390 0 LINE",
"21 0 LINE",
"21 697 LINE",
"390 697 LINE",
"390 410 LINE"
);
}
);
width = 779;
}
);
unicode = 0048;
},
{
glyphname = I;
layers = (
{
layerId = "92FC523E-9234-4103-A150-1ABFFCFEAB52";
paths = (
{
nodes = (
"356 696 LINE",
"356 0 LINE",
"29 0 LINE",
"29 696 LINE"
);
}
);
width = 383;
}
);
unicode = 0049;
},
{
glyphname = J;
layers = (
{
layerId = "92FC523E-9234-4103-A150-1ABFFCFEAB52";
paths = (
{
nodes = (
"469 697 LINE",
"469 205 LINE SMOOTH",
"469 163 OFFCURVE",
"436 88 OFFCURVE",
"381 33 OFFCURVE",
"306 0 OFFCURVE",
"264 0 QCURVE SMOOTH",
"18 0 LINE",
"18 123 LINE",
"141 123 LINE",
"141 697 LINE"
);
}
);
width = 491;
}
);
unicode = 004A;
},
{
glyphname = K;
layers = (
{
layerId = "92FC523E-9234-4103-A150-1ABFFCFEAB52";
paths = (
{
nodes = (
"483 377 LINE",
"757 0 LINE",
"470 0 LINE",
"388 109 LINE",
"388 0 LINE",
"19 0 LINE",
"19 697 LINE",
"388 697 LINE",
"388 410 LINE",
"440 482 OFFCURVE",
"542 625 OFFCURVE",
"593 697 QCURVE",
"716 697 LINE"
);
}
);
width = 778;
}
);
unicode = 004B;
},
{
glyphname = L;
layers = (
{
layerId = "92FC523E-9234-4103-A150-1ABFFCFEAB52";
paths = (
{
nodes = (
"599 123 LINE",
"599 0 LINE",
"26 0 LINE",
"26 697 LINE",
"354 697 LINE",
"354 123 LINE"
);
}
);
width = 626;
}
);
unicode = 004C;
},
{
glyphname = M;
layers = (
{
layerId = "92FC523E-9234-4103-A150-1ABFFCFEAB52";
paths = (
{
nodes = (
"1012 696 LINE",
"1012 0 LINE",
"684 0 LINE",
"684 278 LINE",
"602 0 LINE",
"479 0 LINE",
"397 278 LINE",
"397 0 LINE",
"29 0 LINE",
"29 696 LINE",
"397 696 LINE",
"541 209 LINE",
"684 696 LINE"
);
}
);
width = 1043;
}
);
unicode = 004D;
},
{
glyphname = N;
layers = (
{
layerId = "92FC523E-9234-4103-A150-1ABFFCFEAB52";
paths = (
{
nodes = (
"395 697 LINE",
"641 232 LINE",
"641 697 LINE",
"763 697 LINE",
"763 0 LINE",
"641 0 LINE",
"395 464 LINE",
"395 0 LINE",
"26 0 LINE",
"26 697 LINE"
);
}
);
width = 794;
}
);
unicode = 004E;
},
{
glyphname = O;
layers = (
{
layerId = "92FC523E-9234-4103-A150-1ABFFCFEAB52";
paths = (
{
nodes = (
"719 186 LINE SMOOTH",
"719 148 OFFCURVE",
"683 80 OFFCURVE",
"624 29 OFFCURVE",
"551 0 OFFCURVE",
"515 0 QCURVE",
"210 1 LINE",
"171 1 OFFCURVE",
"103 37 OFFCURVE",
"52 95 OFFCURVE",
"23 168 OFFCURVE",
"23 205 QCURVE SMOOTH",
"23 510 LINE SMOOTH",
"23 543 OFFCURVE",
"57 609 OFFCURVE",
"110 663 OFFCURVE",
"177 696 OFFCURVE",
"210 696 QCURVE SMOOTH",
"533 696 LINE SMOOTH",
"571 696 OFFCURVE",
"639 659 OFFCURVE",
"690 601 OFFCURVE",
"719 528 OFFCURVE",
"719 492 QCURVE SMOOTH"
);
},
{
nodes = (
"596 492 LINE SMOOTH",
"596 507 OFFCURVE",
"584 536 OFFCURVE",
"564 559 OFFCURVE",
"537 573 OFFCURVE",
"522 573 QCURVE SMOOTH",
"392 573 LINE",
"392 123 LINE",
"522 123 LINE SMOOTH",
"535 123 OFFCURVE",
"562 136 OFFCURVE",
"583 157 OFFCURVE",
"596 183 OFFCURVE",
"596 197 QCURVE SMOOTH"
);
}
);
width = 744;
}
);
unicode = 004F;
},
{
glyphname = P;
layers = (
{
layerId = "92FC523E-9234-4103-A150-1ABFFCFEAB52";
paths = (
{
nodes = (
"390 287 LINE",
"390 0 LINE",
"21 0 LINE",
"21 696 LINE",
"449 696 LINE SMOOTH",
"488 696 OFFCURVE",
"557 659 OFFCURVE",
"607 601 OFFCURVE",
"636 528 OFFCURVE",
"636 492 QCURVE SMOOTH",
"636 447 OFFCURVE",
"606 372 OFFCURVE",
"552 318 OFFCURVE",
"476 288 OFFCURVE",
"430 287 QCURVE"
);
},
{
nodes = (
"513 507 OFFCURVE",
"501 536 OFFCURVE",
"480 559 OFFCURVE",
"454 573 OFFCURVE",
"439 573 QCURVE SMOOTH",
"390 573 LINE",
"390 409 LINE",
"431 409 LINE SMOOTH",
"448 409 OFFCURVE",
"478 423 OFFCURVE",
"500 445 OFFCURVE",
"513 475 OFFCURVE",
"513 492 QCURVE SMOOTH"
);
}
);
width = 660;
}
);
unicode = 0050;
},
{
glyphname = Q.001;
layers = (
{
layerId = "92FC523E-9234-4103-A150-1ABFFCFEAB52";
paths = (
{
nodes = (
"602 0 LINE",
"559 39 OFFCURVE",
"480 121 OFFCURVE",
"438 163 QCURVE",
"520 246 LINE",
"581 189 OFFCURVE",
"693 63 OFFCURVE",
"747 0 QCURVE"
);
},
{
nodes = (
"602 204 LINE",
"602 499 LINE SMOOTH",
"602 512 OFFCURVE",
"588 539 OFFCURVE",
"567 560 OFFCURVE",
"540 573 OFFCURVE",
"527 573 QCURVE SMOOTH",
"397 573 LINE",
"397 122 LINE",
"438 122 LINE",
"558 3 LINE",
"557 3 LINE",
"556 3 LINE",
"555 2 LINE",
"553 2 LINE",
"552 2 LINE",
"551 2 LINE",
"550 1 LINE",
"548 1 LINE",
"545 0 OFFCURVE",
"538 0 QCURVE SMOOTH",
"215 0 LINE SMOOTH",
"177 0 OFFCURVE",
"109 36 OFFCURVE",
"58 95 OFFCURVE",
"28 168 OFFCURVE",
"28 204 QCURVE SMOOTH",
"28 409 LINE",
"29 510 LINE",
"29 543 OFFCURVE",
"63 609 OFFCURVE",
"116 662 OFFCURVE",
"182 695 OFFCURVE",
"215 695 QCURVE",
"520 696 LINE",
"562 696 OFFCURVE",
"637 663 OFFCURVE",
"693 608 OFFCURVE",
"725 533 OFFCURVE",
"725 491 QCURVE",
"723 180 LINE",
"723 172 OFFCURVE",
"718 150 OFFCURVE",
"711 128 OFFCURVE",
"700 108 OFFCURVE",
"694 102 QCURVE"
);
}
);
width = 755;
}
);
},
{
glyphname = R;
layers = (
{
layerId = "92FC523E-9234-4103-A150-1ABFFCFEAB52";
paths = (
{
nodes = (
"645 438 OFFCURVE",
"595 350 OFFCURVE",
"550 319 QCURVE",
"727 0 LINE",
"481 0 LINE",
"465 36 OFFCURVE",
"419 109 OFFCURVE",
"399 144 QCURVE",
"399 0 LINE",
"30 0 LINE",
"30 697 LINE",
"440 697 LINE SMOOTH",
"482 697 OFFCURVE",
"557 664 OFFCURVE",
"612 609 OFFCURVE",
"645 534 OFFCURVE",
"645 492 QCURVE SMOOTH"
);
},
{
nodes = (
"522 526 OFFCURVE",
"473 574 OFFCURVE",
"440 574 QCURVE SMOOTH",
"399 574 LINE",
"399 410 LINE",
"447 410 LINE SMOOTH",
"462 410 OFFCURVE",
"490 425 OFFCURVE",
"510 449 OFFCURVE",
"522 478 OFFCURVE",
"522 492 QCURVE SMOOTH"
);
}
);
width = 739;
}
);
unicode = 0052;
},
{
glyphname = S;
layers = (
{
layerId = "92FC523E-9234-4103-A150-1ABFFCFEAB52";
paths = (
{
nodes = (
"723 205 LINE SMOOTH",
"723 163 OFFCURVE",
"691 88 OFFCURVE",
"635 32 OFFCURVE",
"560 0 OFFCURVE",
"518 0 QCURVE",
"213 1 LINE",
"174 1 OFFCURVE",
"107 37 OFFCURVE",
"56 96 OFFCURVE",
"27 169 OFFCURVE",
"27 205 QCURVE SMOOTH",
"27 287 LINE",
"395 287 LINE",
"395 123 LINE",
"526 123 LINE SMOOTH",
"539 123 OFFCURVE",
"565 137 OFFCURVE",
"586 158 OFFCURVE",
"600 184 OFFCURVE",
"600 197 QCURVE SMOOTH",
"600 291 LINE SMOOTH",
"600 306 OFFCURVE",
"573 328 OFFCURVE",
"559 328 QCURVE SMOOTH",
"139 328 LINE SMOOTH",
"116 328 OFFCURVE",
"75 350 OFFCURVE",
"45 385 OFFCURVE",
"27 429 OFFCURVE",
"27 451 QCURVE SMOOTH",
"27 470 OFFCURVE",
"26 492 OFFCURVE",
"26 494 QCURVE",
"26 514 OFFCURVE",
"30 529 QCURVE",
"36 559 OFFCURVE",
"70 619 OFFCURVE",
"119 667 OFFCURVE",
"180 696 OFFCURVE",
"213 696 QCURVE SMOOTH",
"537 696 LINE SMOOTH",
"576 696 OFFCURVE",
"643 660 OFFCURVE",
"693 601 OFFCURVE",
"722 528 OFFCURVE",
"723 492 QCURVE",
"600 492 LINE",
"600 494 LINE",
"600 495 LINE",
"600 496 LINE",
"600 508 OFFCURVE",
"588 535 OFFCURVE",
"568 558 OFFCURVE",
"541 573 OFFCURVE",
"526 573 QCURVE SMOOTH",
"395 573 LINE",
"395 451 LINE",
"600 451 LINE SMOOTH",
"622 451 OFFCURVE",
"666 433 OFFCURVE",
"701 403 OFFCURVE",
"723 362 OFFCURVE",
"723 339 QCURVE SMOOTH"
);
}
);
width = 750;
}
);
unicode = 0053;
},
{
glyphname = T;
layers = (
{
layerId = "92FC523E-9234-4103-A150-1ABFFCFEAB52";
paths = (
{
nodes = (
"680 697 LINE",
"680 574 LINE",
"516 574 LINE",
"516 0 LINE",
"188 0 LINE",
"188 574 LINE",
"25 574 LINE",
"25 697 LINE"
);
}
);
width = 699;
}
);
unicode = 0054;
},
{
glyphname = U;
layers = (
{
layerId = "92FC523E-9234-4103-A150-1ABFFCFEAB52";
paths = (
{
nodes = (
"732 696 LINE",
"732 185 LINE SMOOTH",
"732 152 OFFCURVE",
"699 86 OFFCURVE",
"645 33 OFFCURVE",
"579 0 OFFCURVE",
"546 0 QCURVE",
"241 -1 LINE",
"205 -1 OFFCURVE",
"132 28 OFFCURVE",
"73 79 OFFCURVE",
"37 147 OFFCURVE",
"37 185 QCURVE SMOOTH",
"37 696 LINE",
"405 696 LINE",
"405 122 LINE",
"535 122 LINE SMOOTH",
"548 122 OFFCURVE",
"575 135 OFFCURVE",
"596 156 OFFCURVE",
"609 182 OFFCURVE",
"609 196 QCURVE SMOOTH",
"609 696 LINE"
);
}
);
width = 761;
}
);
unicode = 0055;
},
{
glyphname = V;
layers = (
{
layerId = "92FC523E-9234-4103-A150-1ABFFCFEAB52";
paths = (
{
nodes = (
"581 319 OFFCURVE",
"670 567 OFFCURVE",
"715 696 QCURVE",
"838 696 LINE",
"592 0 LINE",
"264 0 LINE",
"201 176 OFFCURVE",
"82 520 OFFCURVE",
"19 696 QCURVE",
"387 696 LINE",
"425 568 OFFCURVE",
"499 319 OFFCURVE",
"536 190 QCURVE"
);
}
);
width = 850;
}
);
unicode = 0056;
},
{
glyphname = W;
layers = (
{
layerId = "92FC523E-9234-4103-A150-1ABFFCFEAB52";
paths = (
{
nodes = (
"1018 319 OFFCURVE",
"1107 568 OFFCURVE",
"1152 697 QCURVE",
"1275 697 LINE",
"1029 0 LINE",
"701 0 LINE",
"640 174 LINE",
"578 0 LINE",
"250 0 LINE",
"5 697 LINE",
"373 697 LINE",
"410 568 OFFCURVE",
"485 319 OFFCURVE",
"522 190 QCURVE",
"701 697 LINE",
"824 697 LINE",
"861 568 OFFCURVE",
"935 319 OFFCURVE",
"973 190 QCURVE"
);
}
);
width = 1282;
}
);
unicode = 0057;
},
{
glyphname = X;
layers = (
{
layerId = "92FC523E-9234-4103-A150-1ABFFCFEAB52";
paths = (
{
nodes = (
"543 349 LINE",
"666 0 LINE",
"548 0 LINE",
"442 299 LINE",
"337 0 LINE",
"11 0 LINE",
"133 348 LINE",
"11 697 LINE",
"129 697 LINE",
"234 397 LINE",
"340 697 LINE",
"666 697 LINE"
);
}
);
width = 692;
}
);
unicode = 0058;
},
{
glyphname = Y;
layers = (
{
layerId = "92FC523E-9234-4103-A150-1ABFFCFEAB52";
paths = (
{
nodes = (
"140 696 LINE",
"243 405 LINE",
"345 696 LINE",
"672 696 LINE",
"493 187 LINE",
"493 0 LINE",
"182 0 LINE",
"182 231 LINE",
"18 696 LINE"
);
}
);
width = 692;
}
);
unicode = 0059;
},
{
glyphname = Z;
layers = (
{
layerId = "92FC523E-9234-4103-A150-1ABFFCFEAB52";
paths = (
{
nodes = (
"713 122 LINE",
"713 0 LINE",
"17 0 LINE",
"17 122 LINE",
"385 573 LINE",
"17 573 LINE",
"17 696 LINE",
"713 696 LINE",
"713 573 LINE",
"385 122 LINE"
);
}
);
width = 731;
}
);
unicode = 005A;
},
{
glyphname = bracketleft;
layers = (
{
layerId = "92FC523E-9234-4103-A150-1ABFFCFEAB52";
paths = (
{
nodes = (
"415 898 LINE",
"415 775 LINE",
"260 775 LINE",
"260 -87 LINE",
"415 -87 LINE",
"415 -210 LINE",
"29 -209 LINE",
"29 899 LINE"
);
}
);
width = 287;
}
);
unicode = 005B;
},
{
glyphname = backslash;
layers = (
{
layerId = "92FC523E-9234-4103-A150-1ABFFCFEAB52";
paths = (
{
nodes = (
"492 696 LINE",
"157 0 LINE",
"15 0 LINE",
"349 696 LINE"
);
}
);
width = 507;
}
);
unicode = 005C;
},
{
glyphname = bracketright;
layers = (
{
layerId = "92FC523E-9234-4103-A150-1ABFFCFEAB52";
paths = (
{
nodes = (
"415 899 LINE",
"415 -209 LINE",
"29 -210 LINE",
"29 -87 LINE",
"184 -87 LINE",
"184 775 LINE",
"29 775 LINE",
"29 898 LINE"
);
}
);
width = 287;
}
);
unicode = 005D;
},
{
glyphname = asciicircum;
layers = (
{
layerId = "92FC523E-9234-4103-A150-1ABFFCFEAB52";
paths = (
{
nodes = (
"552 368 LINE",
"486 324 LINE",
"289 598 LINE",
"92 324 LINE",
"26 368 LINE",
"245 671 LINE",
"333 671 LINE"
);
}
);
width = 573;
}
);
unicode = 005E;
},
{
glyphname = underscore;
layers = (
{
layerId = "92FC523E-9234-4103-A150-1ABFFCFEAB52";
paths = (
{
nodes = (
"374 -20 LINE",
"374 -98 LINE",
"20 -97 LINE",
"20 -20 LINE"
);
}
);
width = 394;
}
);
unicode = 005F;
},
{
glyphname = grave;
layers = (
{
layerId = "92FC523E-9234-4103-A150-1ABFFCFEAB52";
paths = (
{
nodes = (
"232 786 LINE",
"192 734 LINE",
"25 828 LINE",
"100 926 LINE"
);
}
);
width = 247;
}
);
unicode = 0060;
},
{
glyphname = a;
layers = (
{
layerId = "92FC523E-9234-4103-A150-1ABFFCFEAB52";
paths = (
{
nodes = (
"243 287 LINE",
"385 287 LINE",
"320 506 LINE"
);
},
{
nodes = (
"469 0 LINE",
"409 205 LINE",
"214 205 LINE",
"141 0 LINE",
"18 0 LINE",
"264 696 LINE",
"592 696 LINE",
"838 0 LINE"
);
}
);
width = 844;
}
);
unicode = 0061;
},
{
glyphname = b;
layers = (
{
layerId = "92FC523E-9234-4103-A150-1ABFFCFEAB52";
paths = (
{
nodes = (
"662 194 OFFCURVE",
"623 105 OFFCURVE",
"557 38 OFFCURVE",
"467 0 OFFCURVE",
"416 0 QCURVE SMOOTH",
"7 0 LINE",
"7 696 LINE",
"416 696 LINE SMOOTH",
"458 696 OFFCURVE",
"533 664 OFFCURVE",
"589 608 OFFCURVE",
"621 533 OFFCURVE",
"621 491 QCURVE SMOOTH",
"621 446 OFFCURVE",
"603 406 QCURVE",
"632 373 OFFCURVE",
"662 290 OFFCURVE",
"662 245 QCURVE SMOOTH"
);
},
{
nodes = (
"498 512 OFFCURVE",
"484 538 OFFCURVE",
"463 559 OFFCURVE",
"437 573 OFFCURVE",
"424 573 QCURVE SMOOTH",
"376 573 LINE",
"376 409 LINE",
"416 409 LINE SMOOTH",
"455 409 OFFCURVE",
"498 462 OFFCURVE",
"498 499 QCURVE SMOOTH"
);
},
{
nodes = (
"376 327 LINE",
"376 163 LINE",
"416 163 LINE SMOOTH",
"455 163 OFFCURVE",
"498 217 OFFCURVE",
"498 253 QCURVE SMOOTH",
"498 266 OFFCURVE",
"484 293 OFFCURVE",
"463 314 OFFCURVE",
"437 327 OFFCURVE",
"424 327 QCURVE SMOOTH"
);
}
);
width = 686;
}
);
unicode = 0062;
},
{
glyphname = c;
layers = (
{
layerId = "92FC523E-9234-4103-A150-1ABFFCFEAB52";
paths = (
{
nodes = (
"524 696 LINE SMOOTH",
"563 696 OFFCURVE",
"630 660 OFFCURVE",
"680 601 OFFCURVE",
"709 528 OFFCURVE",
"710 492 QCURVE",
"587 492 LINE",
"587 494 LINE",
"587 495 LINE",
"587 496 LINE",
"587 508 OFFCURVE",
"575 535 OFFCURVE",
"555 558 OFFCURVE",
"528 573 OFFCURVE",
"513 573 QCURVE SMOOTH",
"382 573 LINE",
"382 123 LINE",
"513 123 LINE SMOOTH",
"528 123 OFFCURVE",
"555 138 OFFCURVE",
"575 162 OFFCURVE",
"587 189 OFFCURVE",
"587 201 QCURVE",
"587 203 LINE",
"587 204 LINE",
"587 205 LINE",
"710 205 LINE",
"709 163 OFFCURVE",
"677 88 OFFCURVE",
"623 32 OFFCURVE",
"549 0 OFFCURVE",
"506 0 QCURVE SMOOTH",
"200 0 LINE SMOOTH",
"161 0 OFFCURVE",
"94 37 OFFCURVE",
"43 95 OFFCURVE",
"14 169 OFFCURVE",
"14 205 QCURVE SMOOTH",
"14 492 LINE SMOOTH",
"14 528 OFFCURVE",
"43 601 OFFCURVE",
"94 659 OFFCURVE",
"161 696 OFFCURVE",
"200 696 QCURVE SMOOTH"
);
}
);
width = 723;
}
);
unicode = 0063;
},
{
glyphname = d;
layers = (
{
layerId = "92FC523E-9234-4103-A150-1ABFFCFEAB52";
paths = (
{
nodes = (
"714 205 LINE SMOOTH",
"714 163 OFFCURVE",
"682 88 OFFCURVE",
"626 32 OFFCURVE",
"551 0 OFFCURVE",
"509 0 QCURVE SMOOTH",
"18 0 LINE",
"18 697 LINE",
"509 697 LINE SMOOTH",
"551 697 OFFCURVE",
"626 664 OFFCURVE",
"681 609 OFFCURVE",
"714 534 OFFCURVE",
"714 492 QCURVE SMOOTH"
);
},
{
nodes = (
"591 499 LINE SMOOTH",
"591 512 OFFCURVE",
"577 539 OFFCURVE",
"556 560 OFFCURVE",
"530 573 OFFCURVE",
"517 573 QCURVE SMOOTH",
"345 573 LINE",
"345 123 LINE",
"517 123 LINE SMOOTH",
"530 123 OFFCURVE",
"556 137 OFFCURVE",
"577 158 OFFCURVE",
"591 184 OFFCURVE",
"591 197 QCURVE SMOOTH"
);
}
);
width = 726;
}
);
unicode = 0064;
},
{
glyphname = e;
layers = (
{
layerId = "92FC523E-9234-4103-A150-1ABFFCFEAB52";
paths = (
{
nodes = (
"349 410 LINE",
"554 410 LINE",
"554 328 LINE",
"349 328 LINE",
"349 123 LINE",
"595 123 LINE",
"595 0 LINE",
"22 0 LINE",
"22 696 LINE",
"595 696 LINE",
"595 573 LINE",
"349 573 LINE"
);
}
);
width = 616;
}
);
unicode = 0065;
},
{
glyphname = f;
layers = (
{
layerId = "92FC523E-9234-4103-A150-1ABFFCFEAB52";
paths = (
{
nodes = (
"360 410 LINE",
"565 410 LINE",
"565 328 LINE",
"360 328 LINE",
"360 0 LINE",
"33 0 LINE",
"33 697 LINE",
"606 697 LINE",
"606 574 LINE",
"360 574 LINE"
);
}
);
width = 631;
}
);
unicode = 0066;
},
{
glyphname = g;
layers = (
{
layerId = "92FC523E-9234-4103-A150-1ABFFCFEAB52";
paths = (
{
nodes = (
"591 492 LINE",
"591 496 LINE",
"591 497 LINE",
"591 499 LINE",
"591 500 LINE",
"591 533 OFFCURVE",
"547 568 OFFCURVE",
"512 574 QCURVE SMOOTH",
"477 579 OFFCURVE",
"406 574 OFFCURVE",
"386 574 QCURVE",
"386 123 LINE",
"399 123 OFFCURVE",
"436 120 OFFCURVE",
"453 120 QCURVE SMOOTH",
"456 120 OFFCURVE",
"477 120 OFFCURVE",
"505 123 OFFCURVE",
"538 130 OFFCURVE",
"553 137 QCURVE SMOOTH",
"591 156 OFFCURVE",
"591 197 QCURVE SMOOTH",
"591 201 LINE",
"591 202 LINE",
"591 204 LINE",
"591 205 LINE",
"468 205 LINE",
"468 328 LINE",
"714 328 LINE",
"714 205 LINE SMOOTH",
"714 163 OFFCURVE",
"681 89 OFFCURVE",
"626 33 OFFCURVE",
"551 0 OFFCURVE",
"509 0 QCURVE SMOOTH",
"204 0 LINE SMOOTH",
"165 0 OFFCURVE",
"97 37 OFFCURVE",
"46 95 OFFCURVE",
"17 169 OFFCURVE",
"17 205 QCURVE SMOOTH",
"17 492 LINE SMOOTH",
"17 529 OFFCURVE",
"46 602 OFFCURVE",
"97 660 OFFCURVE",
"165 696 OFFCURVE",
"204 696 QCURVE",
"509 697 LINE",
"552 697 OFFCURVE",
"627 665 OFFCURVE",
"681 609 OFFCURVE",
"713 534 OFFCURVE",
"714 492 QCURVE"
);
}
);
width = 744;
}
);
unicode = 0067;
},
{
glyphname = h;
layers = (
{
layerId = "92FC523E-9234-4103-A150-1ABFFCFEAB52";
paths = (
{
nodes = (
"636 410 LINE",
"636 697 LINE",
"759 697 LINE",
"759 0 LINE",
"636 0 LINE",
"636 328 LINE",
"390 328 LINE",
"390 0 LINE",
"21 0 LINE",
"21 697 LINE",
"390 697 LINE",
"390 410 LINE"
);
}
);
width = 779;
}
);
unicode = 0068;
},
{
glyphname = i;
layers = (
{
layerId = "92FC523E-9234-4103-A150-1ABFFCFEAB52";
paths = (
{
nodes = (
"356 696 LINE",
"356 0 LINE",
"29 0 LINE",
"29 696 LINE"
);
}
);
width = 383;
}
);
unicode = 0069;
},
{
glyphname = j;
layers = (
{
layerId = "92FC523E-9234-4103-A150-1ABFFCFEAB52";
paths = (
{
nodes = (
"469 697 LINE",
"469 205 LINE SMOOTH",
"469 163 OFFCURVE",
"436 88 OFFCURVE",
"381 33 OFFCURVE",
"306 0 OFFCURVE",
"264 0 QCURVE SMOOTH",
"18 0 LINE",
"18 123 LINE",
"141 123 LINE",
"141 697 LINE"
);
}
);
width = 491;
}
);
unicode = 006A;
},
{
glyphname = k;
layers = (
{
layerId = "92FC523E-9234-4103-A150-1ABFFCFEAB52";
paths = (
{
nodes = (
"483 377 LINE",
"757 0 LINE",
"470 0 LINE",
"388 109 LINE",
"388 0 LINE",
"19 0 LINE",
"19 697 LINE",
"388 697 LINE",
"388 410 LINE",
"440 482 OFFCURVE",
"542 625 OFFCURVE",
"593 697 QCURVE",
"716 697 LINE"
);
}
);
width = 778;
}
);
unicode = 006B;
},
{
glyphname = l;
layers = (
{
layerId = "92FC523E-9234-4103-A150-1ABFFCFEAB52";
paths = (
{
nodes = (
"599 123 LINE",
"599 0 LINE",
"26 0 LINE",
"26 697 LINE",
"354 697 LINE",
"354 123 LINE"
);
}
);
width = 626;
}
);
unicode = 006C;
},
{
glyphname = m;
layers = (
{
layerId = "92FC523E-9234-4103-A150-1ABFFCFEAB52";
paths = (
{
nodes = (
"1012 696 LINE",
"1012 0 LINE",
"684 0 LINE",
"684 278 LINE",
"602 0 LINE",
"479 0 LINE",
"397 278 LINE",
"397 0 LINE",
"29 0 LINE",
"29 696 LINE",
"397 696 LINE",
"541 209 LINE",
"684 696 LINE"
);
}
);
width = 1043;
}
);
unicode = 006D;
},
{
glyphname = n;
layers = (
{
layerId = "92FC523E-9234-4103-A150-1ABFFCFEAB52";
paths = (
{
nodes = (
"395 697 LINE",
"641 232 LINE",
"641 697 LINE",
"763 697 LINE",
"763 0 LINE",
"641 0 LINE",
"395 464 LINE",
"395 0 LINE",
"26 0 LINE",
"26 697 LINE"
);
}
);
width = 794;
}
);
unicode = 006E;
},
{
glyphname = o;
layers = (
{
layerId = "92FC523E-9234-4103-A150-1ABFFCFEAB52";
paths = (
{
nodes = (
"719 186 LINE SMOOTH",
"719 148 OFFCURVE",
"683 80 OFFCURVE",
"624 29 OFFCURVE",
"551 0 OFFCURVE",
"515 0 QCURVE",
"210 1 LINE",
"171 1 OFFCURVE",
"103 37 OFFCURVE",
"52 95 OFFCURVE",
"23 168 OFFCURVE",
"23 205 QCURVE SMOOTH",
"23 510 LINE SMOOTH",
"23 543 OFFCURVE",
"57 609 OFFCURVE",
"110 663 OFFCURVE",
"177 696 OFFCURVE",
"210 696 QCURVE SMOOTH",
"533 696 LINE SMOOTH",
"571 696 OFFCURVE",
"639 659 OFFCURVE",
"690 601 OFFCURVE",
"719 528 OFFCURVE",
"719 492 QCURVE SMOOTH"
);
},
{
nodes = (
"596 492 LINE SMOOTH",
"596 507 OFFCURVE",
"584 536 OFFCURVE",
"564 559 OFFCURVE",
"537 573 OFFCURVE",
"522 573 QCURVE SMOOTH",
"392 573 LINE",
"392 123 LINE",
"522 123 LINE SMOOTH",
"535 123 OFFCURVE",
"562 136 OFFCURVE",
"583 157 OFFCURVE",
"596 183 OFFCURVE",
"596 197 QCURVE SMOOTH"
);
}
);
width = 744;
}
);
unicode = 006F;
},
{
glyphname = p;
layers = (
{
layerId = "92FC523E-9234-4103-A150-1ABFFCFEAB52";
paths = (
{
nodes = (
"390 287 LINE",
"390 0 LINE",
"21 0 LINE",
"21 696 LINE",
"449 696 LINE SMOOTH",
"488 696 OFFCURVE",
"557 659 OFFCURVE",
"607 601 OFFCURVE",
"636 528 OFFCURVE",
"636 492 QCURVE SMOOTH",
"636 447 OFFCURVE",
"606 372 OFFCURVE",
"552 318 OFFCURVE",
"476 288 OFFCURVE",
"430 287 QCURVE"
);
},
{
nodes = (
"513 507 OFFCURVE",
"501 536 OFFCURVE",
"480 559 OFFCURVE",
"454 573 OFFCURVE",
"439 573 QCURVE SMOOTH",
"390 573 LINE",
"390 409 LINE",
"431 409 LINE SMOOTH",
"448 409 OFFCURVE",
"478 423 OFFCURVE",
"500 445 OFFCURVE",
"513 475 OFFCURVE",
"513 492 QCURVE SMOOTH"
);
}
);
width = 660;
}
);
unicode = 0070;
},
{
glyphname = r;
layers = (
{
layerId = "92FC523E-9234-4103-A150-1ABFFCFEAB52";
paths = (
{
nodes = (
"645 438 OFFCURVE",
"595 350 OFFCURVE",
"550 319 QCURVE",
"727 0 LINE",
"481 0 LINE",
"465 36 OFFCURVE",
"419 109 OFFCURVE",
"399 144 QCURVE",
"399 0 LINE",
"30 0 LINE",
"30 697 LINE",
"440 697 LINE SMOOTH",
"482 697 OFFCURVE",
"557 664 OFFCURVE",
"612 609 OFFCURVE",
"645 534 OFFCURVE",
"645 492 QCURVE SMOOTH"
);
},
{
nodes = (
"522 526 OFFCURVE",
"473 574 OFFCURVE",
"440 574 QCURVE SMOOTH",
"399 574 LINE",
"399 410 LINE",
"447 410 LINE SMOOTH",
"462 410 OFFCURVE",
"490 425 OFFCURVE",
"510 449 OFFCURVE",
"522 478 OFFCURVE",
"522 492 QCURVE SMOOTH"
);
}
);
width = 739;
}
);
unicode = 0072;
},
{
glyphname = s;
layers = (
{
layerId = "92FC523E-9234-4103-A150-1ABFFCFEAB52";
paths = (
{
nodes = (
"723 205 LINE SMOOTH",
"723 163 OFFCURVE",
"691 88 OFFCURVE",
"635 32 OFFCURVE",
"560 0 OFFCURVE",
"518 0 QCURVE",
"213 1 LINE",
"174 1 OFFCURVE",
"107 37 OFFCURVE",
"56 96 OFFCURVE",
"27 169 OFFCURVE",
"27 205 QCURVE SMOOTH",
"27 287 LINE",
"395 287 LINE",
"395 123 LINE",
"526 123 LINE SMOOTH",
"539 123 OFFCURVE",
"565 137 OFFCURVE",
"586 158 OFFCURVE",
"600 184 OFFCURVE",
"600 197 QCURVE SMOOTH",
"600 291 LINE SMOOTH",
"600 306 OFFCURVE",
"573 328 OFFCURVE",
"559 328 QCURVE SMOOTH",
"139 328 LINE SMOOTH",
"116 328 OFFCURVE",
"75 350 OFFCURVE",
"45 385 OFFCURVE",
"27 429 OFFCURVE",
"27 451 QCURVE SMOOTH",
"27 470 OFFCURVE",
"26 492 OFFCURVE",
"26 494 QCURVE",
"26 514 OFFCURVE",
"30 529 QCURVE",
"36 559 OFFCURVE",
"70 619 OFFCURVE",
"119 667 OFFCURVE",
"180 696 OFFCURVE",
"213 696 QCURVE SMOOTH",
"537 696 LINE SMOOTH",
"576 696 OFFCURVE",
"643 660 OFFCURVE",
"693 601 OFFCURVE",
"722 528 OFFCURVE",
"723 492 QCURVE",
"600 492 LINE",
"600 494 LINE",
"600 495 LINE",
"600 496 LINE",
"600 508 OFFCURVE",
"588 535 OFFCURVE",
"568 558 OFFCURVE",
"541 573 OFFCURVE",
"526 573 QCURVE SMOOTH",
"395 573 LINE",
"395 451 LINE",
"600 451 LINE SMOOTH",
"622 451 OFFCURVE",
"666 433 OFFCURVE",
"701 403 OFFCURVE",
"723 362 OFFCURVE",
"723 339 QCURVE SMOOTH"
);
}
);
width = 750;
}
);
unicode = 0073;
},
{
glyphname = t;
layers = (
{
layerId = "92FC523E-9234-4103-A150-1ABFFCFEAB52";
paths = (
{
nodes = (
"680 697 LINE",
"680 574 LINE",
"516 574 LINE",
"516 0 LINE",
"188 0 LINE",
"188 574 LINE",
"25 574 LINE",
"25 697 LINE"
);
}
);
width = 699;
}
);
unicode = 0074;
},
{
glyphname = u;
layers = (
{
layerId = "92FC523E-9234-4103-A150-1ABFFCFEAB52";
paths = (
{
nodes = (
"732 696 LINE",
"732 185 LINE SMOOTH",
"732 152 OFFCURVE",
"699 86 OFFCURVE",
"645 33 OFFCURVE",
"579 0 OFFCURVE",
"546 0 QCURVE",
"241 -1 LINE",
"205 -1 OFFCURVE",
"132 28 OFFCURVE",
"73 79 OFFCURVE",
"37 147 OFFCURVE",
"37 185 QCURVE SMOOTH",
"37 696 LINE",
"405 696 LINE",
"405 122 LINE",
"535 122 LINE SMOOTH",
"548 122 OFFCURVE",
"575 135 OFFCURVE",
"596 156 OFFCURVE",
"609 182 OFFCURVE",
"609 196 QCURVE SMOOTH",
"609 696 LINE"
);
}
);
width = 761;
}
);
unicode = 0075;
},
{
glyphname = v;
layers = (
{
layerId = "92FC523E-9234-4103-A150-1ABFFCFEAB52";
paths = (
{
nodes = (
"581 319 OFFCURVE",
"670 567 OFFCURVE",
"715 696 QCURVE",
"838 696 LINE",
"592 0 LINE",
"264 0 LINE",
"201 176 OFFCURVE",
"82 520 OFFCURVE",
"19 696 QCURVE",
"387 696 LINE",
"425 568 OFFCURVE",
"499 319 OFFCURVE",
"536 190 QCURVE"
);
}
);
width = 850;
}
);
unicode = 0076;
},
{
glyphname = w;
layers = (
{
layerId = "92FC523E-9234-4103-A150-1ABFFCFEAB52";
paths = (
{
nodes = (
"1018 319 OFFCURVE",
"1107 568 OFFCURVE",
"1152 697 QCURVE",
"1275 697 LINE",
"1029 0 LINE",
"701 0 LINE",
"640 174 LINE",
"578 0 LINE",
"250 0 LINE",
"5 697 LINE",
"373 697 LINE",
"410 568 OFFCURVE",
"485 319 OFFCURVE",
"522 190 QCURVE",
"701 697 LINE",
"824 697 LINE",
"861 568 OFFCURVE",
"935 319 OFFCURVE",
"973 190 QCURVE"
);
}
);
width = 1282;
}
);
unicode = 0077;
},
{
glyphname = z;
layers = (
{
layerId = "92FC523E-9234-4103-A150-1ABFFCFEAB52";
paths = (
{
nodes = (
"713 122 LINE",
"713 0 LINE",
"17 0 LINE",
"17 122 LINE",
"385 573 LINE",
"17 573 LINE",
"17 696 LINE",
"713 696 LINE",
"713 573 LINE",
"385 122 LINE"
);
}
);
width = 731;
}
);
unicode = 007A;
},
{
glyphname = braceleft;
layers = (
{
layerId = "92FC523E-9234-4103-A150-1ABFFCFEAB52";
paths = (
{
nodes = (
"359 31 OFFCURVE",
"385 -2 OFFCURVE",
"417 -24 OFFCURVE",
"450 -35 OFFCURVE",
"460 -37 QCURVE",
"460 -88 LINE",
"441 -90 OFFCURVE",
"408 -92 OFFCURVE",
"392 -92 QCURVE SMOOTH",
"379 -92 OFFCURVE",
"327 -89 OFFCURVE",
"296 -82 QCURVE SMOOTH",
"265 -75 OFFCURVE",
"221 -53 OFFCURVE",
"206 -41 QCURVE SMOOTH",
"170 -11 OFFCURVE",
"160 26 QCURVE",
"156 60 OFFCURVE",
"151 101 OFFCURVE",
"147 139 OFFCURVE",
"142 184 OFFCURVE",
"138 222 QCURVE SMOOTH",
"135 250 OFFCURVE",
"98 286 OFFCURVE",
"78 297 QCURVE",
"55 308 OFFCURVE",
"24 316 QCURVE",
"18 350 LINE",
"17 350 LINE",
"18 354 LINE",
"17 360 LINE",
"18 360 LINE",
"24 395 LINE",
"52 401 OFFCURVE",
"78 413 QCURVE",
"98 424 OFFCURVE",
"135 460 OFFCURVE",
"138 489 QCURVE SMOOTH",
"142 526 OFFCURVE",
"147 571 OFFCURVE",
"151 609 OFFCURVE",
"156 650 OFFCURVE",
"160 684 QCURVE",
"170 721 OFFCURVE",
"206 751 QCURVE SMOOTH",
"221 763 OFFCURVE",
"265 784 OFFCURVE",
"296 791 QCURVE SMOOTH",
"327 798 OFFCURVE",
"379 801 OFFCURVE",
"392 801 QCURVE SMOOTH",
"408 801 OFFCURVE",
"441 799 OFFCURVE",
"460 797 QCURVE",
"460 746 LINE",
"449 744 OFFCURVE",
"416 732 OFFCURVE",
"384 710 OFFCURVE",
"359 677 OFFCURVE",
"356 655 QCURVE",
"353 620 OFFCURVE",
"348 576 OFFCURVE",
"344 539 OFFCURVE",
"339 495 OFFCURVE",
"336 460 QCURVE",
"331 437 OFFCURVE",
"315 418 QCURVE SMOOTH",
"301 401 OFFCURVE",
"251 365 OFFCURVE",
"206 354 QCURVE",
"249 343 OFFCURVE",
"300 309 OFFCURVE",
"314 292 QCURVE SMOOTH",
"330 273 OFFCURVE",
"336 252 QCURVE",
"339 217 OFFCURVE",
"344 173 OFFCURVE",
"348 134 OFFCURVE",
"353 90 OFFCURVE",
"356 55 QCURVE"
);
}
);
width = 418;
}
);
unicode = 007B;
},
{
glyphname = bar;
layers = (
{
layerId = "92FC523E-9234-4103-A150-1ABFFCFEAB52";
paths = (
{
nodes = (
"144 864 LINE",
"144 -176 LINE",
"29 -176 LINE",
"29 864 LINE"
);
}
);
width = 172;
}
);
unicode = 007C;
},
{
glyphname = braceright;
layers = (
{
layerId = "92FC523E-9234-4103-A150-1ABFFCFEAB52";
paths = (
{
nodes = (
"75 90 OFFCURVE",
"80 134 OFFCURVE",
"84 173 OFFCURVE",
"89 217 OFFCURVE",
"92 252 QCURVE",
"98 273 OFFCURVE",
"114 292 QCURVE SMOOTH",
"128 309 OFFCURVE",
"179 343 OFFCURVE",
"222 354 QCURVE",
"177 365 OFFCURVE",
"127 401 OFFCURVE",
"113 418 QCURVE SMOOTH",
"96 437 OFFCURVE",
"92 460 QCURVE",
"89 495 OFFCURVE",
"84 539 OFFCURVE",
"80 576 OFFCURVE",
"75 620 OFFCURVE",
"72 655 QCURVE",
"69 677 OFFCURVE",
"44 710 OFFCURVE",
"12 732 OFFCURVE",
"-21 744 OFFCURVE",
"-32 746 QCURVE",
"-32 797 LINE",
"-13 799 OFFCURVE",
"20 801 OFFCURVE",
"36 801 QCURVE SMOOTH",
"49 801 OFFCURVE",
"101 798 OFFCURVE",
"132 791 QCURVE SMOOTH",
"163 784 OFFCURVE",
"207 763 OFFCURVE",
"222 751 QCURVE SMOOTH",
"258 721 OFFCURVE",
"268 684 QCURVE",
"272 650 OFFCURVE",
"277 609 OFFCURVE",
"281 571 OFFCURVE",
"286 526 OFFCURVE",
"290 489 QCURVE SMOOTH",
"293 460 OFFCURVE",
"329 424 OFFCURVE",
"350 413 QCURVE SMOOTH",
"374 401 OFFCURVE",
"404 395 QCURVE",
"410 360 LINE",
"411 360 LINE",
"410 354 LINE",
"411 350 LINE",
"410 350 LINE",
"404 316 LINE",
"372 308 OFFCURVE",
"350 297 QCURVE SMOOTH",
"329 286 OFFCURVE",
"293 250 OFFCURVE",
"290 222 QCURVE SMOOTH",
"286 184 OFFCURVE",
"281 139 OFFCURVE",
"277 101 OFFCURVE",
"272 60 OFFCURVE",
"268 26 QCURVE",
"258 -11 OFFCURVE",
"222 -41 QCURVE SMOOTH",
"207 -53 OFFCURVE",
"163 -75 OFFCURVE",
"132 -82 QCURVE SMOOTH",
"101 -89 OFFCURVE",
"49 -92 OFFCURVE",
"36 -92 QCURVE SMOOTH",
"20 -92 OFFCURVE",
"-13 -90 OFFCURVE",
"-32 -88 QCURVE",
"-32 -37 LINE",
"-22 -35 OFFCURVE",
"11 -24 OFFCURVE",
"43 -2 OFFCURVE",
"69 31 OFFCURVE",
"72 55 QCURVE"
);
}
);
width = 418;
}
);
unicode = 007D;
},
{
glyphname = asciitilde;
layers = (
{
layerId = "92FC523E-9234-4103-A150-1ABFFCFEAB52";
paths = (
{
nodes = (
"450 429 OFFCURVE",
"464 429 QCURVE SMOOTH",
"475 429 OFFCURVE",
"508 440 OFFCURVE",
"526 454 QCURVE SMOOTH",
"547 470 OFFCURVE",
"566 494 QCURVE",
"607 479 LINE",
"589 428 OFFCURVE",
"550 354 OFFCURVE",
"510 303 OFFCURVE",
"471 272 OFFCURVE",
"454 263 QCURVE",
"424 249 OFFCURVE",
"397 249 QCURVE SMOOTH",
"391 249 OFFCURVE",
"379 250 OFFCURVE",
"374 251 QCURVE",
"343 263 OFFCURVE",
"305 277 OFFCURVE",
"271 289 OFFCURVE",
"230 304 OFFCURVE",
"196 317 QCURVE SMOOTH",
"182 323 OFFCURVE",
"168 323 QCURVE SMOOTH",
"157 323 OFFCURVE",
"123 311 OFFCURVE",
"105 297 QCURVE SMOOTH",
"86 282 OFFCURVE",
"65 258 QCURVE",
"24 271 LINE",
"42 322 OFFCURVE",
"81 396 OFFCURVE",
"121 447 OFFCURVE",
"160 478 OFFCURVE",
"177 487 QCURVE SMOOTH",
"207 502 OFFCURVE",
"236 502 QCURVE SMOOTH",
"241 502 OFFCURVE",
"252 501 OFFCURVE",
"257 500 QCURVE",
"288 488 OFFCURVE",
"328 474 OFFCURVE",
"363 461 OFFCURVE",
"403 447 OFFCURVE",
"435 435 QCURVE SMOOTH"
);
}
);
width = 630;
}
);
unicode = 007E;
},
{
glyphname = exclamdown;
layers = (
{
layerId = "92FC523E-9234-4103-A150-1ABFFCFEAB52";
paths = (
{
nodes = (
"355 574 LINE",
"28 572 LINE",
"28 694 LINE",
"355 694 LINE"
);
},
{
nodes = (
"355 0 LINE",
"28 0 LINE",
"28 515 LINE",
"355 515 LINE"
);
}
);
width = 384;
}
);
unicode = 00A1;
},
{
glyphname = cent;
layers = (
{
layerId = "92FC523E-9234-4103-A150-1ABFFCFEAB52";
paths = (
{
nodes = (
"153 0 LINE",
"170 86 LINE",
"161 86 LINE SMOOTH",
"137 86 OFFCURVE",
"96 109 OFFCURVE",
"64 145 OFFCURVE",
"46 190 OFFCURVE",
"46 213 QCURVE SMOOTH",
"46 390 LINE SMOOTH",
"46 412 OFFCURVE",
"64 458 OFFCURVE",
"96 494 OFFCURVE",
"137 517 OFFCURVE",
"161 517 QCURVE SMOOTH",
"255 517 LINE",
"271 600 LINE",
"394 600 LINE",
"377 516 LINE",
"399 512 OFFCURVE",
"435 487 OFFCURVE",
"462 452 OFFCURVE",
"477 411 OFFCURVE",
"478 390 QCURVE",
"396 390 LINE",
"396 391 LINE",
"396 392 LINE",
"396 409 OFFCURVE",
"368 441 OFFCURVE",
"349 441 QCURVE SMOOTH",
"269 441 LINE",
"269 162 LINE",
"349 162 LINE SMOOTH",
"368 162 OFFCURVE",
"396 194 OFFCURVE",
"396 211 QCURVE",
"396 212 LINE",
"396 213 LINE",
"478 213 LINE",
"477 187 OFFCURVE",
"457 140 OFFCURVE",
"424 106 OFFCURVE",
"379 86 OFFCURVE",
"352 86 QCURVE SMOOTH",
"293 86 LINE",
"276 0 LINE"
);
}
);
width = 503;
}
);
unicode = 00A2;
},
{
glyphname = sterling;
layers = (
{
layerId = "92FC523E-9234-4103-A150-1ABFFCFEAB52";
paths = (
{
nodes = (
"295 546 LINE",
"295 640 LINE",
"200 640 LINE SMOOTH",
"182 640 OFFCURVE",
"149 606 OFFCURVE",
"149 587 QCURVE SMOOTH",
"149 435 LINE SMOOTH",
"149 429 OFFCURVE",
"151 411 OFFCURVE",
"156 391 OFFCURVE",
"166 370 OFFCURVE",
"175 361 QCURVE",
"176 360 LINE",
"415 360 LINE",
"415 279 LINE",
"236 279 LINE",
"237 276 OFFCURVE",
"239 270 OFFCURVE",
"240 267 QCURVE SMOOTH",
"246 246 OFFCURVE",
"246 220 QCURVE SMOOTH",
"246 200 OFFCURVE",
"237 167 OFFCURVE",
"230 153 QCURVE",
"247 167 OFFCURVE",
"281 176 OFFCURVE",
"295 176 QCURVE SMOOTH",
"313 176 OFFCURVE",
"325 172 QCURVE SMOOTH",
"387 151 LINE",
"398 146 OFFCURVE",
"422 139 OFFCURVE",
"435 134 QCURVE",
"434 134 LINE",
"439 132 OFFCURVE",
"450 128 OFFCURVE",
"455 126 QCURVE SMOOTH",
"464 123 OFFCURVE",
"473 123 QCURVE SMOOTH",
"492 123 OFFCURVE",
"520 142 QCURVE SMOOTH",
"528 147 OFFCURVE",
"543 162 OFFCURVE",
"550 170 QCURVE",
"587 157 LINE",
"573 122 OFFCURVE",
"543 71 OFFCURVE",
"513 37 OFFCURVE",
"483 15 OFFCURVE",
"470 9 QCURVE SMOOTH",
"447 0 OFFCURVE",
"427 0 QCURVE SMOOTH",
"422 0 OFFCURVE",
"413 1 OFFCURVE",
"408 2 QCURVE",
"324 33 LINE",
"318 37 OFFCURVE",
"295 47 OFFCURVE",
"275 54 QCURVE",
"267 58 OFFCURVE",
"257 58 QCURVE",
"255 58 OFFCURVE",
"241 56 OFFCURVE",
"231 51 QCURVE",
"223 38 OFFCURVE",
"196 16 OFFCURVE",
"180 8 QCURVE",
"158 0 OFFCURVE",
"139 0 QCURVE SMOOTH",
"111 0 OFFCURVE",
"65 27 OFFCURVE",
"55 50 QCURVE SMOOTH",
"51 61 OFFCURVE",
"51 75 QCURVE SMOOTH",
"51 79 OFFCURVE",
"53 100 OFFCURVE",
"61 116 QCURVE SMOOTH",
"78 148 OFFCURVE",
"117 165 QCURVE",
"125 169 LINE",
"150 201 LINE SMOOTH",
"158 211 OFFCURVE",
"158 222 QCURVE SMOOTH",
"158 225 OFFCURVE",
"154 245 OFFCURVE",
"144 262 QCURVE SMOOTH",
"141 266 OFFCURVE",
"135 274 OFFCURVE",
"131 279 QCURVE",
"18 279 LINE",
"18 360 LINE",
"65 360 LINE",
"61 371 OFFCURVE",
"54 392 OFFCURVE",
"52 402 QCURVE SMOOTH",
"50 415 OFFCURVE",
"46 440 OFFCURVE",
"45 453 QCURVE",
"45 581 LINE SMOOTH",
"45 615 OFFCURVE",
"70 674 OFFCURVE",
"114 718 OFFCURVE",
"173 743 OFFCURVE",
"206 743 QCURVE SMOOTH",
"439 743 LINE SMOOTH",
"479 743 OFFCURVE",
"535 706 OFFCURVE",
"570 649 OFFCURVE",
"586 583 OFFCURVE",
"586 553 QCURVE SMOOTH",
"586 549 LINE",
"586 548 LINE",
"586 547 LINE",
"586 546 LINE"
);
}
);
width = 607;
}
);
unicode = 00A3;
},
{
glyphname = currency;
layers = (
{
layerId = "92FC523E-9234-4103-A150-1ABFFCFEAB52";
paths = (
{
nodes = (
"342 306 OFFCURVE",
"317 250 OFFCURVE",
"297 227 QCURVE",
"301 213 OFFCURVE",
"314 176 OFFCURVE",
"319 159 QCURVE SMOOTH",
"322 149 OFFCURVE",
"328 129 OFFCURVE",
"332 118 QCURVE",
"304 98 LINE",
"226 184 LINE",
"215 179 OFFCURVE",
"193 177 OFFCURVE",
"180 177 QCURVE SMOOTH",
"171 177 OFFCURVE",
"149 179 OFFCURVE",
"140 184 QCURVE",
"53 98 LINE",
"21 118 LINE",
"28 140 OFFCURVE",
"36 160 QCURVE SMOOTH",
"42 177 OFFCURVE",
"56 215 OFFCURVE",
"62 229 QCURVE",
"21 273 OFFCURVE",
"21 337 QCURVE SMOOTH",
"21 366 OFFCURVE",
"39 420 OFFCURVE",
"57 440 QCURVE",
"52 455 OFFCURVE",
"37 497 OFFCURVE",
"31 517 QCURVE SMOOTH",
"27 528 OFFCURVE",
"20 552 OFFCURVE",
"16 563 QCURVE",
"51 586 LINE",
"135 491 LINE",
"146 496 OFFCURVE",
"168 497 OFFCURVE",
"180 497 QCURVE SMOOTH",
"190 497 OFFCURVE",
"212 496 OFFCURVE",
"222 491 QCURVE",
"297 586 LINE",
"322 563 LINE",
"319 553 OFFCURVE",
"313 534 OFFCURVE",
"311 524 QCURVE",
"306 507 OFFCURVE",
"296 469 OFFCURVE",
"291 452 QCURVE",
"314 429 OFFCURVE",
"342 370 OFFCURVE",
"342 337 QCURVE SMOOTH"
);
},
{
nodes = (
"119 311 OFFCURVE",
"153 274 OFFCURVE",
"180 274 QCURVE SMOOTH",
"205 274 OFFCURVE",
"242 311 OFFCURVE",
"242 337 QCURVE SMOOTH",
"242 363 OFFCURVE",
"205 399 OFFCURVE",
"180 399 QCURVE SMOOTH",
"153 399 OFFCURVE",
"119 363 OFFCURVE",
"119 337 QCURVE SMOOTH"
);
}
);
width = 372;
}
);
unicode = 00A4;
},
{
glyphname = yen;
layers = (
{
layerId = "92FC523E-9234-4103-A150-1ABFFCFEAB52";
paths = (
{
nodes = (
"653 306 LINE",
"653 227 LINE",
"533 227 LINE",
"533 0 LINE",
"252 0 LINE",
"252 227 LINE",
"117 227 LINE",
"117 306 LINE",
"252 306 LINE",
"252 365 LINE",
"117 365 LINE",
"117 444 LINE",
"217 444 LINE",
"10 696 LINE",
"133 696 LINE",
"304 488 LINE",
"470 696 LINE",
"744 696 LINE",
"563 444 LINE",
"653 444 LINE",
"653 365 LINE",
"533 365 LINE",
"533 306 LINE"
);
}
);
width = 753;
}
);
unicode = 00A5;
},
{
glyphname = brokenbar;
layers = (
{
layerId = "92FC523E-9234-4103-A150-1ABFFCFEAB52";
paths = (
{
nodes = (
"29 -176 LINE",
"29 97 LINE",
"144 97 LINE",
"144 -176 LINE"
);
},
{
nodes = (
"144 864 LINE",
"144 597 LINE",
"29 597 LINE",
"29 864 LINE"
);
}
);
width = 172;
}
);
unicode = 00A6;
},
{
glyphname = section;
layers = (
{
layerId = "92FC523E-9234-4103-A150-1ABFFCFEAB52";
paths = (
{
nodes = (
"655 492 LINE",
"655 510 OFFCURVE",
"652 550 OFFCURVE",
"638 583 OFFCURVE",
"612 604 OFFCURVE",
"589 604 QCURVE SMOOTH",
"298 604 LINE",
"299 603 LINE",
"291 601 OFFCURVE",
"274 588 OFFCURVE",
"274 578 QCURVE SMOOTH",
"274 555 OFFCURVE",
"298 514 OFFCURVE",
"310 497 QCURVE",
"325 479 LINE",
"360 492 OFFCURVE",
"397 492 QCURVE SMOOTH",
"408 492 OFFCURVE",
"439 489 OFFCURVE",
"478 477 OFFCURVE",
"522 452 OFFCURVE",
"546 431 QCURVE",
"566 411 OFFCURVE",
"596 374 OFFCURVE",
"605 360 QCURVE",
"715 209 LINE SMOOTH",
"727 192 OFFCURVE",
"745 167 OFFCURVE",
"757 142 OFFCURVE",
"764 113 OFFCURVE",
"764 92 QCURVE SMOOTH",
"764 23 OFFCURVE",
"688 -65 OFFCURVE",
"616 -68 QCURVE",
"182 -68 LINE SMOOTH",
"148 -68 OFFCURVE",
"88 -35 OFFCURVE",
"43 18 OFFCURVE",
"17 85 OFFCURVE",
"17 119 QCURVE SMOOTH",
"17 156 LINE",
"126 156 LINE",
"126 138 OFFCURVE",
"129 98 OFFCURVE",
"143 65 OFFCURVE",
"169 44 OFFCURVE",
"192 44 QCURVE SMOOTH",
"483 44 LINE",
"482 45 LINE",
"490 47 OFFCURVE",
"507 60 OFFCURVE",
"507 70 QCURVE SMOOTH",
"507 93 OFFCURVE",
"483 135 OFFCURVE",
"471 152 QCURVE",
"453 170 LINE",
"417 157 OFFCURVE",
"382 157 QCURVE SMOOTH",
"377 157 OFFCURVE",
"332 160 OFFCURVE",
"297 177 QCURVE SMOOTH",
"229 209 OFFCURVE",
"175 289 QCURVE",
"66 439 LINE SMOOTH",
"54 455 OFFCURVE",
"36 480 OFFCURVE",
"23 506 OFFCURVE",
"17 535 OFFCURVE",
"17 556 QCURVE SMOOTH",
"17 626 OFFCURVE",
"93 713 OFFCURVE",
"165 717 QCURVE",
"598 717 LINE SMOOTH",
"632 717 OFFCURVE",
"693 684 OFFCURVE",
"738 631 OFFCURVE",
"764 564 OFFCURVE",
"764 530 QCURVE SMOOTH",
"764 492 LINE"
);
},
{
nodes = (
"439 384 OFFCURVE",
"401 384 QCURVE SMOOTH",
"393 384 OFFCURVE",
"389 383 QCURVE",
"437 315 LINE SMOOTH",
"439 313 OFFCURVE",
"443 309 OFFCURVE",
"445 307 QCURVE",
"445 306 LINE",
"446 305 LINE",
"451 300 LINE",
"453 298 LINE",
"490 264 OFFCURVE",
"529 264 QCURVE SMOOTH",
"536 264 OFFCURVE",
"539 265 QCURVE",
"491 334 LINE",
"491 335 LINE",
"488 339 OFFCURVE",
"480 347 OFFCURVE",
"475 351 QCURVE SMOOTH"
);
}
);
width = 784;
}
);
unicode = 00A7;
},
{
glyphname = dieresis;
layers = (
{
layerId = "92FC523E-9234-4103-A150-1ABFFCFEAB52";
paths = (
{
nodes = (
"45 827 OFFCURVE",
"87 869 OFFCURVE",
"116 869 QCURVE SMOOTH",
"145 869 OFFCURVE",
"187 827 OFFCURVE",
"187 798 QCURVE SMOOTH",
"187 769 OFFCURVE",
"145 727 OFFCURVE",
"116 727 QCURVE SMOOTH",
"87 727 OFFCURVE",
"45 769 OFFCURVE",
"45 798 QCURVE SMOOTH"
);
},
{
nodes = (
"256 827 OFFCURVE",
"298 869 OFFCURVE",
"327 869 QCURVE SMOOTH",
"356 869 OFFCURVE",
"398 827 OFFCURVE",
"398 798 QCURVE SMOOTH",
"398 769 OFFCURVE",
"356 727 OFFCURVE",
"327 727 QCURVE SMOOTH",
"298 727 OFFCURVE",
"256 769 OFFCURVE",
"256 798 QCURVE SMOOTH"
);
}
);
width = 427;
}
);
unicode = 00A8;
},
{
glyphname = copyright;
layers = (
{
layerId = "92FC523E-9234-4103-A150-1ABFFCFEAB52";
paths = (
{
nodes = (
"235 128 OFFCURVE",
"134 173 OFFCURVE",
"58 249 OFFCURVE",
"14 350 OFFCURVE",
"14 406 QCURVE SMOOTH",
"14 463 OFFCURVE",
"58 564 OFFCURVE",
"134 640 OFFCURVE",
"235 684 OFFCURVE",
"292 684 QCURVE SMOOTH",
"349 684 OFFCURVE",
"450 640 OFFCURVE",
"525 564 OFFCURVE",
"569 463 OFFCURVE",
"569 406 QCURVE SMOOTH",
"569 350 OFFCURVE",
"525 249 OFFCURVE",
"450 173 OFFCURVE",
"349 128 OFFCURVE",
"292 128 QCURVE SMOOTH"
);
},
{
nodes = (
"246 625 OFFCURVE",
"166 591 OFFCURVE",
"107 532 OFFCURVE",
"73 452 OFFCURVE",
"73 406 QCURVE SMOOTH",
"73 360 OFFCURVE",
"107 280 OFFCURVE",
"166 221 OFFCURVE",
"246 187 OFFCURVE",
"292 187 QCURVE SMOOTH",
"337 187 OFFCURVE",
"417 221 OFFCURVE",
"476 280 OFFCURVE",
"510 360 OFFCURVE",
"510 406 QCURVE SMOOTH",
"510 452 OFFCURVE",
"476 532 OFFCURVE",
"417 591 OFFCURVE",
"337 625 OFFCURVE",
"292 625 QCURVE SMOOTH"
);
},
{
nodes = (
"359 559 LINE SMOOTH",
"376 559 OFFCURVE",
"406 543 OFFCURVE",
"428 517 OFFCURVE",
"440 486 OFFCURVE",
"440 470 QCURVE",
"386 470 LINE",
"386 472 LINE",
"386 473 LINE",
"386 474 LINE",
"386 484 OFFCURVE",
"367 505 OFFCURVE",
"354 505 QCURVE SMOOTH",
"297 505 LINE",
"297 309 LINE",
"354 309 LINE SMOOTH",
"367 309 OFFCURVE",
"386 330 OFFCURVE",
"386 341 QCURVE",
"386 343 LINE",
"386 344 LINE",
"386 345 LINE",
"440 345 LINE",
"439 307 OFFCURVE",
"389 255 OFFCURVE",
"351 255 QCURVE SMOOTH",
"218 255 LINE SMOOTH",
"201 255 OFFCURVE",
"172 271 OFFCURVE",
"150 297 OFFCURVE",
"137 329 OFFCURVE",
"137 345 QCURVE SMOOTH",
"137 470 LINE SMOOTH",
"137 486 OFFCURVE",
"150 517 OFFCURVE",
"172 543 OFFCURVE",
"201 559 OFFCURVE",
"218 559 QCURVE SMOOTH"
);
}
);
width = 593;
}
);
unicode = 00A9;
},
{
glyphname = ordfeminine;
layers = (
{
layerId = "92FC523E-9234-4103-A150-1ABFFCFEAB52";
paths = (
{
nodes = (
"185 593 LINE",
"185 641 LINE",
"123 641 LINE SMOOTH",
"110 641 OFFCURVE",
"88 618 OFFCURVE",
"88 606 QCURVE",
"88 605 LINE",
"88 604 LINE",
"30 604 LINE",
"31 620 OFFCURVE",
"45 654 OFFCURVE",
"68 680 OFFCURVE",
"100 697 OFFCURVE",
"118 697 QCURVE SMOOTH",
"271 697 LINE SMOOTH",
"302 697 OFFCURVE",
"352 647 OFFCURVE",
"358 613 QCURVE",
"358 610 OFFCURVE",
"359 600 OFFCURVE",
"359 579 QCURVE",
"359 578 LINE",
"359 577 LINE",
"359 576 LINE",
"359 574 LINE",
"359 573 LINE",
"359 571 LINE",
"359 570 LINE",
"359 566 LINE",
"359 565 LINE",
"359 564 LINE",
"359 563 LINE",
"359 560 LINE",
"359 559 LINE",
"359 557 LINE",
"359 556 LINE",
"359 553 LINE",
"359 552 LINE",
"359 509 LINE",
"359 508 LINE",
"359 502 LINE",
"359 501 LINE",
"359 500 LINE",
"359 496 LINE",
"359 495 LINE",
"359 494 LINE",
"359 486 LINE",
"359 485 LINE",
"359 484 LINE",
"359 483 LINE",
"359 482 LINE",
"359 481 LINE",
"359 475 LINE",
"359 474 LINE",
"359 468 LINE",
"359 467 LINE",
"359 466 LINE",
"359 460 LINE",
"359 459 LINE",
"359 458 LINE",
"359 384 LINE",
"127 384 LINE SMOOTH",
"107 384 OFFCURVE",
"72 399 OFFCURVE",
"45 424 OFFCURVE",
"30 458 OFFCURVE",
"30 477 QCURVE",
"31 500 LINE",
"31 519 OFFCURVE",
"46 553 OFFCURVE",
"73 579 OFFCURVE",
"108 593 OFFCURVE",
"128 593 QCURVE SMOOTH"
);
},
{
nodes = (
"185 440 LINE",
"185 538 LINE",
"124 538 LINE SMOOTH",
"112 538 OFFCURVE",
"89 516 OFFCURVE",
"89 504 QCURVE",
"88 474 LINE",
"88 463 OFFCURVE",
"112 440 OFFCURVE",
"123 440 QCURVE SMOOTH"
);
}
);
width = 386;
}
);
unicode = 00AA;
},
{
glyphname = guillemotleft;
layers = (
{
layerId = "92FC523E-9234-4103-A150-1ABFFCFEAB52";
paths = (
{
nodes = (
"217 575 LINE",
"269 535 LINE",
"150 340 LINE",
"269 145 LINE",
"217 105 LINE",
"28 308 LINE",
"28 372 LINE"
);
},
{
nodes = (
"405 575 LINE",
"457 535 LINE",
"338 340 LINE",
"457 145 LINE",
"405 105 LINE",
"216 308 LINE",
"216 372 LINE"
);
}
);
width = 484;
}
);
unicode = 00AB;
},
{
glyphname = uni00AD;
layers = (
{
layerId = "92FC523E-9234-4103-A150-1ABFFCFEAB52";
paths = (
{
nodes = (
"393 377 LINE",
"393 298 LINE",
"16 298 LINE",
"16 377 LINE"
);
}
);
width = 415;
}
);
unicode = 00AD;
},
{
glyphname = registered;
layers = (
{
layerId = "92FC523E-9234-4103-A150-1ABFFCFEAB52";
paths = (
{
nodes = (
"232 155 OFFCURVE",
"135 197 OFFCURVE",
"62 270 OFFCURVE",
"20 367 OFFCURVE",
"20 422 QCURVE SMOOTH",
"20 477 OFFCURVE",
"62 573 OFFCURVE",
"135 645 OFFCURVE",
"232 687 OFFCURVE",
"288 687 QCURVE SMOOTH",
"343 687 OFFCURVE",
"439 645 OFFCURVE",
"511 573 OFFCURVE",
"553 477 OFFCURVE",
"553 422 QCURVE SMOOTH",
"553 367 OFFCURVE",
"511 270 OFFCURVE",
"439 197 OFFCURVE",
"343 155 OFFCURVE",
"288 155 QCURVE SMOOTH"
);
},
{
nodes = (
"244 630 OFFCURVE",
"168 597 OFFCURVE",
"111 541 OFFCURVE",
"78 465 OFFCURVE",
"78 422 QCURVE SMOOTH",
"78 378 OFFCURVE",
"111 302 OFFCURVE",
"168 245 OFFCURVE",
"244 212 OFFCURVE",
"288 212 QCURVE SMOOTH",
"331 212 OFFCURVE",
"406 245 OFFCURVE",
"462 302 OFFCURVE",
"495 378 OFFCURVE",
"495 422 QCURVE SMOOTH",
"495 465 OFFCURVE",
"462 541 OFFCURVE",
"406 597 OFFCURVE",
"331 630 OFFCURVE",
"288 630 QCURVE SMOOTH"
);
},
{
nodes = (
"410 468 OFFCURVE",
"389 433 OFFCURVE",
"371 420 QCURVE",
"444 294 LINE",
"343 294 LINE",
"337 309 OFFCURVE",
"317 337 OFFCURVE",
"309 351 QCURVE",
"309 294 LINE",
"159 294 LINE",
"159 569 LINE",
"327 569 LINE SMOOTH",
"360 569 OFFCURVE",
"410 523 OFFCURVE",
"410 489 QCURVE SMOOTH"
);
},
{
nodes = (
"361 503 OFFCURVE",
"340 521 OFFCURVE",
"327 521 QCURVE SMOOTH",
"309 521 LINE",
"309 457 LINE",
"329 457 LINE SMOOTH",
"341 457 OFFCURVE",
"361 478 OFFCURVE",
"361 489 QCURVE SMOOTH"
);
}
);
width = 570;
}
);
unicode = 00AE;
},
{
glyphname = macron;
layers = (
{
layerId = "92FC523E-9234-4103-A150-1ABFFCFEAB52";
paths = (
{
nodes = (
"364 830 LINE",
"364 740 LINE",
"7 740 LINE",
"7 830 LINE"
);
}
);
width = 372;
}
);
unicode = 00AF;
},
{
glyphname = degree;
layers = (
{
layerId = "92FC523E-9234-4103-A150-1ABFFCFEAB52";
paths = (
{
nodes = (
"164 373 OFFCURVE",
"101 400 OFFCURVE",
"54 447 OFFCURVE",
"28 510 OFFCURVE",
"28 546 QCURVE SMOOTH",
"28 582 OFFCURVE",
"54 646 OFFCURVE",
"101 692 OFFCURVE",
"164 719 OFFCURVE",
"201 719 QCURVE SMOOTH",
"237 719 OFFCURVE",
"301 692 OFFCURVE",
"347 646 OFFCURVE",
"374 582 OFFCURVE",
"374 546 QCURVE SMOOTH",
"374 510 OFFCURVE",
"347 447 OFFCURVE",
"301 400 OFFCURVE",
"237 373 OFFCURVE",
"201 373 QCURVE SMOOTH"
);
},
{
nodes = (
"182 639 OFFCURVE",
"149 624 OFFCURVE",
"124 598 OFFCURVE",
"109 565 OFFCURVE",
"109 546 QCURVE SMOOTH",
"109 528 OFFCURVE",
"124 494 OFFCURVE",
"149 469 OFFCURVE",
"182 454 OFFCURVE",
"201 454 QCURVE SMOOTH",
"220 454 OFFCURVE",
"253 469 OFFCURVE",
"278 494 OFFCURVE",
"293 528 OFFCURVE",
"293 546 QCURVE SMOOTH",
"293 565 OFFCURVE",
"278 598 OFFCURVE",
"253 624 OFFCURVE",
"220 639 OFFCURVE",
"201 639 QCURVE SMOOTH"
);
}
);
width = 393;
}
);
unicode = 00B0;
},
{
glyphname = plusminus;
layers = (
{
layerId = "92FC523E-9234-4103-A150-1ABFFCFEAB52";
paths = (
{
nodes = (
"310 230 LINE",
"310 151 LINE",
"16 151 LINE",
"16 230 LINE"
);
},
{
nodes = (
"202 279 LINE",
"123 279 LINE",
"123 390 LINE",
"16 390 LINE",
"16 469 LINE",
"123 469 LINE",
"123 573 LINE",
"202 573 LINE",
"202 469 LINE",
"310 469 LINE",
"310 390 LINE",
"202 390 LINE"
);
}
);
width = 339;
}
);
unicode = 00B1;
},
{
glyphname = twosuperior;
layers = (
{
layerId = "92FC523E-9234-4103-A150-1ABFFCFEAB52";
paths = (
{
nodes = (
"241 681 LINE SMOOTH",
"255 681 OFFCURVE",
"283 667 OFFCURVE",
"306 644 OFFCURVE",
"320 616 OFFCURVE",
"320 602 QCURVE",
"321 541 LINE",
"321 523 OFFCURVE",
"293 489 OFFCURVE",
"273 489 QCURVE SMOOTH",
"93 489 LINE SMOOTH",
"79 489 OFFCURVE",
"76 463 OFFCURVE",
"76 452 QCURVE SMOOTH",
"76 447 OFFCURVE",
"86 437 OFFCURVE",
"91 437 QCURVE SMOOTH",
"321 437 LINE",
"321 384 LINE",
"24 384 LINE",
"24 489 LINE SMOOTH",
"24 508 OFFCURVE",
"52 541 OFFCURVE",
"72 541 QCURVE SMOOTH",
"164 541 LINE",
"164 628 LINE",
"108 628 LINE SMOOTH",
"97 628 OFFCURVE",
"84 618 OFFCURVE",
"78 602 OFFCURVE",
"76 584 OFFCURVE",
"76 576 QCURVE",
"24 576 LINE",
"24 594 LINE SMOOTH",
"24 609 OFFCURVE",
"37 640 OFFCURVE",
"58 665 OFFCURVE",
"87 681 OFFCURVE",
"104 681 QCURVE SMOOTH"
);
}
);
width = 344;
}
);
unicode = 00B2;
},
{
glyphname = threesuperior;
layers = (
{
layerId = "92FC523E-9234-4103-A150-1ABFFCFEAB52";
paths = (
{
nodes = (
"226 681 LINE SMOOTH",
"270 681 OFFCURVE",
"309 622 OFFCURVE",
"309 582 QCURVE SMOOTH",
"309 562 OFFCURVE",
"279 534 OFFCURVE",
"259 532 QCURVE",
"261 532 LINE",
"262 532 LINE",
"263 532 LINE",
"289 532 OFFCURVE",
"309 493 OFFCURVE",
"309 467 QCURVE SMOOTH",
"309 433 OFFCURVE",
"260 384 OFFCURVE",
"226 384 QCURVE SMOOTH",
"104 384 LINE SMOOTH",
"81 384 OFFCURVE",
"47 401 OFFCURVE",
"26 430 OFFCURVE",
"16 468 OFFCURVE",
"16 489 QCURVE",
"69 489 LINE",
"69 481 OFFCURVE",
"71 463 OFFCURVE",
"77 447 OFFCURVE",
"90 437 OFFCURVE",
"101 437 QCURVE SMOOTH",
"156 437 LINE",
"156 507 LINE",
"121 507 LINE",
"121 559 LINE",
"156 559 LINE",
"156 629 LINE",
"104 629 LINE SMOOTH",
"80 629 OFFCURVE",
"69 595 OFFCURVE",
"69 576 QCURVE",
"16 576 LINE",
"16 594 LINE SMOOTH",
"16 630 OFFCURVE",
"68 681 OFFCURVE",
"104 681 QCURVE SMOOTH"
);
}
);
width = 328;
}
);
unicode = 00B3;
},
{
glyphname = acute;
layers = (
{
layerId = "92FC523E-9234-4103-A150-1ABFFCFEAB52";
paths = (
{
nodes = (
"150 927 LINE",
"225 829 LINE",
"58 735 LINE",
"18 787 LINE"
);
}
);
width = 242;
}
);
unicode = 00B4;
},
{
glyphname = paragraph;
layers = (
{
layerId = "92FC523E-9234-4103-A150-1ABFFCFEAB52";
paths = (
{
nodes = (
"666 679 LINE",
"667 588 LINE",
"604 588 LINE",
"604 -146 LINE",
"516 -146 LINE",
"516 588 LINE",
"383 588 LINE",
"383 -146 LINE",
"295 -146 LINE",
"295 254 LINE",
"186 254 LINE SMOOTH",
"154 254 OFFCURVE",
"98 280 OFFCURVE",
"56 324 OFFCURVE",
"31 383 OFFCURVE",
"31 417 QCURVE SMOOTH",
"31 516 LINE SMOOTH",
"31 549 OFFCURVE",
"56 608 OFFCURVE",
"98 653 OFFCURVE",
"154 679 OFFCURVE",
"186 679 QCURVE SMOOTH",
"295 679 LINE",
"295 680 LINE"
);
}
);
width = 687;
}
);
unicode = 00B6;
},
{
glyphname = periodcentered;
layers = (
{
layerId = "92FC523E-9234-4103-A150-1ABFFCFEAB52";
paths = (
{
nodes = (
"26 400 OFFCURVE",
"81 456 OFFCURVE",
"123 456 QCURVE SMOOTH",
"165 456 OFFCURVE",
"221 400 OFFCURVE",
"221 358 QCURVE SMOOTH",
"221 316 OFFCURVE",
"165 261 OFFCURVE",
"123 261 QCURVE SMOOTH",
"81 261 OFFCURVE",
"26 316 OFFCURVE",
"26 358 QCURVE SMOOTH"
);
}
);
width = 259;
}
);
unicode = 00B7;
},
{
glyphname = cedilla;
layers = (
{
layerId = "92FC523E-9234-4103-A150-1ABFFCFEAB52";
paths = (
{
nodes = (
"123 -27 LINE",
"130 -26 OFFCURVE",
"143 -26 OFFCURVE",
"150 -26 QCURVE SMOOTH",
"182 -26 OFFCURVE",
"243 -46 OFFCURVE",
"259 -66 QCURVE SMOOTH",
"275 -85 OFFCURVE",
"275 -107 QCURVE",
"275 -109 OFFCURVE",
"276 -119 OFFCURVE",
"271 -134 OFFCURVE",
"259 -156 OFFCURVE",
"246 -169 QCURVE SMOOTH",
"219 -197 OFFCURVE",
"152 -227 OFFCURVE",
"123 -234 QCURVE",
"88 -245 OFFCURVE",
"55 -246 QCURVE",
"43 -198 LINE",
"62 -193 OFFCURVE",
"96 -182 OFFCURVE",
"110 -177 QCURVE",
"136 -163 OFFCURVE",
"169 -140 OFFCURVE",
"169 -125 QCURVE",
"169 -124 LINE",
"169 -123 LINE",
"169 -122 LINE",
"169 -121 LINE",
"164 -103 OFFCURVE",
"128 -86 OFFCURVE",
"108 -83 QCURVE",
"83 -81 OFFCURVE",
"44 -79 OFFCURVE",
"30 -79 QCURVE",
"51 4 LINE",
"130 4 LINE"
);
}
);
width = 290;
}
);
unicode = 00B8;
},
{
glyphname = onesuperior;
layers = (
{
layerId = "92FC523E-9234-4103-A150-1ABFFCFEAB52";
paths = (
{
nodes = (
"69 681 LINE",
"209 681 LINE",
"209 384 LINE",
"69 384 LINE",
"69 594 LINE",
"17 594 LINE",
"17 628 LINE"
);
}
);
width = 228;
}
);
unicode = 00B9;
},
{
glyphname = ordmasculine;
layers = (
{
layerId = "92FC523E-9234-4103-A150-1ABFFCFEAB52";
paths = (
{
nodes = (
"310 463 LINE SMOOTH",
"310 446 OFFCURVE",
"295 418 OFFCURVE",
"270 396 OFFCURVE",
"239 384 OFFCURVE",
"223 384 QCURVE SMOOTH",
"93 384 LINE SMOOTH",
"77 384 OFFCURVE",
"48 400 OFFCURVE",
"26 425 OFFCURVE",
"13 456 OFFCURVE",
"13 471 QCURVE SMOOTH",
"13 602 LINE SMOOTH",
"13 616 OFFCURVE",
"28 644 OFFCURVE",
"51 667 OFFCURVE",
"79 681 OFFCURVE",
"93 681 QCURVE SMOOTH",
"231 681 LINE SMOOTH",
"247 681 OFFCURVE",
"276 665 OFFCURVE",
"298 640 OFFCURVE",
"310 609 OFFCURVE",
"310 594 QCURVE SMOOTH"
);
},
{
nodes = (
"258 594 LINE SMOOTH",
"258 606 OFFCURVE",
"239 628 OFFCURVE",
"227 628 QCURVE SMOOTH",
"171 628 LINE",
"171 437 LINE",
"227 437 LINE SMOOTH",
"238 437 OFFCURVE",
"258 457 OFFCURVE",
"258 468 QCURVE SMOOTH"
);
}
);
width = 326;
}
);
unicode = 00BA;
},
{
glyphname = guillemotright;
layers = (
{
layerId = "92FC523E-9234-4103-A150-1ABFFCFEAB52";
paths = (
{
nodes = (
"269 372 LINE",
"269 308 LINE",
"80 105 LINE",
"28 145 LINE",
"147 340 LINE",
"28 535 LINE",
"80 575 LINE"
);
},
{
nodes = (
"457 372 LINE",
"457 308 LINE",
"268 105 LINE",
"216 145 LINE",
"335 340 LINE",
"216 535 LINE",
"268 575 LINE"
);
}
);
width = 484;
}
);
unicode = 00BB;
},
{
glyphname = questiondown;
layers = (
{
layerId = "92FC523E-9234-4103-A150-1ABFFCFEAB52";
paths = (
{
nodes = (
"205 571 LINE",
"205 694 LINE",
"499 694 LINE",
"499 571 LINE"
);
},
{
nodes = (
"341 122 LINE",
"384 122 LINE SMOOTH",
"436 122 OFFCURVE",
"480 120 OFFCURVE",
"485 120 QCURVE SMOOTH",
"509 120 OFFCURVE",
"547 128 OFFCURVE",
"574 154 OFFCURVE",
"588 203 OFFCURVE",
"588 245 QCURVE",
"711 245 LINE",
"711 204 LINE SMOOTH",
"711 162 OFFCURVE",
"679 88 OFFCURVE",
"623 33 OFFCURVE",
"549 0 OFFCURVE",
"507 0 QCURVE",
"203 1 LINE",
"170 1 OFFCURVE",
"104 34 OFFCURVE",
"51 86 OFFCURVE",
"18 153 OFFCURVE",
"18 186 QCURVE",
"17 326 LINE",
"17 369 OFFCURVE",
"51 419 OFFCURVE",
"105 443 OFFCURVE",
"172 449 OFFCURVE",
"205 449 QCURVE",
"205 512 LINE",
"499 512 LINE",
"499 438 LINE SMOOTH",
"499 405 OFFCURVE",
"469 362 OFFCURVE",
"424 337 OFFCURVE",
"371 326 OFFCURVE",
"349 326 QCURVE SMOOTH",
"345 326 LINE",
"344 326 LINE",
"343 326 LINE",
"341 326 LINE"
);
}
);
width = 729;
}
);
unicode = 00BF;
},
{
glyphname = Agrave;
layers = (
{
layerId = "92FC523E-9234-4103-A150-1ABFFCFEAB52";
paths = (
{
nodes = (
"243 287 LINE",
"385 287 LINE",
"320 506 LINE"
);
},
{
nodes = (
"469 0 LINE",
"409 205 LINE",
"214 205 LINE",
"141 0 LINE",
"18 0 LINE",
"264 696 LINE",
"592 696 LINE",
"838 0 LINE"
);
},
{
nodes = (
"389 927 LINE",
"521 787 LINE",
"481 735 LINE",
"314 829 LINE"
);
}
);
width = 844;
}
);
unicode = 00C0;
},
{
glyphname = Aacute;
layers = (
{
layerId = "92FC523E-9234-4103-A150-1ABFFCFEAB52";
paths = (
{
nodes = (
"243 287 LINE",
"385 287 LINE",
"320 506 LINE"
);
},
{
nodes = (
"469 0 LINE",
"409 205 LINE",
"214 205 LINE",
"141 0 LINE",
"18 0 LINE",
"264 696 LINE",
"592 696 LINE",
"838 0 LINE"
);
},
{
nodes = (
"314 787 LINE",
"446 927 LINE",
"521 829 LINE",
"354 735 LINE"
);
}
);
width = 844;
}
);
unicode = 00C1;
},
{
glyphname = Acircumflex;
layers = (
{
layerId = "92FC523E-9234-4103-A150-1ABFFCFEAB52";
paths = (
{
nodes = (
"243 287 LINE",
"385 287 LINE",
"320 506 LINE"
);
},
{
nodes = (
"469 0 LINE",
"409 205 LINE",
"214 205 LINE",
"141 0 LINE",
"18 0 LINE",
"264 696 LINE",
"592 696 LINE",
"838 0 LINE"
);
},
{
nodes = (
"255 787 LINE",
"387 927 LINE",
"451 927 LINE",
"583 787 LINE",
"543 735 LINE",
"419 805 LINE",
"295 735 LINE"
);
}
);
width = 844;
}
);
unicode = 00C2;
},
{
glyphname = Atilde;
layers = (
{
layerId = "92FC523E-9234-4103-A150-1ABFFCFEAB52";
paths = (
{
nodes = (
"505 867 OFFCURVE",
"515 867 QCURVE SMOOTH",
"522 867 OFFCURVE",
"545 875 OFFCURVE",
"557 884 QCURVE SMOOTH",
"570 894 OFFCURVE",
"584 911 QCURVE",
"612 901 LINE",
"587 832 OFFCURVE",
"532 767 OFFCURVE",
"509 755 QCURVE SMOOTH",
"490 745 OFFCURVE",
"471 745 QCURVE SMOOTH",
"465 745 OFFCURVE",
"455 747 QCURVE",
"434 755 OFFCURVE",
"408 764 OFFCURVE",
"385 773 OFFCURVE",
"358 783 OFFCURVE",
"335 792 QCURVE SMOOTH",
"326 795 OFFCURVE",
"318 795 QCURVE SMOOTH",
"310 795 OFFCURVE",
"286 787 OFFCURVE",
"274 778 QCURVE SMOOTH",
"262 769 OFFCURVE",
"247 752 QCURVE",
"219 761 LINE",
"244 829 OFFCURVE",
"299 895 OFFCURVE",
"322 907 QCURVE SMOOTH",
"341 917 OFFCURVE",
"360 917 QCURVE SMOOTH",
"366 917 OFFCURVE",
"376 915 QCURVE",
"397 907 OFFCURVE",
"424 897 OFFCURVE",
"447 888 OFFCURVE",
"474 879 OFFCURVE",
"496 871 QCURVE SMOOTH"
);
},
{
nodes = (
"408 212 LINE",
"216 212 LINE",
"141 2 LINE",
"141 7 LINE",
"21 7 LINE",
"264 694 LINE",
"264 689 LINE",
"592 689 LINE",
"592 694 LINE",
"652 521 OFFCURVE",
"775 180 OFFCURVE",
"835 7 QCURVE",
"469 7 LINE",
"469 2 LINE"
);
},
{
nodes = (
"388 280 LINE",
"320 508 LINE",
"240 280 LINE"
);
}
);
width = 844;
}
);
unicode = 00C3;
},
{
glyphname = Adieresis;
layers = (
{
layerId = "92FC523E-9234-4103-A150-1ABFFCFEAB52";
paths = (
{
nodes = (
"240 836 OFFCURVE",
"282 878 OFFCURVE",
"311 878 QCURVE SMOOTH",
"340 878 OFFCURVE",
"382 836 OFFCURVE",
"382 807 QCURVE SMOOTH",
"382 778 OFFCURVE",
"340 736 OFFCURVE",
"311 736 QCURVE SMOOTH",
"282 736 OFFCURVE",
"240 778 OFFCURVE",
"240 807 QCURVE SMOOTH"
);
},
{
nodes = (
"451 836 OFFCURVE",
"493 878 OFFCURVE",
"522 878 QCURVE SMOOTH",
"551 878 OFFCURVE",
"593 836 OFFCURVE",
"593 807 QCURVE SMOOTH",
"593 778 OFFCURVE",
"551 736 OFFCURVE",
"522 736 QCURVE SMOOTH",
"493 736 OFFCURVE",
"451 778 OFFCURVE",
"451 807 QCURVE SMOOTH"
);
},
{
nodes = (
"409 205 LINE",
"214 205 LINE",
"141 0 LINE",
"18 0 LINE",
"264 696 LINE",
"592 696 LINE",
"838 0 LINE",
"469 0 LINE"
);
},
{
nodes = (
"385 287 LINE",
"320 506 LINE",
"243 287 LINE"
);
}
);
width = 844;
}
);
unicode = 00C4;
},
{
glyphname = Aring;
layers = (
{
layerId = "92FC523E-9234-4103-A150-1ABFFCFEAB52";
paths = (
{
nodes = (
"387 738 OFFCURVE",
"350 754 OFFCURVE",
"321 781 OFFCURVE",
"305 817 OFFCURVE",
"305 837 QCURVE SMOOTH",
"305 857 OFFCURVE",
"321 894 OFFCURVE",
"350 921 OFFCURVE",
"387 937 OFFCURVE",
"408 937 QCURVE SMOOTH",
"429 937 OFFCURVE",
"467 921 OFFCURVE",
"494 894 OFFCURVE",
"510 857 OFFCURVE",
"510 837 QCURVE SMOOTH",
"510 817 OFFCURVE",
"494 781 OFFCURVE",
"467 754 OFFCURVE",
"429 738 OFFCURVE",
"408 738 QCURVE SMOOTH"
);
},
{
nodes = (
"395 868 OFFCURVE",
"376 850 OFFCURVE",
"376 837 QCURVE SMOOTH",
"376 825 OFFCURVE",
"395 806 OFFCURVE",
"408 806 QCURVE SMOOTH",
"422 806 OFFCURVE",
"439 825 OFFCURVE",
"439 837 QCURVE SMOOTH",
"439 850 OFFCURVE",
"422 868 OFFCURVE",
"408 868 QCURVE SMOOTH"
);
},
{
nodes = (
"409 205 LINE",
"214 205 LINE",
"141 0 LINE",
"18 0 LINE",
"264 696 LINE",
"592 696 LINE",
"838 0 LINE",
"469 0 LINE"
);
},
{
nodes = (
"385 287 LINE",
"320 506 LINE",
"243 287 LINE"
);
}
);
width = 844;
}
);
unicode = 00C5;
},
{
glyphname = AE;
layers = (
{
layerId = "92FC523E-9234-4103-A150-1ABFFCFEAB52";
paths = (
{
nodes = (
"367 287 LINE",
"535 287 LINE",
"535 497 LINE"
);
},
{
nodes = (
"862 573 LINE",
"862 410 LINE",
"1067 410 LINE",
"1067 328 LINE",
"862 328 LINE",
"862 123 LINE",
"1108 123 LINE",
"1108 0 LINE",
"535 0 LINE",
"535 205 LINE",
"297 205 LINE",
"141 0 LINE",
"18 0 LINE",
"535 693 LINE",
"535 696 LINE",
"1108 696 LINE",
"1108 573 LINE"
);
}
);
width = 1127;
}
);
unicode = 00C6;
},
{
glyphname = Ccedilla;
layers = (
{
layerId = "92FC523E-9234-4103-A150-1ABFFCFEAB52";
paths = (
{
nodes = (
"524 696 LINE SMOOTH",
"563 696 OFFCURVE",
"630 660 OFFCURVE",
"680 601 OFFCURVE",
"709 528 OFFCURVE",
"710 492 QCURVE",
"587 492 LINE",
"587 494 LINE",
"587 495 LINE",
"587 496 LINE",
"587 508 OFFCURVE",
"575 535 OFFCURVE",
"555 558 OFFCURVE",
"528 573 OFFCURVE",
"513 573 QCURVE SMOOTH",
"382 573 LINE",
"382 123 LINE",
"513 123 LINE SMOOTH",
"528 123 OFFCURVE",
"555 138 OFFCURVE",
"575 162 OFFCURVE",
"587 189 OFFCURVE",
"587 201 QCURVE",
"587 203 LINE",
"587 204 LINE",
"587 205 LINE",
"710 205 LINE",
"709 163 OFFCURVE",
"677 88 OFFCURVE",
"623 32 OFFCURVE",
"549 0 OFFCURVE",
"506 0 QCURVE SMOOTH",
"376 0 LINE",
"370 -27 LINE",
"377 -26 OFFCURVE",
"390 -26 OFFCURVE",
"397 -26 QCURVE SMOOTH",
"429 -26 OFFCURVE",
"490 -46 OFFCURVE",
"506 -66 QCURVE SMOOTH",
"522 -85 OFFCURVE",
"522 -107 QCURVE",
"522 -109 OFFCURVE",
"523 -119 OFFCURVE",
"518 -134 OFFCURVE",
"506 -156 OFFCURVE",
"493 -169 QCURVE SMOOTH",
"466 -197 OFFCURVE",
"399 -227 OFFCURVE",
"370 -234 QCURVE",
"335 -245 OFFCURVE",
"302 -246 QCURVE",
"290 -198 LINE",
"309 -193 OFFCURVE",
"343 -182 OFFCURVE",
"357 -177 QCURVE",
"383 -163 OFFCURVE",
"416 -140 OFFCURVE",
"416 -125 QCURVE",
"416 -124 LINE",
"416 -123 LINE",
"416 -122 LINE",
"416 -121 LINE",
"411 -103 OFFCURVE",
"375 -86 OFFCURVE",
"355 -83 QCURVE",
"330 -81 OFFCURVE",
"291 -79 OFFCURVE",
"277 -79 QCURVE",
"297 0 LINE",
"200 0 LINE SMOOTH",
"161 0 OFFCURVE",
"94 37 OFFCURVE",
"43 95 OFFCURVE",
"14 169 OFFCURVE",
"14 205 QCURVE SMOOTH",
"14 492 LINE SMOOTH",
"14 528 OFFCURVE",
"43 601 OFFCURVE",
"94 659 OFFCURVE",
"161 696 OFFCURVE",
"200 696 QCURVE SMOOTH"
);
}
);
width = 723;
}
);
unicode = 00C7;
},
{
glyphname = Egrave;
layers = (
{
layerId = "92FC523E-9234-4103-A150-1ABFFCFEAB52";
paths = (
{
nodes = (
"349 410 LINE",
"554 410 LINE",
"554 328 LINE",
"349 328 LINE",
"349 123 LINE",
"595 123 LINE",
"595 0 LINE",
"22 0 LINE",
"22 696 LINE",
"595 696 LINE",
"595 573 LINE",
"349 573 LINE"
);
},
{
nodes = (
"397 786 LINE",
"357 734 LINE",
"190 828 LINE",
"265 926 LINE"
);
}
);
width = 616;
}
);
unicode = 00C8;
},
{
glyphname = Eacute;
layers = (
{
layerId = "92FC523E-9234-4103-A150-1ABFFCFEAB52";
paths = (
{
nodes = (
"349 410 LINE",
"554 410 LINE",
"554 328 LINE",
"349 328 LINE",
"349 123 LINE",
"595 123 LINE",
"595 0 LINE",
"22 0 LINE",
"22 696 LINE",
"595 696 LINE",
"595 573 LINE",
"349 573 LINE"
);
},
{
nodes = (
"351 926 LINE",
"426 828 LINE",
"259 734 LINE",
"219 786 LINE"
);
}
);
width = 616;
}
);
unicode = 00C9;
},
{
glyphname = Ecircumflex;
layers = (
{
layerId = "92FC523E-9234-4103-A150-1ABFFCFEAB52";
paths = (
{
nodes = (
"349 410 LINE",
"554 410 LINE",
"554 328 LINE",
"349 328 LINE",
"349 123 LINE",
"595 123 LINE",
"595 0 LINE",
"22 0 LINE",
"22 696 LINE",
"595 696 LINE",
"595 573 LINE",
"349 573 LINE"
);
},
{
nodes = (
"282 927 LINE",
"346 927 LINE",
"478 787 LINE",
"438 735 LINE",
"314 805 LINE",
"190 735 LINE",
"150 787 LINE"
);
}
);
width = 616;
}
);
unicode = 00CA;
},
{
glyphname = Edieresis;
layers = (
{
layerId = "92FC523E-9234-4103-A150-1ABFFCFEAB52";
paths = (
{
nodes = (
"133 836 OFFCURVE",
"175 878 OFFCURVE",
"204 878 QCURVE SMOOTH",
"233 878 OFFCURVE",
"275 836 OFFCURVE",
"275 807 QCURVE SMOOTH",
"275 778 OFFCURVE",
"233 736 OFFCURVE",
"204 736 QCURVE SMOOTH",
"175 736 OFFCURVE",
"133 778 OFFCURVE",
"133 807 QCURVE SMOOTH"
);
},
{
nodes = (
"344 836 OFFCURVE",
"386 878 OFFCURVE",
"415 878 QCURVE SMOOTH",
"444 878 OFFCURVE",
"486 836 OFFCURVE",
"486 807 QCURVE SMOOTH",
"486 778 OFFCURVE",
"444 736 OFFCURVE",
"415 736 QCURVE SMOOTH",
"386 736 OFFCURVE",
"344 778 OFFCURVE",
"344 807 QCURVE SMOOTH"
);
},
{
nodes = (
"349 410 LINE",
"554 410 LINE",
"554 328 LINE",
"349 328 LINE",
"349 123 LINE",
"595 123 LINE",
"595 0 LINE",
"22 0 LINE",
"22 696 LINE",
"595 696 LINE",
"595 573 LINE",
"349 573 LINE"
);
}
);
width = 616;
}
);
unicode = 00CB;
},
{
glyphname = Igrave;
layers = (
{
layerId = "92FC523E-9234-4103-A150-1ABFFCFEAB52";
paths = (
{
nodes = (
"356 696 LINE",
"356 0 LINE",
"29 0 LINE",
"29 696 LINE"
);
},
{
nodes = (
"299 787 LINE",
"259 735 LINE",
"92 829 LINE",
"167 927 LINE"
);
}
);
width = 383;
}
);
unicode = 00CC;
},
{
glyphname = Iacute;
layers = (
{
layerId = "92FC523E-9234-4103-A150-1ABFFCFEAB52";
paths = (
{
nodes = (
"356 696 LINE",
"356 0 LINE",
"29 0 LINE",
"29 696 LINE"
);
},
{
nodes = (
"224 927 LINE",
"299 829 LINE",
"132 735 LINE",
"92 787 LINE"
);
}
);
width = 383;
}
);
unicode = 00CD;
},
{
glyphname = Icircumflex;
layers = (
{
layerId = "92FC523E-9234-4103-A150-1ABFFCFEAB52";
paths = (
{
nodes = (
"356 696 LINE",
"356 0 LINE",
"29 0 LINE",
"29 696 LINE"
);
},
{
nodes = (
"157 927 LINE",
"221 927 LINE",
"353 787 LINE",
"313 735 LINE",
"189 805 LINE",
"65 735 LINE",
"25 787 LINE"
);
}
);
width = 383;
}
);
unicode = 00CE;
},
{
glyphname = Idieresis;
layers = (
{
layerId = "92FC523E-9234-4103-A150-1ABFFCFEAB52";
paths = (
{
nodes = (
"17 836 OFFCURVE",
"59 878 OFFCURVE",
"88 878 QCURVE SMOOTH",
"117 878 OFFCURVE",
"159 836 OFFCURVE",
"159 807 QCURVE SMOOTH",
"159 778 OFFCURVE",
"117 736 OFFCURVE",
"88 736 QCURVE SMOOTH",
"59 736 OFFCURVE",
"17 778 OFFCURVE",
"17 807 QCURVE SMOOTH"
);
},
{
nodes = (
"228 836 OFFCURVE",
"270 878 OFFCURVE",
"299 878 QCURVE SMOOTH",
"328 878 OFFCURVE",
"370 836 OFFCURVE",
"370 807 QCURVE SMOOTH",
"370 778 OFFCURVE",
"328 736 OFFCURVE",
"299 736 QCURVE SMOOTH",
"270 736 OFFCURVE",
"228 778 OFFCURVE",
"228 807 QCURVE SMOOTH"
);
},
{
nodes = (
"356 696 LINE",
"356 0 LINE",
"29 0 LINE",
"29 696 LINE"
);
}
);
width = 383;
}
);
unicode = 00CF;
},
{
glyphname = Eth;
layers = (
{
layerId = "92FC523E-9234-4103-A150-1ABFFCFEAB52";
paths = (
{
nodes = (
"779 205 LINE SMOOTH",
"779 163 OFFCURVE",
"747 88 OFFCURVE",
"691 32 OFFCURVE",
"616 0 OFFCURVE",
"574 0 QCURVE SMOOTH",
"83 0 LINE",
"83 287 LINE",
"24 287 LINE",
"24 410 LINE",
"83 410 LINE",
"83 697 LINE",
"574 697 LINE SMOOTH",
"616 697 OFFCURVE",
"691 664 OFFCURVE",
"746 609 OFFCURVE",
"779 534 OFFCURVE",
"779 492 QCURVE SMOOTH"
);
},
{
nodes = (
"656 499 LINE SMOOTH",
"656 512 OFFCURVE",
"642 539 OFFCURVE",
"621 560 OFFCURVE",
"595 573 OFFCURVE",
"582 573 QCURVE SMOOTH",
"410 573 LINE",
"410 410 LINE",
"522 410 LINE",
"522 287 LINE",
"410 287 LINE",
"410 123 LINE",
"582 123 LINE SMOOTH",
"595 123 OFFCURVE",
"621 137 OFFCURVE",
"642 158 OFFCURVE",
"656 184 OFFCURVE",
"656 197 QCURVE SMOOTH"
);
}
);
width = 807;
}
);
unicode = 00D0;
},
{
glyphname = Ntilde;
layers = (
{
layerId = "92FC523E-9234-4103-A150-1ABFFCFEAB52";
paths = (
{
nodes = (
"505 867 OFFCURVE",
"515 867 QCURVE SMOOTH",
"522 867 OFFCURVE",
"545 875 OFFCURVE",
"557 884 QCURVE SMOOTH",
"570 894 OFFCURVE",
"584 911 QCURVE",
"612 901 LINE",
"587 832 OFFCURVE",
"532 767 OFFCURVE",
"509 755 QCURVE SMOOTH",
"490 745 OFFCURVE",
"471 745 QCURVE SMOOTH",
"465 745 OFFCURVE",
"455 747 QCURVE",
"434 755 OFFCURVE",
"408 764 OFFCURVE",
"385 773 OFFCURVE",
"358 783 OFFCURVE",
"335 792 QCURVE SMOOTH",
"326 795 OFFCURVE",
"318 795 QCURVE SMOOTH",
"310 795 OFFCURVE",
"286 787 OFFCURVE",
"274 778 QCURVE SMOOTH",
"262 769 OFFCURVE",
"247 752 QCURVE",
"219 761 LINE",
"244 829 OFFCURVE",
"299 895 OFFCURVE",
"322 907 QCURVE SMOOTH",
"341 917 OFFCURVE",
"360 917 QCURVE SMOOTH",
"366 917 OFFCURVE",
"376 915 QCURVE",
"397 907 OFFCURVE",
"424 897 OFFCURVE",
"447 888 OFFCURVE",
"474 879 OFFCURVE",
"496 871 QCURVE SMOOTH"
);
},
{
nodes = (
"395 697 LINE",
"641 232 LINE",
"641 697 LINE",
"763 697 LINE",
"763 0 LINE",
"641 0 LINE",
"395 464 LINE",
"395 0 LINE",
"26 0 LINE",
"26 697 LINE"
);
}
);
width = 794;
}
);
unicode = 00D1;
},
{
glyphname = Ograve;
layers = (
{
layerId = "92FC523E-9234-4103-A150-1ABFFCFEAB52";
paths = (
{
nodes = (
"508 787 LINE",
"468 735 LINE",
"301 829 LINE",
"376 927 LINE"
);
},
{
nodes = (
"719 186 LINE SMOOTH",
"719 148 OFFCURVE",
"683 80 OFFCURVE",
"624 29 OFFCURVE",
"551 0 OFFCURVE",
"515 0 QCURVE",
"210 1 LINE",
"171 1 OFFCURVE",
"103 37 OFFCURVE",
"52 95 OFFCURVE",
"23 168 OFFCURVE",
"23 205 QCURVE SMOOTH",
"23 510 LINE SMOOTH",
"23 543 OFFCURVE",
"57 609 OFFCURVE",
"110 663 OFFCURVE",
"177 696 OFFCURVE",
"210 696 QCURVE SMOOTH",
"533 696 LINE SMOOTH",
"571 696 OFFCURVE",
"639 659 OFFCURVE",
"690 601 OFFCURVE",
"719 528 OFFCURVE",
"719 492 QCURVE SMOOTH"
);
},
{
nodes = (
"596 492 LINE SMOOTH",
"596 507 OFFCURVE",
"584 536 OFFCURVE",
"564 559 OFFCURVE",
"537 573 OFFCURVE",
"522 573 QCURVE SMOOTH",
"392 573 LINE",
"392 123 LINE",
"522 123 LINE SMOOTH",
"535 123 OFFCURVE",
"562 136 OFFCURVE",
"583 157 OFFCURVE",
"596 183 OFFCURVE",
"596 197 QCURVE SMOOTH"
);
}
);
width = 744;
}
);
unicode = 00D2;
},
{
glyphname = Oacute;
layers = (
{
layerId = "92FC523E-9234-4103-A150-1ABFFCFEAB52";
paths = (
{
nodes = (
"433 927 LINE",
"508 829 LINE",
"341 735 LINE",
"301 787 LINE"
);
},
{
nodes = (
"719 186 LINE SMOOTH",
"719 148 OFFCURVE",
"683 80 OFFCURVE",
"624 29 OFFCURVE",
"551 0 OFFCURVE",
"515 0 QCURVE",
"210 1 LINE",
"171 1 OFFCURVE",
"103 37 OFFCURVE",
"52 95 OFFCURVE",
"23 168 OFFCURVE",
"23 205 QCURVE SMOOTH",
"23 510 LINE SMOOTH",
"23 543 OFFCURVE",
"57 609 OFFCURVE",
"110 663 OFFCURVE",
"177 696 OFFCURVE",
"210 696 QCURVE SMOOTH",
"533 696 LINE SMOOTH",
"571 696 OFFCURVE",
"639 659 OFFCURVE",
"690 601 OFFCURVE",
"719 528 OFFCURVE",
"719 492 QCURVE SMOOTH"
);
},
{
nodes = (
"596 492 LINE SMOOTH",
"596 507 OFFCURVE",
"584 536 OFFCURVE",
"564 559 OFFCURVE",
"537 573 OFFCURVE",
"522 573 QCURVE SMOOTH",
"392 573 LINE",
"392 123 LINE",
"522 123 LINE SMOOTH",
"535 123 OFFCURVE",
"562 136 OFFCURVE",
"583 157 OFFCURVE",
"596 183 OFFCURVE",
"596 197 QCURVE SMOOTH"
);
}
);
width = 744;
}
);
unicode = 00D3;
},
{
glyphname = Ocircumflex;
layers = (
{
layerId = "92FC523E-9234-4103-A150-1ABFFCFEAB52";
paths = (
{
nodes = (
"342 927 LINE",
"406 927 LINE",
"538 787 LINE",
"498 735 LINE",
"374 805 LINE",
"250 735 LINE",
"210 787 LINE"
);
},
{
nodes = (
"719 186 LINE SMOOTH",
"719 148 OFFCURVE",
"683 80 OFFCURVE",
"624 29 OFFCURVE",
"551 0 OFFCURVE",
"515 0 QCURVE",
"210 1 LINE",
"171 1 OFFCURVE",
"103 37 OFFCURVE",
"52 95 OFFCURVE",
"23 168 OFFCURVE",
"23 205 QCURVE SMOOTH",
"23 510 LINE SMOOTH",
"23 543 OFFCURVE",
"57 609 OFFCURVE",
"110 663 OFFCURVE",
"177 696 OFFCURVE",
"210 696 QCURVE SMOOTH",
"533 696 LINE SMOOTH",
"571 696 OFFCURVE",
"639 659 OFFCURVE",
"690 601 OFFCURVE",
"719 528 OFFCURVE",
"719 492 QCURVE SMOOTH"
);
},
{
nodes = (
"596 492 LINE SMOOTH",
"596 507 OFFCURVE",
"584 536 OFFCURVE",
"564 559 OFFCURVE",
"537 573 OFFCURVE",
"522 573 QCURVE SMOOTH",
"392 573 LINE",
"392 123 LINE",
"522 123 LINE SMOOTH",
"535 123 OFFCURVE",
"562 136 OFFCURVE",
"583 157 OFFCURVE",
"596 183 OFFCURVE",
"596 197 QCURVE SMOOTH"
);
}
);
width = 744;
}
);
unicode = 00D4;
},
{
glyphname = Otilde;
layers = (
{
layerId = "92FC523E-9234-4103-A150-1ABFFCFEAB52";
paths = (
{
nodes = (
"466 867 OFFCURVE",
"476 867 QCURVE SMOOTH",
"483 867 OFFCURVE",
"506 875 OFFCURVE",
"518 884 QCURVE SMOOTH",
"531 894 OFFCURVE",
"545 911 QCURVE",
"573 901 LINE",
"548 832 OFFCURVE",
"493 767 OFFCURVE",
"470 755 QCURVE SMOOTH",
"451 745 OFFCURVE",
"432 745 QCURVE SMOOTH",
"426 745 OFFCURVE",
"416 747 QCURVE",
"395 755 OFFCURVE",
"369 764 OFFCURVE",
"346 773 OFFCURVE",
"319 783 OFFCURVE",
"296 792 QCURVE SMOOTH",
"287 795 OFFCURVE",
"279 795 QCURVE SMOOTH",
"271 795 OFFCURVE",
"247 787 OFFCURVE",
"235 778 QCURVE SMOOTH",
"223 769 OFFCURVE",
"208 752 QCURVE",
"180 761 LINE",
"205 829 OFFCURVE",
"260 895 OFFCURVE",
"283 907 QCURVE SMOOTH",
"302 917 OFFCURVE",
"321 917 QCURVE SMOOTH",
"327 917 OFFCURVE",
"337 915 QCURVE",
"358 907 OFFCURVE",
"385 897 OFFCURVE",
"408 888 OFFCURVE",
"435 879 OFFCURVE",
"457 871 QCURVE SMOOTH"
);
},
{
nodes = (
"719 186 LINE SMOOTH",
"719 148 OFFCURVE",
"683 80 OFFCURVE",
"624 29 OFFCURVE",
"551 0 OFFCURVE",
"515 0 QCURVE",
"210 1 LINE",
"171 1 OFFCURVE",
"103 37 OFFCURVE",
"52 95 OFFCURVE",
"23 168 OFFCURVE",
"23 205 QCURVE SMOOTH",
"23 510 LINE SMOOTH",
"23 543 OFFCURVE",
"57 609 OFFCURVE",
"110 663 OFFCURVE",
"177 696 OFFCURVE",
"210 696 QCURVE SMOOTH",
"533 696 LINE SMOOTH",
"571 696 OFFCURVE",
"639 659 OFFCURVE",
"690 601 OFFCURVE",
"719 528 OFFCURVE",
"719 492 QCURVE SMOOTH"
);
},
{
nodes = (
"596 492 LINE SMOOTH",
"596 507 OFFCURVE",
"584 536 OFFCURVE",
"564 559 OFFCURVE",
"537 573 OFFCURVE",
"522 573 QCURVE SMOOTH",
"392 573 LINE",
"392 123 LINE",
"522 123 LINE SMOOTH",
"535 123 OFFCURVE",
"562 136 OFFCURVE",
"583 157 OFFCURVE",
"596 183 OFFCURVE",
"596 197 QCURVE SMOOTH"
);
}
);
width = 744;
}
);
unicode = 00D5;
},
{
glyphname = Odieresis;
layers = (
{
layerId = "92FC523E-9234-4103-A150-1ABFFCFEAB52";
paths = (
{
nodes = (
"197 836 OFFCURVE",
"239 878 OFFCURVE",
"268 878 QCURVE SMOOTH",
"297 878 OFFCURVE",
"339 836 OFFCURVE",
"339 807 QCURVE SMOOTH",
"339 778 OFFCURVE",
"297 736 OFFCURVE",
"268 736 QCURVE SMOOTH",
"239 736 OFFCURVE",
"197 778 OFFCURVE",
"197 807 QCURVE SMOOTH"
);
},
{
nodes = (
"408 836 OFFCURVE",
"450 878 OFFCURVE",
"479 878 QCURVE SMOOTH",
"508 878 OFFCURVE",
"550 836 OFFCURVE",
"550 807 QCURVE SMOOTH",
"550 778 OFFCURVE",
"508 736 OFFCURVE",
"479 736 QCURVE SMOOTH",
"450 736 OFFCURVE",
"408 778 OFFCURVE",
"408 807 QCURVE SMOOTH"
);
},
{
nodes = (
"719 186 LINE SMOOTH",
"719 148 OFFCURVE",
"683 80 OFFCURVE",
"624 29 OFFCURVE",
"551 0 OFFCURVE",
"515 0 QCURVE",
"210 1 LINE",
"171 1 OFFCURVE",
"103 37 OFFCURVE",
"52 95 OFFCURVE",
"23 168 OFFCURVE",
"23 205 QCURVE SMOOTH",
"23 510 LINE SMOOTH",
"23 543 OFFCURVE",
"57 609 OFFCURVE",
"110 663 OFFCURVE",
"177 696 OFFCURVE",
"210 696 QCURVE SMOOTH",
"533 696 LINE SMOOTH",
"571 696 OFFCURVE",
"639 659 OFFCURVE",
"690 601 OFFCURVE",
"719 528 OFFCURVE",
"719 492 QCURVE SMOOTH"
);
},
{
nodes = (
"596 492 LINE SMOOTH",
"596 507 OFFCURVE",
"584 536 OFFCURVE",
"564 559 OFFCURVE",
"537 573 OFFCURVE",
"522 573 QCURVE SMOOTH",
"392 573 LINE",
"392 123 LINE",
"522 123 LINE SMOOTH",
"535 123 OFFCURVE",
"562 136 OFFCURVE",
"583 157 OFFCURVE",
"596 183 OFFCURVE",
"596 197 QCURVE SMOOTH"
);
}
);
width = 744;
}
);
unicode = 00D6;
},
{
glyphname = multiply;
layers = (
{
layerId = "92FC523E-9234-4103-A150-1ABFFCFEAB52";
paths = (
{
nodes = (
"126 124 LINE",
"39 211 LINE",
"179 351 LINE",
"33 496 LINE",
"120 583 LINE",
"266 438 LINE",
"409 581 LINE",
"496 494 LINE",
"353 351 LINE",
"490 213 LINE",
"403 126 LINE",
"266 264 LINE"
);
}
);
width = 526;
}
);
unicode = 00D7;
},
{
glyphname = Oslash;
layers = (
{
layerId = "92FC523E-9234-4103-A150-1ABFFCFEAB52";
paths = (
{
nodes = (
"719 186 LINE SMOOTH",
"719 148 OFFCURVE",
"683 80 OFFCURVE",
"624 29 OFFCURVE",
"551 0 OFFCURVE",
"515 0 QCURVE SMOOTH",
"406 0 LINE",
"374 -99 LINE",
"288 -71 LINE",
"311 1 LINE",
"210 1 LINE SMOOTH",
"171 1 OFFCURVE",
"103 37 OFFCURVE",
"52 95 OFFCURVE",
"23 168 OFFCURVE",
"23 205 QCURVE SMOOTH",
"23 510 LINE SMOOTH",
"23 543 OFFCURVE",
"57 609 OFFCURVE",
"110 663 OFFCURVE",
"177 696 OFFCURVE",
"210 696 QCURVE SMOOTH",
"534 696 LINE",
"536 696 LINE",
"537 696 LINE",
"538 696 LINE",
"565 778 LINE",
"651 750 LINE",
"624 666 LINE",
"635 658 OFFCURVE",
"655 641 OFFCURVE",
"665 630 QCURVE SMOOTH",
"690 601 OFFCURVE",
"719 528 OFFCURVE",
"719 492 QCURVE SMOOTH"
);
},
{
nodes = (
"392 248 LINE",
"498 573 LINE",
"392 573 LINE"
);
},
{
nodes = (
"596 492 LINE SMOOTH",
"596 507 OFFCURVE",
"590 522 QCURVE SMOOTH",
"588 526 OFFCURVE",
"584 533 OFFCURVE",
"582 537 QCURVE",
"446 123 LINE",
"522 123 LINE SMOOTH",
"535 123 OFFCURVE",
"562 136 OFFCURVE",
"583 157 OFFCURVE",
"596 183 OFFCURVE",
"596 197 QCURVE SMOOTH"
);
}
);
width = 744;
}
);
unicode = 00D8;
},
{
glyphname = Ugrave;
layers = (
{
layerId = "92FC523E-9234-4103-A150-1ABFFCFEAB52";
paths = (
{
nodes = (
"509 787 LINE",
"469 735 LINE",
"302 829 LINE",
"377 927 LINE"
);
},
{
nodes = (
"732 696 LINE",
"732 185 LINE SMOOTH",
"732 152 OFFCURVE",
"699 86 OFFCURVE",
"645 33 OFFCURVE",
"579 0 OFFCURVE",
"546 0 QCURVE",
"241 -1 LINE",
"205 -1 OFFCURVE",
"132 28 OFFCURVE",
"73 79 OFFCURVE",
"37 147 OFFCURVE",
"37 185 QCURVE SMOOTH",
"37 696 LINE",
"405 696 LINE",
"405 122 LINE",
"535 122 LINE SMOOTH",
"548 122 OFFCURVE",
"575 135 OFFCURVE",
"596 156 OFFCURVE",
"609 182 OFFCURVE",
"609 196 QCURVE SMOOTH",
"609 696 LINE"
);
}
);
width = 761;
}
);
unicode = 00D9;
},
{
glyphname = Uacute;
layers = (
{
layerId = "92FC523E-9234-4103-A150-1ABFFCFEAB52";
paths = (
{
nodes = (
"434 927 LINE",
"509 829 LINE",
"342 735 LINE",
"302 787 LINE"
);
},
{
nodes = (
"732 696 LINE",
"732 185 LINE SMOOTH",
"732 152 OFFCURVE",
"699 86 OFFCURVE",
"645 33 OFFCURVE",
"579 0 OFFCURVE",
"546 0 QCURVE",
"241 -1 LINE",
"205 -1 OFFCURVE",
"132 28 OFFCURVE",
"73 79 OFFCURVE",
"37 147 OFFCURVE",
"37 185 QCURVE SMOOTH",
"37 696 LINE",
"405 696 LINE",
"405 122 LINE",
"535 122 LINE SMOOTH",
"548 122 OFFCURVE",
"575 135 OFFCURVE",
"596 156 OFFCURVE",
"609 182 OFFCURVE",
"609 196 QCURVE SMOOTH",
"609 696 LINE"
);
}
);
width = 761;
}
);
unicode = 00DA;
},
{
glyphname = Ucircumflex;
layers = (
{
layerId = "92FC523E-9234-4103-A150-1ABFFCFEAB52";
paths = (
{
nodes = (
"369 927 LINE",
"433 927 LINE",
"565 787 LINE",
"525 735 LINE",
"401 805 LINE",
"277 735 LINE",
"237 787 LINE"
);
},
{
nodes = (
"732 696 LINE",
"732 185 LINE SMOOTH",
"732 152 OFFCURVE",
"699 86 OFFCURVE",
"645 33 OFFCURVE",
"579 0 OFFCURVE",
"546 0 QCURVE",
"241 -1 LINE",
"205 -1 OFFCURVE",
"132 28 OFFCURVE",
"73 79 OFFCURVE",
"37 147 OFFCURVE",
"37 185 QCURVE SMOOTH",
"37 696 LINE",
"405 696 LINE",
"405 122 LINE",
"535 122 LINE SMOOTH",
"548 122 OFFCURVE",
"575 135 OFFCURVE",
"596 156 OFFCURVE",
"609 182 OFFCURVE",
"609 196 QCURVE SMOOTH",
"609 696 LINE"
);
}
);
width = 761;
}
);
unicode = 00DB;
},
{
glyphname = Udieresis;
layers = (
{
layerId = "92FC523E-9234-4103-A150-1ABFFCFEAB52";
paths = (
{
nodes = (
"211 836 OFFCURVE",
"253 878 OFFCURVE",
"282 878 QCURVE SMOOTH",
"311 878 OFFCURVE",
"353 836 OFFCURVE",
"353 807 QCURVE SMOOTH",
"353 778 OFFCURVE",
"311 736 OFFCURVE",
"282 736 QCURVE SMOOTH",
"253 736 OFFCURVE",
"211 778 OFFCURVE",
"211 807 QCURVE SMOOTH"
);
},
{
nodes = (
"422 836 OFFCURVE",
"464 878 OFFCURVE",
"493 878 QCURVE SMOOTH",
"522 878 OFFCURVE",
"564 836 OFFCURVE",
"564 807 QCURVE SMOOTH",
"564 778 OFFCURVE",
"522 736 OFFCURVE",
"493 736 QCURVE SMOOTH",
"464 736 OFFCURVE",
"422 778 OFFCURVE",
"422 807 QCURVE SMOOTH"
);
},
{
nodes = (
"732 696 LINE",
"732 185 LINE SMOOTH",
"732 152 OFFCURVE",
"699 86 OFFCURVE",
"645 33 OFFCURVE",
"579 0 OFFCURVE",
"546 0 QCURVE",
"241 -1 LINE",
"205 -1 OFFCURVE",
"132 28 OFFCURVE",
"73 79 OFFCURVE",
"37 147 OFFCURVE",
"37 185 QCURVE SMOOTH",
"37 696 LINE",
"405 696 LINE",
"405 122 LINE",
"535 122 LINE SMOOTH",
"548 122 OFFCURVE",
"575 135 OFFCURVE",
"596 156 OFFCURVE",
"609 182 OFFCURVE",
"609 196 QCURVE SMOOTH",
"609 696 LINE"
);
}
);
width = 761;
}
);
unicode = 00DC;
},
{
glyphname = Thorn;
layers = (
{
layerId = "92FC523E-9234-4103-A150-1ABFFCFEAB52";
paths = (
{
nodes = (
"449 265 LINE SMOOTH",
"449 237 OFFCURVE",
"426 188 OFFCURVE",
"387 152 OFFCURVE",
"334 131 OFFCURVE",
"304 131 QCURVE SMOOTH",
"212 131 LINE",
"212 0 LINE",
"17 0 LINE",
"17 698 LINE",
"212 698 LINE",
"212 570 LINE",
"304 570 LINE SMOOTH",
"334 570 OFFCURVE",
"387 549 OFFCURVE",
"426 513 OFFCURVE",
"449 464 OFFCURVE",
"449 436 QCURVE SMOOTH"
);
},
{
nodes = (
"345 440 LINE SMOOTH",
"345 451 OFFCURVE",
"321 473 OFFCURVE",
"309 473 QCURVE SMOOTH",
"212 473 LINE",
"212 228 LINE",
"309 228 LINE SMOOTH",
"321 228 OFFCURVE",
"345 249 OFFCURVE",
"345 260 QCURVE SMOOTH"
);
}
);
width = 466;
}
);
unicode = 00DE;
},
{
glyphname = germandbls;
layers = (
{
layerId = "92FC523E-9234-4103-A150-1ABFFCFEAB52";
paths = (
{
nodes = (
"560 697 OFFCURVE",
"631 663 OFFCURVE",
"680 606 OFFCURVE",
"707 530 OFFCURVE",
"707 488 QCURVE SMOOTH",
"707 467 OFFCURVE",
"689 416 OFFCURVE",
"674 395 QCURVE SMOOTH",
"658 373 OFFCURVE",
"619 348 OFFCURVE",
"600 348 QCURVE SMOOTH",
"596 348 LINE",
"615 345 OFFCURVE",
"634 334 QCURVE SMOOTH",
"665 317 OFFCURVE",
"707 249 OFFCURVE",
"707 209 QCURVE SMOOTH",
"707 168 OFFCURVE",
"680 93 OFFCURVE",
"630 35 OFFCURVE",
"559 0 OFFCURVE",
"514 0 QCURVE SMOOTH",
"379 0 LINE",
"379 123 LINE",
"509 123 LINE SMOOTH",
"524 123 OFFCURVE",
"551 137 OFFCURVE",
"572 160 OFFCURVE",
"584 189 OFFCURVE",
"584 204 QCURVE SMOOTH",
"584 237 OFFCURVE",
"536 286 OFFCURVE",
"503 286 QCURVE SMOOTH",
"379 286 LINE",
"379 410 LINE",
"510 410 LINE SMOOTH",
"526 410 OFFCURVE",
"553 425 OFFCURVE",
"573 451 OFFCURVE",
"584 482 OFFCURVE",
"584 499 QCURVE SMOOTH",
"584 512 OFFCURVE",
"570 539 OFFCURVE",
"549 560 OFFCURVE",
"522 573 OFFCURVE",
"509 573 QCURVE SMOOTH",
"341 573 LINE",
"341 0 LINE",
"22 0 LINE",
"22 470 LINE",
"22 471 LINE",
"22 472 LINE",
"22 473 LINE",
"22 474 LINE",
"22 475 LINE",
"22 476 LINE",
"22 477 LINE",
"22 478 LINE",
"22 479 LINE",
"22 480 LINE",
"22 483 LINE",
"22 484 LINE",
"22 485 LINE",
"22 487 LINE",
"22 488 LINE",
"22 505 LINE",
"22 506 LINE",
"22 511 LINE SMOOTH",
"22 535 OFFCURVE",
"29 556 QCURVE SMOOTH",
"38 587 OFFCURVE",
"74 639 OFFCURVE",
"123 676 OFFCURVE",
"182 696 OFFCURVE",
"215 696 QCURVE SMOOTH",
"291 696 OFFCURVE",
"404 698 OFFCURVE",
"441 698 QCURVE SMOOTH",
"460 698 OFFCURVE",
"498 698 OFFCURVE",
"517 697 QCURVE"
);
}
);
width = 722;
}
);
unicode = 00DF;
},
{
glyphname = agrave;
layers = (
{
layerId = "92FC523E-9234-4103-A150-1ABFFCFEAB52";
paths = (
{
nodes = (
"243 287 LINE",
"385 287 LINE",
"320 506 LINE"
);
},
{
nodes = (
"469 0 LINE",
"409 205 LINE",
"214 205 LINE",
"141 0 LINE",
"18 0 LINE",
"264 696 LINE",
"592 696 LINE",
"838 0 LINE"
);
},
{
nodes = (
"389 927 LINE",
"521 787 LINE",
"481 735 LINE",
"314 829 LINE"
);
}
);
width = 844;
}
);
unicode = 00E0;
},
{
glyphname = aacute;
layers = (
{
layerId = "92FC523E-9234-4103-A150-1ABFFCFEAB52";
paths = (
{
nodes = (
"243 287 LINE",
"385 287 LINE",
"320 506 LINE"
);
},
{
nodes = (
"469 0 LINE",
"409 205 LINE",
"214 205 LINE",
"141 0 LINE",
"18 0 LINE",
"264 696 LINE",
"592 696 LINE",
"838 0 LINE"
);
},
{
nodes = (
"314 787 LINE",
"446 927 LINE",
"521 829 LINE",
"354 735 LINE"
);
}
);
width = 844;
}
);
unicode = 00E1;
},
{
glyphname = acircumflex;
layers = (
{
layerId = "92FC523E-9234-4103-A150-1ABFFCFEAB52";
paths = (
{
nodes = (
"243 287 LINE",
"385 287 LINE",
"320 506 LINE"
);
},
{
nodes = (
"469 0 LINE",
"409 205 LINE",
"214 205 LINE",
"141 0 LINE",
"18 0 LINE",
"264 696 LINE",
"592 696 LINE",
"838 0 LINE"
);
},
{
nodes = (
"255 787 LINE",
"387 927 LINE",
"451 927 LINE",
"583 787 LINE",
"543 735 LINE",
"419 805 LINE",
"295 735 LINE"
);
}
);
width = 844;
}
);
unicode = 00E2;
},
{
glyphname = atilde;
layers = (
{
layerId = "92FC523E-9234-4103-A150-1ABFFCFEAB52";
paths = (
{
nodes = (
"505 867 OFFCURVE",
"515 867 QCURVE SMOOTH",
"522 867 OFFCURVE",
"545 875 OFFCURVE",
"557 884 QCURVE SMOOTH",
"570 894 OFFCURVE",
"584 911 QCURVE",
"612 901 LINE",
"587 832 OFFCURVE",
"532 767 OFFCURVE",
"509 755 QCURVE SMOOTH",
"490 745 OFFCURVE",
"471 745 QCURVE SMOOTH",
"465 745 OFFCURVE",
"455 747 QCURVE",
"434 755 OFFCURVE",
"408 764 OFFCURVE",
"385 773 OFFCURVE",
"358 783 OFFCURVE",
"335 792 QCURVE SMOOTH",
"326 795 OFFCURVE",
"318 795 QCURVE SMOOTH",
"310 795 OFFCURVE",
"286 787 OFFCURVE",
"274 778 QCURVE SMOOTH",
"262 769 OFFCURVE",
"247 752 QCURVE",
"219 761 LINE",
"244 829 OFFCURVE",
"299 895 OFFCURVE",
"322 907 QCURVE SMOOTH",
"341 917 OFFCURVE",
"360 917 QCURVE SMOOTH",
"366 917 OFFCURVE",
"376 915 QCURVE",
"397 907 OFFCURVE",
"424 897 OFFCURVE",
"447 888 OFFCURVE",
"474 879 OFFCURVE",
"496 871 QCURVE SMOOTH"
);
},
{
nodes = (
"408 212 LINE",
"216 212 LINE",
"141 2 LINE",
"141 7 LINE",
"21 7 LINE",
"264 694 LINE",
"264 689 LINE",
"592 689 LINE",
"592 694 LINE",
"652 521 OFFCURVE",
"775 180 OFFCURVE",
"835 7 QCURVE",
"469 7 LINE",
"469 2 LINE"
);
},
{
nodes = (
"388 280 LINE",
"320 508 LINE",
"240 280 LINE"
);
}
);
width = 844;
}
);
unicode = 00E3;
},
{
glyphname = adieresis;
layers = (
{
layerId = "92FC523E-9234-4103-A150-1ABFFCFEAB52";
paths = (
{
nodes = (
"240 836 OFFCURVE",
"282 878 OFFCURVE",
"311 878 QCURVE SMOOTH",
"340 878 OFFCURVE",
"382 836 OFFCURVE",
"382 807 QCURVE SMOOTH",
"382 778 OFFCURVE",
"340 736 OFFCURVE",
"311 736 QCURVE SMOOTH",
"282 736 OFFCURVE",
"240 778 OFFCURVE",
"240 807 QCURVE SMOOTH"
);
},
{
nodes = (
"451 836 OFFCURVE",
"493 878 OFFCURVE",
"522 878 QCURVE SMOOTH",
"551 878 OFFCURVE",
"593 836 OFFCURVE",
"593 807 QCURVE SMOOTH",
"593 778 OFFCURVE",
"551 736 OFFCURVE",
"522 736 QCURVE SMOOTH",
"493 736 OFFCURVE",
"451 778 OFFCURVE",
"451 807 QCURVE SMOOTH"
);
},
{
nodes = (
"409 205 LINE",
"214 205 LINE",
"141 0 LINE",
"18 0 LINE",
"264 696 LINE",
"592 696 LINE",
"838 0 LINE",
"469 0 LINE"
);
},
{
nodes = (
"385 287 LINE",
"320 506 LINE",
"243 287 LINE"
);
}
);
width = 844;
}
);
unicode = 00E4;
},
{
glyphname = aring;
layers = (
{
layerId = "92FC523E-9234-4103-A150-1ABFFCFEAB52";
paths = (
{
nodes = (
"387 738 OFFCURVE",
"350 754 OFFCURVE",
"321 781 OFFCURVE",
"305 817 OFFCURVE",
"305 837 QCURVE SMOOTH",
"305 857 OFFCURVE",
"321 894 OFFCURVE",
"350 921 OFFCURVE",
"387 937 OFFCURVE",
"408 937 QCURVE SMOOTH",
"429 937 OFFCURVE",
"467 921 OFFCURVE",
"494 894 OFFCURVE",
"510 857 OFFCURVE",
"510 837 QCURVE SMOOTH",
"510 817 OFFCURVE",
"494 781 OFFCURVE",
"467 754 OFFCURVE",
"429 738 OFFCURVE",
"408 738 QCURVE SMOOTH"
);
},
{
nodes = (
"395 868 OFFCURVE",
"376 850 OFFCURVE",
"376 837 QCURVE SMOOTH",
"376 825 OFFCURVE",
"395 806 OFFCURVE",
"408 806 QCURVE SMOOTH",
"422 806 OFFCURVE",
"439 825 OFFCURVE",
"439 837 QCURVE SMOOTH",
"439 850 OFFCURVE",
"422 868 OFFCURVE",
"408 868 QCURVE SMOOTH"
);
},
{
nodes = (
"409 205 LINE",
"214 205 LINE",
"141 0 LINE",
"18 0 LINE",
"264 696 LINE",
"592 696 LINE",
"838 0 LINE",
"469 0 LINE"
);
},
{
nodes = (
"385 287 LINE",
"320 506 LINE",
"243 287 LINE"
);
}
);
width = 844;
}
);
unicode = 00E5;
},
{
glyphname = ae;
layers = (
{
layerId = "92FC523E-9234-4103-A150-1ABFFCFEAB52";
paths = (
{
nodes = (
"367 287 LINE",
"535 287 LINE",
"535 497 LINE"
);
},
{
nodes = (
"862 573 LINE",
"862 410 LINE",
"1067 410 LINE",
"1067 328 LINE",
"862 328 LINE",
"862 123 LINE",
"1108 123 LINE",
"1108 0 LINE",
"535 0 LINE",
"535 205 LINE",
"297 205 LINE",
"141 0 LINE",
"18 0 LINE",
"535 693 LINE",
"535 696 LINE",
"1108 696 LINE",
"1108 573 LINE"
);
}
);
width = 1127;
}
);
unicode = 00E6;
},
{
glyphname = ccedilla;
layers = (
{
layerId = "92FC523E-9234-4103-A150-1ABFFCFEAB52";
paths = (
{
nodes = (
"524 696 LINE SMOOTH",
"563 696 OFFCURVE",
"630 660 OFFCURVE",
"680 601 OFFCURVE",
"709 528 OFFCURVE",
"710 492 QCURVE",
"587 492 LINE",
"587 494 LINE",
"587 495 LINE",
"587 496 LINE",
"587 508 OFFCURVE",
"575 535 OFFCURVE",
"555 558 OFFCURVE",
"528 573 OFFCURVE",
"513 573 QCURVE SMOOTH",
"382 573 LINE",
"382 123 LINE",
"513 123 LINE SMOOTH",
"528 123 OFFCURVE",
"555 138 OFFCURVE",
"575 162 OFFCURVE",
"587 189 OFFCURVE",
"587 201 QCURVE",
"587 203 LINE",
"587 204 LINE",
"587 205 LINE",
"710 205 LINE",
"709 163 OFFCURVE",
"677 88 OFFCURVE",
"623 32 OFFCURVE",
"549 0 OFFCURVE",
"506 0 QCURVE SMOOTH",
"376 0 LINE",
"370 -27 LINE",
"377 -26 OFFCURVE",
"390 -26 OFFCURVE",
"397 -26 QCURVE SMOOTH",
"429 -26 OFFCURVE",
"490 -46 OFFCURVE",
"506 -66 QCURVE SMOOTH",
"522 -85 OFFCURVE",
"522 -107 QCURVE",
"522 -109 OFFCURVE",
"523 -119 OFFCURVE",
"518 -134 OFFCURVE",
"506 -156 OFFCURVE",
"493 -169 QCURVE SMOOTH",
"466 -197 OFFCURVE",
"399 -227 OFFCURVE",
"370 -234 QCURVE",
"335 -245 OFFCURVE",
"302 -246 QCURVE",
"290 -198 LINE",
"309 -193 OFFCURVE",
"343 -182 OFFCURVE",
"357 -177 QCURVE",
"383 -163 OFFCURVE",
"416 -140 OFFCURVE",
"416 -125 QCURVE",
"416 -124 LINE",
"416 -123 LINE",
"416 -122 LINE",
"416 -121 LINE",
"411 -103 OFFCURVE",
"375 -86 OFFCURVE",
"355 -83 QCURVE",
"330 -81 OFFCURVE",
"291 -79 OFFCURVE",
"277 -79 QCURVE",
"297 0 LINE",
"200 0 LINE SMOOTH",
"161 0 OFFCURVE",
"94 37 OFFCURVE",
"43 95 OFFCURVE",
"14 169 OFFCURVE",
"14 205 QCURVE SMOOTH",
"14 492 LINE SMOOTH",
"14 528 OFFCURVE",
"43 601 OFFCURVE",
"94 659 OFFCURVE",
"161 696 OFFCURVE",
"200 696 QCURVE SMOOTH"
);
}
);
width = 723;
}
);
unicode = 00E7;
},
{
glyphname = egrave;
layers = (
{
layerId = "92FC523E-9234-4103-A150-1ABFFCFEAB52";
paths = (
{
nodes = (
"349 410 LINE",
"554 410 LINE",
"554 328 LINE",
"349 328 LINE",
"349 123 LINE",
"595 123 LINE",
"595 0 LINE",
"22 0 LINE",
"22 696 LINE",
"595 696 LINE",
"595 573 LINE",
"349 573 LINE"
);
},
{
nodes = (
"397 786 LINE",
"357 734 LINE",
"190 828 LINE",
"265 926 LINE"
);
}
);
width = 616;
}
);
unicode = 00E8;
},
{
glyphname = eacute;
layers = (
{
layerId = "92FC523E-9234-4103-A150-1ABFFCFEAB52";
paths = (
{
nodes = (
"349 410 LINE",
"554 410 LINE",
"554 328 LINE",
"349 328 LINE",
"349 123 LINE",
"595 123 LINE",
"595 0 LINE",
"22 0 LINE",
"22 696 LINE",
"595 696 LINE",
"595 573 LINE",
"349 573 LINE"
);
},
{
nodes = (
"351 926 LINE",
"426 828 LINE",
"259 734 LINE",
"219 786 LINE"
);
}
);
width = 616;
}
);
unicode = 00E9;
},
{
glyphname = ecircumflex;
layers = (
{
layerId = "92FC523E-9234-4103-A150-1ABFFCFEAB52";
paths = (
{
nodes = (
"349 410 LINE",
"554 410 LINE",
"554 328 LINE",
"349 328 LINE",
"349 123 LINE",
"595 123 LINE",
"595 0 LINE",
"22 0 LINE",
"22 696 LINE",
"595 696 LINE",
"595 573 LINE",
"349 573 LINE"
);
},
{
nodes = (
"282 927 LINE",
"346 927 LINE",
"478 787 LINE",
"438 735 LINE",
"314 805 LINE",
"190 735 LINE",
"150 787 LINE"
);
}
);
width = 616;
}
);
unicode = 00EA;
},
{
glyphname = edieresis;
layers = (
{
layerId = "92FC523E-9234-4103-A150-1ABFFCFEAB52";
paths = (
{
nodes = (
"133 836 OFFCURVE",
"175 878 OFFCURVE",
"204 878 QCURVE SMOOTH",
"233 878 OFFCURVE",
"275 836 OFFCURVE",
"275 807 QCURVE SMOOTH",
"275 778 OFFCURVE",
"233 736 OFFCURVE",
"204 736 QCURVE SMOOTH",
"175 736 OFFCURVE",
"133 778 OFFCURVE",
"133 807 QCURVE SMOOTH"
);
},
{
nodes = (
"344 836 OFFCURVE",
"386 878 OFFCURVE",
"415 878 QCURVE SMOOTH",
"444 878 OFFCURVE",
"486 836 OFFCURVE",
"486 807 QCURVE SMOOTH",
"486 778 OFFCURVE",
"444 736 OFFCURVE",
"415 736 QCURVE SMOOTH",
"386 736 OFFCURVE",
"344 778 OFFCURVE",
"344 807 QCURVE SMOOTH"
);
},
{
nodes = (
"349 410 LINE",
"554 410 LINE",
"554 328 LINE",
"349 328 LINE",
"349 123 LINE",
"595 123 LINE",
"595 0 LINE",
"22 0 LINE",
"22 696 LINE",
"595 696 LINE",
"595 573 LINE",
"349 573 LINE"
);
}
);
width = 616;
}
);
unicode = 00EB;
},
{
glyphname = igrave;
layers = (
{
layerId = "92FC523E-9234-4103-A150-1ABFFCFEAB52";
paths = (
{
nodes = (
"356 696 LINE",
"356 0 LINE",
"29 0 LINE",
"29 696 LINE"
);
},
{
nodes = (
"299 787 LINE",
"259 735 LINE",
"92 829 LINE",
"167 927 LINE"
);
}
);
width = 383;
}
);
unicode = 00EC;
},
{
glyphname = iacute;
layers = (
{
layerId = "92FC523E-9234-4103-A150-1ABFFCFEAB52";
paths = (
{
nodes = (
"356 696 LINE",
"356 0 LINE",
"29 0 LINE",
"29 696 LINE"
);
},
{
nodes = (
"224 927 LINE",
"299 829 LINE",
"132 735 LINE",
"92 787 LINE"
);
}
);
width = 383;
}
);
unicode = 00ED;
},
{
glyphname = icircumflex;
layers = (
{
layerId = "92FC523E-9234-4103-A150-1ABFFCFEAB52";
paths = (
{
nodes = (
"356 696 LINE",
"356 0 LINE",
"29 0 LINE",
"29 696 LINE"
);
},
{
nodes = (
"157 927 LINE",
"221 927 LINE",
"353 787 LINE",
"313 735 LINE",
"189 805 LINE",
"65 735 LINE",
"25 787 LINE"
);
}
);
width = 383;
}
);
unicode = 00EE;
},
{
glyphname = idieresis;
layers = (
{
layerId = "92FC523E-9234-4103-A150-1ABFFCFEAB52";
paths = (
{
nodes = (
"17 836 OFFCURVE",
"59 878 OFFCURVE",
"88 878 QCURVE SMOOTH",
"117 878 OFFCURVE",
"159 836 OFFCURVE",
"159 807 QCURVE SMOOTH",
"159 778 OFFCURVE",
"117 736 OFFCURVE",
"88 736 QCURVE SMOOTH",
"59 736 OFFCURVE",
"17 778 OFFCURVE",
"17 807 QCURVE SMOOTH"
);
},
{
nodes = (
"228 836 OFFCURVE",
"270 878 OFFCURVE",
"299 878 QCURVE SMOOTH",
"328 878 OFFCURVE",
"370 836 OFFCURVE",
"370 807 QCURVE SMOOTH",
"370 778 OFFCURVE",
"328 736 OFFCURVE",
"299 736 QCURVE SMOOTH",
"270 736 OFFCURVE",
"228 778 OFFCURVE",
"228 807 QCURVE SMOOTH"
);
},
{
nodes = (
"356 696 LINE",
"356 0 LINE",
"29 0 LINE",
"29 696 LINE"
);
}
);
width = 383;
}
);
unicode = 00EF;
},
{
glyphname = eth;
layers = (
{
layerId = "92FC523E-9234-4103-A150-1ABFFCFEAB52";
paths = (
{
nodes = (
"779 205 LINE SMOOTH",
"779 163 OFFCURVE",
"747 88 OFFCURVE",
"691 32 OFFCURVE",
"616 0 OFFCURVE",
"574 0 QCURVE SMOOTH",
"83 0 LINE",
"83 287 LINE",
"24 287 LINE",
"24 410 LINE",
"83 410 LINE",
"83 697 LINE",
"574 697 LINE SMOOTH",
"616 697 OFFCURVE",
"691 664 OFFCURVE",
"746 609 OFFCURVE",
"779 534 OFFCURVE",
"779 492 QCURVE SMOOTH"
);
},
{
nodes = (
"656 499 LINE SMOOTH",
"656 512 OFFCURVE",
"642 539 OFFCURVE",
"621 560 OFFCURVE",
"595 573 OFFCURVE",
"582 573 QCURVE SMOOTH",
"410 573 LINE",
"410 410 LINE",
"522 410 LINE",
"522 287 LINE",
"410 287 LINE",
"410 123 LINE",
"582 123 LINE SMOOTH",
"595 123 OFFCURVE",
"621 137 OFFCURVE",
"642 158 OFFCURVE",
"656 184 OFFCURVE",
"656 197 QCURVE SMOOTH"
);
}
);
width = 807;
}
);
unicode = 00F0;
},
{
glyphname = ntilde;
layers = (
{
layerId = "92FC523E-9234-4103-A150-1ABFFCFEAB52";
paths = (
{
nodes = (
"505 867 OFFCURVE",
"515 867 QCURVE SMOOTH",
"522 867 OFFCURVE",
"545 875 OFFCURVE",
"557 884 QCURVE SMOOTH",
"570 894 OFFCURVE",
"584 911 QCURVE",
"612 901 LINE",
"587 832 OFFCURVE",
"532 767 OFFCURVE",
"509 755 QCURVE SMOOTH",
"490 745 OFFCURVE",
"471 745 QCURVE SMOOTH",
"465 745 OFFCURVE",
"455 747 QCURVE",
"434 755 OFFCURVE",
"408 764 OFFCURVE",
"385 773 OFFCURVE",
"358 783 OFFCURVE",
"335 792 QCURVE SMOOTH",
"326 795 OFFCURVE",
"318 795 QCURVE SMOOTH",
"310 795 OFFCURVE",
"286 787 OFFCURVE",
"274 778 QCURVE SMOOTH",
"262 769 OFFCURVE",
"247 752 QCURVE",
"219 761 LINE",
"244 829 OFFCURVE",
"299 895 OFFCURVE",
"322 907 QCURVE SMOOTH",
"341 917 OFFCURVE",
"360 917 QCURVE SMOOTH",
"366 917 OFFCURVE",
"376 915 QCURVE",
"397 907 OFFCURVE",
"424 897 OFFCURVE",
"447 888 OFFCURVE",
"474 879 OFFCURVE",
"496 871 QCURVE SMOOTH"
);
},
{
nodes = (
"395 697 LINE",
"641 232 LINE",
"641 697 LINE",
"763 697 LINE",
"763 0 LINE",
"641 0 LINE",
"395 464 LINE",
"395 0 LINE",
"26 0 LINE",
"26 697 LINE"
);
}
);
width = 794;
}
);
unicode = 00F1;
},
{
glyphname = ograve;
layers = (
{
layerId = "92FC523E-9234-4103-A150-1ABFFCFEAB52";
paths = (
{
nodes = (
"508 787 LINE",
"468 735 LINE",
"301 829 LINE",
"376 927 LINE"
);
},
{
nodes = (
"719 186 LINE SMOOTH",
"719 148 OFFCURVE",
"683 80 OFFCURVE",
"624 29 OFFCURVE",
"551 0 OFFCURVE",
"515 0 QCURVE",
"210 1 LINE",
"171 1 OFFCURVE",
"103 37 OFFCURVE",
"52 95 OFFCURVE",
"23 168 OFFCURVE",
"23 205 QCURVE SMOOTH",
"23 510 LINE SMOOTH",
"23 543 OFFCURVE",
"57 609 OFFCURVE",
"110 663 OFFCURVE",
"177 696 OFFCURVE",
"210 696 QCURVE SMOOTH",
"533 696 LINE SMOOTH",
"571 696 OFFCURVE",
"639 659 OFFCURVE",
"690 601 OFFCURVE",
"719 528 OFFCURVE",
"719 492 QCURVE SMOOTH"
);
},
{
nodes = (
"596 492 LINE SMOOTH",
"596 507 OFFCURVE",
"584 536 OFFCURVE",
"564 559 OFFCURVE",
"537 573 OFFCURVE",
"522 573 QCURVE SMOOTH",
"392 573 LINE",
"392 123 LINE",
"522 123 LINE SMOOTH",
"535 123 OFFCURVE",
"562 136 OFFCURVE",
"583 157 OFFCURVE",
"596 183 OFFCURVE",
"596 197 QCURVE SMOOTH"
);
}
);
width = 744;
}
);
unicode = 00F2;
},
{
glyphname = oacute;
layers = (
{
layerId = "92FC523E-9234-4103-A150-1ABFFCFEAB52";
paths = (
{
nodes = (
"433 927 LINE",
"508 829 LINE",
"341 735 LINE",
"301 787 LINE"
);
},
{
nodes = (
"719 186 LINE SMOOTH",
"719 148 OFFCURVE",
"683 80 OFFCURVE",
"624 29 OFFCURVE",
"551 0 OFFCURVE",
"515 0 QCURVE",
"210 1 LINE",
"171 1 OFFCURVE",
"103 37 OFFCURVE",
"52 95 OFFCURVE",
"23 168 OFFCURVE",
"23 205 QCURVE SMOOTH",
"23 510 LINE SMOOTH",
"23 543 OFFCURVE",
"57 609 OFFCURVE",
"110 663 OFFCURVE",
"177 696 OFFCURVE",
"210 696 QCURVE SMOOTH",
"533 696 LINE SMOOTH",
"571 696 OFFCURVE",
"639 659 OFFCURVE",
"690 601 OFFCURVE",
"719 528 OFFCURVE",
"719 492 QCURVE SMOOTH"
);
},
{
nodes = (
"596 492 LINE SMOOTH",
"596 507 OFFCURVE",
"584 536 OFFCURVE",
"564 559 OFFCURVE",
"537 573 OFFCURVE",
"522 573 QCURVE SMOOTH",
"392 573 LINE",
"392 123 LINE",
"522 123 LINE SMOOTH",
"535 123 OFFCURVE",
"562 136 OFFCURVE",
"583 157 OFFCURVE",
"596 183 OFFCURVE",
"596 197 QCURVE SMOOTH"
);
}
);
width = 744;
}
);
unicode = 00F3;
},
{
glyphname = ocircumflex;
layers = (
{
layerId = "92FC523E-9234-4103-A150-1ABFFCFEAB52";
paths = (
{
nodes = (
"342 927 LINE",
"406 927 LINE",
"538 787 LINE",
"498 735 LINE",
"374 805 LINE",
"250 735 LINE",
"210 787 LINE"
);
},
{
nodes = (
"719 186 LINE SMOOTH",
"719 148 OFFCURVE",
"683 80 OFFCURVE",
"624 29 OFFCURVE",
"551 0 OFFCURVE",
"515 0 QCURVE",
"210 1 LINE",
"171 1 OFFCURVE",
"103 37 OFFCURVE",
"52 95 OFFCURVE",
"23 168 OFFCURVE",
"23 205 QCURVE SMOOTH",
"23 510 LINE SMOOTH",
"23 543 OFFCURVE",
"57 609 OFFCURVE",
"110 663 OFFCURVE",
"177 696 OFFCURVE",
"210 696 QCURVE SMOOTH",
"533 696 LINE SMOOTH",
"571 696 OFFCURVE",
"639 659 OFFCURVE",
"690 601 OFFCURVE",
"719 528 OFFCURVE",
"719 492 QCURVE SMOOTH"
);
},
{
nodes = (
"596 492 LINE SMOOTH",
"596 507 OFFCURVE",
"584 536 OFFCURVE",
"564 559 OFFCURVE",
"537 573 OFFCURVE",
"522 573 QCURVE SMOOTH",
"392 573 LINE",
"392 123 LINE",
"522 123 LINE SMOOTH",
"535 123 OFFCURVE",
"562 136 OFFCURVE",
"583 157 OFFCURVE",
"596 183 OFFCURVE",
"596 197 QCURVE SMOOTH"
);
}
);
width = 744;
}
);
unicode = 00F4;
},
{
glyphname = otilde;
layers = (
{
layerId = "92FC523E-9234-4103-A150-1ABFFCFEAB52";
paths = (
{
nodes = (
"466 867 OFFCURVE",
"476 867 QCURVE SMOOTH",
"483 867 OFFCURVE",
"506 875 OFFCURVE",
"518 884 QCURVE SMOOTH",
"531 894 OFFCURVE",
"545 911 QCURVE",
"573 901 LINE",
"548 832 OFFCURVE",
"493 767 OFFCURVE",
"470 755 QCURVE SMOOTH",
"451 745 OFFCURVE",
"432 745 QCURVE SMOOTH",
"426 745 OFFCURVE",
"416 747 QCURVE",
"395 755 OFFCURVE",
"369 764 OFFCURVE",
"346 773 OFFCURVE",
"319 783 OFFCURVE",
"296 792 QCURVE SMOOTH",
"287 795 OFFCURVE",
"279 795 QCURVE SMOOTH",
"271 795 OFFCURVE",
"247 787 OFFCURVE",
"235 778 QCURVE SMOOTH",
"223 769 OFFCURVE",
"208 752 QCURVE",
"180 761 LINE",
"205 829 OFFCURVE",
"260 895 OFFCURVE",
"283 907 QCURVE SMOOTH",
"302 917 OFFCURVE",
"321 917 QCURVE SMOOTH",
"327 917 OFFCURVE",
"337 915 QCURVE",
"358 907 OFFCURVE",
"385 897 OFFCURVE",
"408 888 OFFCURVE",
"435 879 OFFCURVE",
"457 871 QCURVE SMOOTH"
);
},
{
nodes = (
"719 186 LINE SMOOTH",
"719 148 OFFCURVE",
"683 80 OFFCURVE",
"624 29 OFFCURVE",
"551 0 OFFCURVE",
"515 0 QCURVE",
"210 1 LINE",
"171 1 OFFCURVE",
"103 37 OFFCURVE",
"52 95 OFFCURVE",
"23 168 OFFCURVE",
"23 205 QCURVE SMOOTH",
"23 510 LINE SMOOTH",
"23 543 OFFCURVE",
"57 609 OFFCURVE",
"110 663 OFFCURVE",
"177 696 OFFCURVE",
"210 696 QCURVE SMOOTH",
"533 696 LINE SMOOTH",
"571 696 OFFCURVE",
"639 659 OFFCURVE",
"690 601 OFFCURVE",
"719 528 OFFCURVE",
"719 492 QCURVE SMOOTH"
);
},
{
nodes = (
"596 492 LINE SMOOTH",
"596 507 OFFCURVE",
"584 536 OFFCURVE",
"564 559 OFFCURVE",
"537 573 OFFCURVE",
"522 573 QCURVE SMOOTH",
"392 573 LINE",
"392 123 LINE",
"522 123 LINE SMOOTH",
"535 123 OFFCURVE",
"562 136 OFFCURVE",
"583 157 OFFCURVE",
"596 183 OFFCURVE",
"596 197 QCURVE SMOOTH"
);
}
);
width = 744;
}
);
unicode = 00F5;
},
{
glyphname = odieresis;
layers = (
{
layerId = "92FC523E-9234-4103-A150-1ABFFCFEAB52";
paths = (
{
nodes = (
"197 836 OFFCURVE",
"239 878 OFFCURVE",
"268 878 QCURVE SMOOTH",
"297 878 OFFCURVE",
"339 836 OFFCURVE",
"339 807 QCURVE SMOOTH",
"339 778 OFFCURVE",
"297 736 OFFCURVE",
"268 736 QCURVE SMOOTH",
"239 736 OFFCURVE",
"197 778 OFFCURVE",
"197 807 QCURVE SMOOTH"
);
},
{
nodes = (
"408 836 OFFCURVE",
"450 878 OFFCURVE",
"479 878 QCURVE SMOOTH",
"508 878 OFFCURVE",
"550 836 OFFCURVE",
"550 807 QCURVE SMOOTH",
"550 778 OFFCURVE",
"508 736 OFFCURVE",
"479 736 QCURVE SMOOTH",
"450 736 OFFCURVE",
"408 778 OFFCURVE",
"408 807 QCURVE SMOOTH"
);
},
{
nodes = (
"719 186 LINE SMOOTH",
"719 148 OFFCURVE",
"683 80 OFFCURVE",
"624 29 OFFCURVE",
"551 0 OFFCURVE",
"515 0 QCURVE",
"210 1 LINE",
"171 1 OFFCURVE",
"103 37 OFFCURVE",
"52 95 OFFCURVE",
"23 168 OFFCURVE",
"23 205 QCURVE SMOOTH",
"23 510 LINE SMOOTH",
"23 543 OFFCURVE",
"57 609 OFFCURVE",
"110 663 OFFCURVE",
"177 696 OFFCURVE",
"210 696 QCURVE SMOOTH",
"533 696 LINE SMOOTH",
"571 696 OFFCURVE",
"639 659 OFFCURVE",
"690 601 OFFCURVE",
"719 528 OFFCURVE",
"719 492 QCURVE SMOOTH"
);
},
{
nodes = (
"596 492 LINE SMOOTH",
"596 507 OFFCURVE",
"584 536 OFFCURVE",
"564 559 OFFCURVE",
"537 573 OFFCURVE",
"522 573 QCURVE SMOOTH",
"392 573 LINE",
"392 123 LINE",
"522 123 LINE SMOOTH",
"535 123 OFFCURVE",
"562 136 OFFCURVE",
"583 157 OFFCURVE",
"596 183 OFFCURVE",
"596 197 QCURVE SMOOTH"
);
}
);
width = 744;
}
);
unicode = 00F6;
},
{
glyphname = divide;
layers = (
{
layerId = "92FC523E-9234-4103-A150-1ABFFCFEAB52";
paths = (
{
nodes = (
"202 553 OFFCURVE",
"247 599 OFFCURVE",
"279 599 QCURVE SMOOTH",
"311 599 OFFCURVE",
"357 553 OFFCURVE",
"357 521 QCURVE SMOOTH",
"357 489 OFFCURVE",
"311 444 OFFCURVE",
"279 444 QCURVE SMOOTH",
"247 444 OFFCURVE",
"202 489 OFFCURVE",
"202 521 QCURVE SMOOTH"
);
},
{
nodes = (
"520 406 LINE",
"520 283 LINE",
"36 283 LINE",
"36 406 LINE"
);
},
{
nodes = (
"202 190 OFFCURVE",
"247 236 OFFCURVE",
"279 236 QCURVE SMOOTH",
"311 236 OFFCURVE",
"357 190 OFFCURVE",
"357 158 QCURVE SMOOTH",
"357 126 OFFCURVE",
"311 81 OFFCURVE",
"279 81 QCURVE SMOOTH",
"247 81 OFFCURVE",
"202 126 OFFCURVE",
"202 158 QCURVE SMOOTH"
);
}
);
width = 558;
}
);
unicode = 00F7;
},
{
glyphname = oslash;
layers = (
{
layerId = "92FC523E-9234-4103-A150-1ABFFCFEAB52";
paths = (
{
nodes = (
"719 186 LINE SMOOTH",
"719 148 OFFCURVE",
"683 80 OFFCURVE",
"624 29 OFFCURVE",
"551 0 OFFCURVE",
"515 0 QCURVE SMOOTH",
"406 0 LINE",
"374 -99 LINE",
"288 -71 LINE",
"311 1 LINE",
"210 1 LINE SMOOTH",
"171 1 OFFCURVE",
"103 37 OFFCURVE",
"52 95 OFFCURVE",
"23 168 OFFCURVE",
"23 205 QCURVE SMOOTH",
"23 510 LINE SMOOTH",
"23 543 OFFCURVE",
"57 609 OFFCURVE",
"110 663 OFFCURVE",
"177 696 OFFCURVE",
"210 696 QCURVE SMOOTH",
"534 696 LINE",
"536 696 LINE",
"537 696 LINE",
"538 696 LINE",
"565 778 LINE",
"651 750 LINE",
"624 666 LINE",
"635 658 OFFCURVE",
"655 641 OFFCURVE",
"665 630 QCURVE SMOOTH",
"690 601 OFFCURVE",
"719 528 OFFCURVE",
"719 492 QCURVE SMOOTH"
);
},
{
nodes = (
"392 248 LINE",
"498 573 LINE",
"392 573 LINE"
);
},
{
nodes = (
"596 492 LINE SMOOTH",
"596 507 OFFCURVE",
"590 522 QCURVE SMOOTH",
"588 526 OFFCURVE",
"584 533 OFFCURVE",
"582 537 QCURVE",
"446 123 LINE",
"522 123 LINE SMOOTH",
"535 123 OFFCURVE",
"562 136 OFFCURVE",
"583 157 OFFCURVE",
"596 183 OFFCURVE",
"596 197 QCURVE SMOOTH"
);
}
);
width = 744;
}
);
unicode = 00F8;
},
{
glyphname = ugrave;
layers = (
{
layerId = "92FC523E-9234-4103-A150-1ABFFCFEAB52";
paths = (
{
nodes = (
"509 787 LINE",
"469 735 LINE",
"302 829 LINE",
"377 927 LINE"
);
},
{
nodes = (
"732 696 LINE",
"732 185 LINE SMOOTH",
"732 152 OFFCURVE",
"699 86 OFFCURVE",
"645 33 OFFCURVE",
"579 0 OFFCURVE",
"546 0 QCURVE",
"241 -1 LINE",
"205 -1 OFFCURVE",
"132 28 OFFCURVE",
"73 79 OFFCURVE",
"37 147 OFFCURVE",
"37 185 QCURVE SMOOTH",
"37 696 LINE",
"405 696 LINE",
"405 122 LINE",
"535 122 LINE SMOOTH",
"548 122 OFFCURVE",
"575 135 OFFCURVE",
"596 156 OFFCURVE",
"609 182 OFFCURVE",
"609 196 QCURVE SMOOTH",
"609 696 LINE"
);
}
);
width = 761;
}
);
unicode = 00F9;
},
{
glyphname = uacute;
layers = (
{
layerId = "92FC523E-9234-4103-A150-1ABFFCFEAB52";
paths = (
{
nodes = (
"434 927 LINE",
"509 829 LINE",
"342 735 LINE",
"302 787 LINE"
);
},
{
nodes = (
"732 696 LINE",
"732 185 LINE SMOOTH",
"732 152 OFFCURVE",
"699 86 OFFCURVE",
"645 33 OFFCURVE",
"579 0 OFFCURVE",
"546 0 QCURVE",
"241 -1 LINE",
"205 -1 OFFCURVE",
"132 28 OFFCURVE",
"73 79 OFFCURVE",
"37 147 OFFCURVE",
"37 185 QCURVE SMOOTH",
"37 696 LINE",
"405 696 LINE",
"405 122 LINE",
"535 122 LINE SMOOTH",
"548 122 OFFCURVE",
"575 135 OFFCURVE",
"596 156 OFFCURVE",
"609 182 OFFCURVE",
"609 196 QCURVE SMOOTH",
"609 696 LINE"
);
}
);
width = 761;
}
);
unicode = 00FA;
},
{
glyphname = ucircumflex;
layers = (
{
layerId = "92FC523E-9234-4103-A150-1ABFFCFEAB52";
paths = (
{
nodes = (
"369 927 LINE",
"433 927 LINE",
"565 787 LINE",
"525 735 LINE",
"401 805 LINE",
"277 735 LINE",
"237 787 LINE"
);
},
{
nodes = (
"732 696 LINE",
"732 185 LINE SMOOTH",
"732 152 OFFCURVE",
"699 86 OFFCURVE",
"645 33 OFFCURVE",
"579 0 OFFCURVE",
"546 0 QCURVE",
"241 -1 LINE",
"205 -1 OFFCURVE",
"132 28 OFFCURVE",
"73 79 OFFCURVE",
"37 147 OFFCURVE",
"37 185 QCURVE SMOOTH",
"37 696 LINE",
"405 696 LINE",
"405 122 LINE",
"535 122 LINE SMOOTH",
"548 122 OFFCURVE",
"575 135 OFFCURVE",
"596 156 OFFCURVE",
"609 182 OFFCURVE",
"609 196 QCURVE SMOOTH",
"609 696 LINE"
);
}
);
width = 761;
}
);
unicode = 00FB;
},
{
glyphname = udieresis;
layers = (
{
layerId = "92FC523E-9234-4103-A150-1ABFFCFEAB52";
paths = (
{
nodes = (
"211 836 OFFCURVE",
"253 878 OFFCURVE",
"282 878 QCURVE SMOOTH",
"311 878 OFFCURVE",
"353 836 OFFCURVE",
"353 807 QCURVE SMOOTH",
"353 778 OFFCURVE",
"311 736 OFFCURVE",
"282 736 QCURVE SMOOTH",
"253 736 OFFCURVE",
"211 778 OFFCURVE",
"211 807 QCURVE SMOOTH"
);
},
{
nodes = (
"422 836 OFFCURVE",
"464 878 OFFCURVE",
"493 878 QCURVE SMOOTH",
"522 878 OFFCURVE",
"564 836 OFFCURVE",
"564 807 QCURVE SMOOTH",
"564 778 OFFCURVE",
"522 736 OFFCURVE",
"493 736 QCURVE SMOOTH",
"464 736 OFFCURVE",
"422 778 OFFCURVE",
"422 807 QCURVE SMOOTH"
);
},
{
nodes = (
"732 696 LINE",
"732 185 LINE SMOOTH",
"732 152 OFFCURVE",
"699 86 OFFCURVE",
"645 33 OFFCURVE",
"579 0 OFFCURVE",
"546 0 QCURVE",
"241 -1 LINE",
"205 -1 OFFCURVE",
"132 28 OFFCURVE",
"73 79 OFFCURVE",
"37 147 OFFCURVE",
"37 185 QCURVE SMOOTH",
"37 696 LINE",
"405 696 LINE",
"405 122 LINE",
"535 122 LINE SMOOTH",
"548 122 OFFCURVE",
"575 135 OFFCURVE",
"596 156 OFFCURVE",
"609 182 OFFCURVE",
"609 196 QCURVE SMOOTH",
"609 696 LINE"
);
}
);
width = 761;
}
);
unicode = 00FC;
},
{
glyphname = thorn;
layers = (
{
layerId = "92FC523E-9234-4103-A150-1ABFFCFEAB52";
paths = (
{
nodes = (
"449 265 LINE SMOOTH",
"449 237 OFFCURVE",
"426 188 OFFCURVE",
"387 152 OFFCURVE",
"334 131 OFFCURVE",
"304 131 QCURVE SMOOTH",
"212 131 LINE",
"212 0 LINE",
"17 0 LINE",
"17 698 LINE",
"212 698 LINE",
"212 570 LINE",
"304 570 LINE SMOOTH",
"334 570 OFFCURVE",
"387 549 OFFCURVE",
"426 513 OFFCURVE",
"449 464 OFFCURVE",
"449 436 QCURVE SMOOTH"
);
},
{
nodes = (
"345 440 LINE SMOOTH",
"345 451 OFFCURVE",
"321 473 OFFCURVE",
"309 473 QCURVE SMOOTH",
"212 473 LINE",
"212 228 LINE",
"309 228 LINE SMOOTH",
"321 228 OFFCURVE",
"345 249 OFFCURVE",
"345 260 QCURVE SMOOTH"
);
}
);
width = 466;
}
);
unicode = 00FE;
},
{
glyphname = ydieresis;
layers = (
{
layerId = "92FC523E-9234-4103-A150-1ABFFCFEAB52";
paths = (
{
nodes = (
"140 696 LINE",
"243 405 LINE",
"345 696 LINE",
"672 696 LINE",
"493 187 LINE",
"493 0 LINE",
"182 0 LINE",
"182 231 LINE",
"18 696 LINE"
);
},
{
nodes = (
"321 778 OFFCURVE",
"279 736 OFFCURVE",
"250 736 QCURVE SMOOTH",
"221 736 OFFCURVE",
"179 778 OFFCURVE",
"179 807 QCURVE SMOOTH",
"179 836 OFFCURVE",
"221 878 OFFCURVE",
"250 878 QCURVE SMOOTH",
"279 878 OFFCURVE",
"321 836 OFFCURVE",
"321 807 QCURVE SMOOTH"
);
},
{
nodes = (
"532 778 OFFCURVE",
"490 736 OFFCURVE",
"461 736 QCURVE SMOOTH",
"432 736 OFFCURVE",
"390 778 OFFCURVE",
"390 807 QCURVE SMOOTH",
"390 836 OFFCURVE",
"432 878 OFFCURVE",
"461 878 QCURVE SMOOTH",
"490 878 OFFCURVE",
"532 836 OFFCURVE",
"532 807 QCURVE SMOOTH"
);
}
);
width = 689;
}
);
unicode = 00FF;
},
{
glyphname = Amacron;
layers = (
{
layerId = "92FC523E-9234-4103-A150-1ABFFCFEAB52";
paths = (
{
nodes = (
"243 287 LINE",
"385 287 LINE",
"320 506 LINE"
);
},
{
nodes = (
"469 0 LINE",
"409 205 LINE",
"214 205 LINE",
"141 0 LINE",
"18 0 LINE",
"264 696 LINE",
"592 696 LINE",
"838 0 LINE"
);
},
{
nodes = (
"251 830 LINE",
"608 830 LINE",
"608 740 LINE",
"251 740 LINE"
);
}
);
width = 844;
}
);
unicode = 0100;
},
{
glyphname = amacron;
layers = (
{
layerId = "92FC523E-9234-4103-A150-1ABFFCFEAB52";
paths = (
{
nodes = (
"243 287 LINE",
"385 287 LINE",
"320 506 LINE"
);
},
{
nodes = (
"469 0 LINE",
"409 205 LINE",
"214 205 LINE",
"141 0 LINE",
"18 0 LINE",
"264 696 LINE",
"592 696 LINE",
"838 0 LINE"
);
},
{
nodes = (
"251 830 LINE",
"608 830 LINE",
"608 740 LINE",
"251 740 LINE"
);
}
);
width = 844;
}
);
unicode = 0101;
},
{
glyphname = Abreve;
layers = (
{
layerId = "92FC523E-9234-4103-A150-1ABFFCFEAB52";
paths = (
{
nodes = (
"584 905 LINE",
"584 859 LINE",
"573 828 OFFCURVE",
"555 804 QCURVE SMOOTH",
"538 783 OFFCURVE",
"478 745 OFFCURVE",
"430 743 QCURVE",
"377 745 OFFCURVE",
"314 783 OFFCURVE",
"296 804 QCURVE SMOOTH",
"275 830 OFFCURVE",
"266 859 QCURVE",
"266 905 LINE",
"310 905 LINE",
"310 882 LINE SMOOTH",
"310 872 OFFCURVE",
"339 858 OFFCURVE",
"378 849 OFFCURVE",
"416 844 OFFCURVE",
"425 844 QCURVE SMOOTH",
"433 844 OFFCURVE",
"470 849 OFFCURVE",
"509 858 OFFCURVE",
"539 872 OFFCURVE",
"540 882 QCURVE",
"540 905 LINE"
);
},
{
nodes = (
"409 205 LINE",
"214 205 LINE",
"141 0 LINE",
"18 0 LINE",
"264 696 LINE",
"592 696 LINE",
"838 0 LINE",
"469 0 LINE"
);
},
{
nodes = (
"385 287 LINE",
"320 506 LINE",
"243 287 LINE"
);
}
);
width = 844;
}
);
unicode = 0102;
},
{
glyphname = abreve;
layers = (
{
layerId = "92FC523E-9234-4103-A150-1ABFFCFEAB52";
paths = (
{
nodes = (
"584 905 LINE",
"584 859 LINE",
"573 828 OFFCURVE",
"555 804 QCURVE SMOOTH",
"538 783 OFFCURVE",
"478 745 OFFCURVE",
"430 743 QCURVE",
"377 745 OFFCURVE",
"314 783 OFFCURVE",
"296 804 QCURVE SMOOTH",
"275 830 OFFCURVE",
"266 859 QCURVE",
"266 905 LINE",
"310 905 LINE",
"310 882 LINE SMOOTH",
"310 872 OFFCURVE",
"339 858 OFFCURVE",
"378 849 OFFCURVE",
"416 844 OFFCURVE",
"425 844 QCURVE SMOOTH",
"433 844 OFFCURVE",
"470 849 OFFCURVE",
"509 858 OFFCURVE",
"539 872 OFFCURVE",
"540 882 QCURVE",
"540 905 LINE"
);
},
{
nodes = (
"409 205 LINE",
"214 205 LINE",
"141 0 LINE",
"18 0 LINE",
"264 696 LINE",
"592 696 LINE",
"838 0 LINE",
"469 0 LINE"
);
},
{
nodes = (
"385 287 LINE",
"320 506 LINE",
"243 287 LINE"
);
}
);
width = 844;
}
);
unicode = 0103;
},
{
glyphname = Aogonek;
layers = (
{
layerId = "92FC523E-9234-4103-A150-1ABFFCFEAB52";
paths = (
{
nodes = (
"409 205 LINE",
"214 205 LINE",
"141 0 LINE",
"18 0 LINE",
"264 696 LINE",
"592 696 LINE",
"838 0 LINE",
"694 0 LINE",
"680 -15 OFFCURVE",
"660 -40 OFFCURVE",
"652 -50 QCURVE SMOOTH",
"634 -73 OFFCURVE",
"631 -80 QCURVE SMOOTH",
"624 -93 OFFCURVE",
"624 -107 QCURVE SMOOTH",
"624 -118 OFFCURVE",
"640 -127 OFFCURVE",
"664 -127 OFFCURVE",
"693 -119 OFFCURVE",
"706 -112 QCURVE",
"731 -148 LINE",
"717 -159 OFFCURVE",
"681 -186 OFFCURVE",
"641 -208 OFFCURVE",
"598 -223 OFFCURVE",
"576 -223 QCURVE SMOOTH",
"539 -223 OFFCURVE",
"522 -200 QCURVE SMOOTH",
"510 -185 OFFCURVE",
"510 -165 QCURVE SMOOTH",
"510 -147 OFFCURVE",
"524 -110 OFFCURVE",
"547 -74 OFFCURVE",
"576 -41 OFFCURVE",
"591 -27 QCURVE",
"591 -26 LINE",
"598 -19 LINE",
"599 -18 LINE",
"617 0 LINE",
"469 0 LINE"
);
},
{
nodes = (
"385 287 LINE",
"320 506 LINE",
"243 287 LINE"
);
}
);
width = 844;
}
);
unicode = 0104;
},
{
glyphname = aogonek;
layers = (
{
layerId = "92FC523E-9234-4103-A150-1ABFFCFEAB52";
paths = (
{
nodes = (
"409 205 LINE",
"214 205 LINE",
"141 0 LINE",
"18 0 LINE",
"264 696 LINE",
"592 696 LINE",
"838 0 LINE",
"694 0 LINE",
"680 -15 OFFCURVE",
"660 -40 OFFCURVE",
"652 -50 QCURVE SMOOTH",
"634 -73 OFFCURVE",
"631 -80 QCURVE SMOOTH",
"624 -93 OFFCURVE",
"624 -107 QCURVE SMOOTH",
"624 -118 OFFCURVE",
"640 -127 OFFCURVE",
"664 -127 OFFCURVE",
"693 -119 OFFCURVE",
"706 -112 QCURVE",
"731 -148 LINE",
"717 -159 OFFCURVE",
"681 -186 OFFCURVE",
"641 -208 OFFCURVE",
"598 -223 OFFCURVE",
"576 -223 QCURVE SMOOTH",
"539 -223 OFFCURVE",
"522 -200 QCURVE SMOOTH",
"510 -185 OFFCURVE",
"510 -165 QCURVE SMOOTH",
"510 -147 OFFCURVE",
"524 -110 OFFCURVE",
"547 -74 OFFCURVE",
"576 -41 OFFCURVE",
"591 -27 QCURVE",
"591 -26 LINE",
"598 -19 LINE",
"599 -18 LINE",
"617 0 LINE",
"469 0 LINE"
);
},
{
nodes = (
"385 287 LINE",
"320 506 LINE",
"243 287 LINE"
);
}
);
width = 844;
}
);
unicode = 0105;
},
{
glyphname = Cacute;
layers = (
{
layerId = "92FC523E-9234-4103-A150-1ABFFCFEAB52";
paths = (
{
nodes = (
"416 926 LINE",
"491 828 LINE",
"324 734 LINE",
"284 786 LINE"
);
},
{
nodes = (
"524 696 LINE SMOOTH",
"563 696 OFFCURVE",
"630 660 OFFCURVE",
"680 601 OFFCURVE",
"709 528 OFFCURVE",
"710 492 QCURVE",
"587 492 LINE",
"587 494 LINE",
"587 495 LINE",
"587 496 LINE",
"587 508 OFFCURVE",
"575 535 OFFCURVE",
"555 558 OFFCURVE",
"528 573 OFFCURVE",
"513 573 QCURVE SMOOTH",
"382 573 LINE",
"382 123 LINE",
"513 123 LINE SMOOTH",
"528 123 OFFCURVE",
"555 138 OFFCURVE",
"575 162 OFFCURVE",
"587 189 OFFCURVE",
"587 201 QCURVE",
"587 203 LINE",
"587 204 LINE",
"587 205 LINE",
"710 205 LINE",
"709 163 OFFCURVE",
"677 88 OFFCURVE",
"623 32 OFFCURVE",
"549 0 OFFCURVE",
"506 0 QCURVE SMOOTH",
"200 0 LINE SMOOTH",
"161 0 OFFCURVE",
"94 37 OFFCURVE",
"43 95 OFFCURVE",
"14 169 OFFCURVE",
"14 205 QCURVE SMOOTH",
"14 492 LINE SMOOTH",
"14 528 OFFCURVE",
"43 601 OFFCURVE",
"94 659 OFFCURVE",
"161 696 OFFCURVE",
"200 696 QCURVE SMOOTH"
);
}
);
width = 723;
}
);
unicode = 0106;
},
{
glyphname = cacute;
layers = (
{
layerId = "92FC523E-9234-4103-A150-1ABFFCFEAB52";
paths = (
{
nodes = (
"416 926 LINE",
"491 828 LINE",
"324 734 LINE",
"284 786 LINE"
);
},
{
nodes = (
"524 696 LINE SMOOTH",
"563 696 OFFCURVE",
"630 660 OFFCURVE",
"680 601 OFFCURVE",
"709 528 OFFCURVE",
"710 492 QCURVE",
"587 492 LINE",
"587 494 LINE",
"587 495 LINE",
"587 496 LINE",
"587 508 OFFCURVE",
"575 535 OFFCURVE",
"555 558 OFFCURVE",
"528 573 OFFCURVE",
"513 573 QCURVE SMOOTH",
"382 573 LINE",
"382 123 LINE",
"513 123 LINE SMOOTH",
"528 123 OFFCURVE",
"555 138 OFFCURVE",
"575 162 OFFCURVE",
"587 189 OFFCURVE",
"587 201 QCURVE",
"587 203 LINE",
"587 204 LINE",
"587 205 LINE",
"710 205 LINE",
"709 163 OFFCURVE",
"677 88 OFFCURVE",
"623 32 OFFCURVE",
"549 0 OFFCURVE",
"506 0 QCURVE SMOOTH",
"200 0 LINE SMOOTH",
"161 0 OFFCURVE",
"94 37 OFFCURVE",
"43 95 OFFCURVE",
"14 169 OFFCURVE",
"14 205 QCURVE SMOOTH",
"14 492 LINE SMOOTH",
"14 528 OFFCURVE",
"43 601 OFFCURVE",
"94 659 OFFCURVE",
"161 696 OFFCURVE",
"200 696 QCURVE SMOOTH"
);
}
);
width = 723;
}
);
unicode = 0107;
},
{
glyphname = Ccircumflex;
layers = (
{
layerId = "92FC523E-9234-4103-A150-1ABFFCFEAB52";
paths = (
{
nodes = (
"324 927 LINE",
"388 927 LINE",
"520 787 LINE",
"480 735 LINE",
"356 805 LINE",
"232 735 LINE",
"192 787 LINE"
);
},
{
nodes = (
"524 696 LINE SMOOTH",
"563 696 OFFCURVE",
"630 660 OFFCURVE",
"680 601 OFFCURVE",
"709 528 OFFCURVE",
"710 492 QCURVE",
"587 492 LINE",
"587 494 LINE",
"587 495 LINE",
"587 496 LINE",
"587 508 OFFCURVE",
"575 535 OFFCURVE",
"555 558 OFFCURVE",
"528 573 OFFCURVE",
"513 573 QCURVE SMOOTH",
"382 573 LINE",
"382 123 LINE",
"513 123 LINE SMOOTH",
"528 123 OFFCURVE",
"555 138 OFFCURVE",
"575 162 OFFCURVE",
"587 189 OFFCURVE",
"587 201 QCURVE",
"587 203 LINE",
"587 204 LINE",
"587 205 LINE",
"710 205 LINE",
"709 163 OFFCURVE",
"677 88 OFFCURVE",
"623 32 OFFCURVE",
"549 0 OFFCURVE",
"506 0 QCURVE SMOOTH",
"200 0 LINE SMOOTH",
"161 0 OFFCURVE",
"94 37 OFFCURVE",
"43 95 OFFCURVE",
"14 169 OFFCURVE",
"14 205 QCURVE SMOOTH",
"14 492 LINE SMOOTH",
"14 528 OFFCURVE",
"43 601 OFFCURVE",
"94 659 OFFCURVE",
"161 696 OFFCURVE",
"200 696 QCURVE SMOOTH"
);
}
);
width = 723;
}
);
unicode = 0108;
},
{
glyphname = ccircumflex;
layers = (
{
layerId = "92FC523E-9234-4103-A150-1ABFFCFEAB52";
paths = (
{
nodes = (
"324 927 LINE",
"388 927 LINE",
"520 787 LINE",
"480 735 LINE",
"356 805 LINE",
"232 735 LINE",
"192 787 LINE"
);
},
{
nodes = (
"524 696 LINE SMOOTH",
"563 696 OFFCURVE",
"630 660 OFFCURVE",
"680 601 OFFCURVE",
"709 528 OFFCURVE",
"710 492 QCURVE",
"587 492 LINE",
"587 494 LINE",
"587 495 LINE",
"587 496 LINE",
"587 508 OFFCURVE",
"575 535 OFFCURVE",
"555 558 OFFCURVE",
"528 573 OFFCURVE",
"513 573 QCURVE SMOOTH",
"382 573 LINE",
"382 123 LINE",
"513 123 LINE SMOOTH",
"528 123 OFFCURVE",
"555 138 OFFCURVE",
"575 162 OFFCURVE",
"587 189 OFFCURVE",
"587 201 QCURVE",
"587 203 LINE",
"587 204 LINE",
"587 205 LINE",
"710 205 LINE",
"709 163 OFFCURVE",
"677 88 OFFCURVE",
"623 32 OFFCURVE",
"549 0 OFFCURVE",
"506 0 QCURVE SMOOTH",
"200 0 LINE SMOOTH",
"161 0 OFFCURVE",
"94 37 OFFCURVE",
"43 95 OFFCURVE",
"14 169 OFFCURVE",
"14 205 QCURVE SMOOTH",
"14 492 LINE SMOOTH",
"14 528 OFFCURVE",
"43 601 OFFCURVE",
"94 659 OFFCURVE",
"161 696 OFFCURVE",
"200 696 QCURVE SMOOTH"
);
}
);
width = 723;
}
);
unicode = 0109;
},
{
glyphname = Cdotaccent;
layers = (
{
layerId = "92FC523E-9234-4103-A150-1ABFFCFEAB52";
paths = (
{
nodes = (
"246 866 OFFCURVE",
"301 922 OFFCURVE",
"343 922 QCURVE SMOOTH",
"385 922 OFFCURVE",
"441 866 OFFCURVE",
"441 824 QCURVE SMOOTH",
"441 782 OFFCURVE",
"385 727 OFFCURVE",
"343 727 QCURVE SMOOTH",
"301 727 OFFCURVE",
"246 782 OFFCURVE",
"246 824 QCURVE SMOOTH"
);
},
{
nodes = (
"524 696 LINE SMOOTH",
"563 696 OFFCURVE",
"630 660 OFFCURVE",
"680 601 OFFCURVE",
"709 528 OFFCURVE",
"710 492 QCURVE",
"587 492 LINE",
"587 494 LINE",
"587 495 LINE",
"587 496 LINE",
"587 508 OFFCURVE",
"575 535 OFFCURVE",
"555 558 OFFCURVE",
"528 573 OFFCURVE",
"513 573 QCURVE SMOOTH",
"382 573 LINE",
"382 123 LINE",
"513 123 LINE SMOOTH",
"528 123 OFFCURVE",
"555 138 OFFCURVE",
"575 162 OFFCURVE",
"587 189 OFFCURVE",
"587 201 QCURVE",
"587 203 LINE",
"587 204 LINE",
"587 205 LINE",
"710 205 LINE",
"709 163 OFFCURVE",
"677 88 OFFCURVE",
"623 32 OFFCURVE",
"549 0 OFFCURVE",
"506 0 QCURVE SMOOTH",
"200 0 LINE SMOOTH",
"161 0 OFFCURVE",
"94 37 OFFCURVE",
"43 95 OFFCURVE",
"14 169 OFFCURVE",
"14 205 QCURVE SMOOTH",
"14 492 LINE SMOOTH",
"14 528 OFFCURVE",
"43 601 OFFCURVE",
"94 659 OFFCURVE",
"161 696 OFFCURVE",
"200 696 QCURVE SMOOTH"
);
}
);
width = 723;
}
);
unicode = 010A;
},
{
glyphname = cdotaccent;
layers = (
{
layerId = "92FC523E-9234-4103-A150-1ABFFCFEAB52";
paths = (
{
nodes = (
"246 866 OFFCURVE",
"301 922 OFFCURVE",
"343 922 QCURVE SMOOTH",
"385 922 OFFCURVE",
"441 866 OFFCURVE",
"441 824 QCURVE SMOOTH",
"441 782 OFFCURVE",
"385 727 OFFCURVE",
"343 727 QCURVE SMOOTH",
"301 727 OFFCURVE",
"246 782 OFFCURVE",
"246 824 QCURVE SMOOTH"
);
},
{
nodes = (
"524 696 LINE SMOOTH",
"563 696 OFFCURVE",
"630 660 OFFCURVE",
"680 601 OFFCURVE",
"709 528 OFFCURVE",
"710 492 QCURVE",
"587 492 LINE",
"587 494 LINE",
"587 495 LINE",
"587 496 LINE",
"587 508 OFFCURVE",
"575 535 OFFCURVE",
"555 558 OFFCURVE",
"528 573 OFFCURVE",
"513 573 QCURVE SMOOTH",
"382 573 LINE",
"382 123 LINE",
"513 123 LINE SMOOTH",
"528 123 OFFCURVE",
"555 138 OFFCURVE",
"575 162 OFFCURVE",
"587 189 OFFCURVE",
"587 201 QCURVE",
"587 203 LINE",
"587 204 LINE",
"587 205 LINE",
"710 205 LINE",
"709 163 OFFCURVE",
"677 88 OFFCURVE",
"623 32 OFFCURVE",
"549 0 OFFCURVE",
"506 0 QCURVE SMOOTH",
"200 0 LINE SMOOTH",
"161 0 OFFCURVE",
"94 37 OFFCURVE",
"43 95 OFFCURVE",
"14 169 OFFCURVE",
"14 205 QCURVE SMOOTH",
"14 492 LINE SMOOTH",
"14 528 OFFCURVE",
"43 601 OFFCURVE",
"94 659 OFFCURVE",
"161 696 OFFCURVE",
"200 696 QCURVE SMOOTH"
);
}
);
width = 723;
}
);
unicode = 010B;
},
{
glyphname = Ccaron;
layers = (
{
layerId = "92FC523E-9234-4103-A150-1ABFFCFEAB52";
paths = (
{
nodes = (
"194 875 LINE",
"234 927 LINE",
"358 857 LINE",
"482 927 LINE",
"522 875 LINE",
"390 735 LINE",
"326 735 LINE"
);
},
{
nodes = (
"524 696 LINE SMOOTH",
"563 696 OFFCURVE",
"630 660 OFFCURVE",
"680 601 OFFCURVE",
"709 528 OFFCURVE",
"710 492 QCURVE",
"587 492 LINE",
"587 494 LINE",
"587 495 LINE",
"587 496 LINE",
"587 508 OFFCURVE",
"575 535 OFFCURVE",
"555 558 OFFCURVE",
"528 573 OFFCURVE",
"513 573 QCURVE SMOOTH",
"382 573 LINE",
"382 123 LINE",
"513 123 LINE SMOOTH",
"528 123 OFFCURVE",
"555 138 OFFCURVE",
"575 162 OFFCURVE",
"587 189 OFFCURVE",
"587 201 QCURVE",
"587 203 LINE",
"587 204 LINE",
"587 205 LINE",
"710 205 LINE",
"709 163 OFFCURVE",
"677 88 OFFCURVE",
"623 32 OFFCURVE",
"549 0 OFFCURVE",
"506 0 QCURVE SMOOTH",
"200 0 LINE SMOOTH",
"161 0 OFFCURVE",
"94 37 OFFCURVE",
"43 95 OFFCURVE",
"14 169 OFFCURVE",
"14 205 QCURVE SMOOTH",
"14 492 LINE SMOOTH",
"14 528 OFFCURVE",
"43 601 OFFCURVE",
"94 659 OFFCURVE",
"161 696 OFFCURVE",
"200 696 QCURVE SMOOTH"
);
}
);
width = 723;
}
);
unicode = 010C;
},
{
glyphname = ccaron;
layers = (
{
layerId = "92FC523E-9234-4103-A150-1ABFFCFEAB52";
paths = (
{
nodes = (
"194 875 LINE",
"234 927 LINE",
"358 857 LINE",
"482 927 LINE",
"522 875 LINE",
"390 735 LINE",
"326 735 LINE"
);
},
{
nodes = (
"524 696 LINE SMOOTH",
"563 696 OFFCURVE",
"630 660 OFFCURVE",
"680 601 OFFCURVE",
"709 528 OFFCURVE",
"710 492 QCURVE",
"587 492 LINE",
"587 494 LINE",
"587 495 LINE",
"587 496 LINE",
"587 508 OFFCURVE",
"575 535 OFFCURVE",
"555 558 OFFCURVE",
"528 573 OFFCURVE",
"513 573 QCURVE SMOOTH",
"382 573 LINE",
"382 123 LINE",
"513 123 LINE SMOOTH",
"528 123 OFFCURVE",
"555 138 OFFCURVE",
"575 162 OFFCURVE",
"587 189 OFFCURVE",
"587 201 QCURVE",
"587 203 LINE",
"587 204 LINE",
"587 205 LINE",
"710 205 LINE",
"709 163 OFFCURVE",
"677 88 OFFCURVE",
"623 32 OFFCURVE",
"549 0 OFFCURVE",
"506 0 QCURVE SMOOTH",
"200 0 LINE SMOOTH",
"161 0 OFFCURVE",
"94 37 OFFCURVE",
"43 95 OFFCURVE",
"14 169 OFFCURVE",
"14 205 QCURVE SMOOTH",
"14 492 LINE SMOOTH",
"14 528 OFFCURVE",
"43 601 OFFCURVE",
"94 659 OFFCURVE",
"161 696 OFFCURVE",
"200 696 QCURVE SMOOTH"
);
}
);
width = 723;
}
);
unicode = 010D;
},
{
glyphname = Dcaron;
layers = (
{
layerId = "92FC523E-9234-4103-A150-1ABFFCFEAB52";
paths = (
{
nodes = (
"193 875 LINE",
"233 927 LINE",
"357 857 LINE",
"481 927 LINE",
"521 875 LINE",
"389 735 LINE",
"325 735 LINE"
);
},
{
nodes = (
"714 205 LINE SMOOTH",
"714 163 OFFCURVE",
"682 88 OFFCURVE",
"626 32 OFFCURVE",
"551 0 OFFCURVE",
"509 0 QCURVE SMOOTH",
"18 0 LINE",
"18 697 LINE",
"509 697 LINE SMOOTH",
"551 697 OFFCURVE",
"626 664 OFFCURVE",
"681 609 OFFCURVE",
"714 534 OFFCURVE",
"714 492 QCURVE SMOOTH"
);
},
{
nodes = (
"591 499 LINE SMOOTH",
"591 512 OFFCURVE",
"577 539 OFFCURVE",
"556 560 OFFCURVE",
"530 573 OFFCURVE",
"517 573 QCURVE SMOOTH",
"345 573 LINE",
"345 123 LINE",
"517 123 LINE SMOOTH",
"530 123 OFFCURVE",
"556 137 OFFCURVE",
"577 158 OFFCURVE",
"591 184 OFFCURVE",
"591 197 QCURVE SMOOTH"
);
}
);
width = 726;
}
);
unicode = 010E;
},
{
glyphname = dcaron;
layers = (
{
layerId = "92FC523E-9234-4103-A150-1ABFFCFEAB52";
paths = (
{
nodes = (
"193 875 LINE",
"233 927 LINE",
"357 857 LINE",
"481 927 LINE",
"521 875 LINE",
"389 735 LINE",
"325 735 LINE"
);
},
{
nodes = (
"714 205 LINE SMOOTH",
"714 163 OFFCURVE",
"682 88 OFFCURVE",
"626 32 OFFCURVE",
"551 0 OFFCURVE",
"509 0 QCURVE SMOOTH",
"18 0 LINE",
"18 697 LINE",
"509 697 LINE SMOOTH",
"551 697 OFFCURVE",
"626 664 OFFCURVE",
"681 609 OFFCURVE",
"714 534 OFFCURVE",
"714 492 QCURVE SMOOTH"
);
},
{
nodes = (
"591 499 LINE SMOOTH",
"591 512 OFFCURVE",
"577 539 OFFCURVE",
"556 560 OFFCURVE",
"530 573 OFFCURVE",
"517 573 QCURVE SMOOTH",
"345 573 LINE",
"345 123 LINE",
"517 123 LINE SMOOTH",
"530 123 OFFCURVE",
"556 137 OFFCURVE",
"577 158 OFFCURVE",
"591 184 OFFCURVE",
"591 197 QCURVE SMOOTH"
);
}
);
width = 726;
}
);
unicode = 010F;
},
{
glyphname = Dcroat;
layers = (
{
layerId = "92FC523E-9234-4103-A150-1ABFFCFEAB52";
paths = (
{
nodes = (
"779 205 LINE SMOOTH",
"779 163 OFFCURVE",
"747 88 OFFCURVE",
"691 32 OFFCURVE",
"616 0 OFFCURVE",
"574 0 QCURVE SMOOTH",
"83 0 LINE",
"83 287 LINE",
"24 287 LINE",
"24 410 LINE",
"83 410 LINE",
"83 697 LINE",
"574 697 LINE SMOOTH",
"616 697 OFFCURVE",
"691 664 OFFCURVE",
"746 609 OFFCURVE",
"779 534 OFFCURVE",
"779 492 QCURVE SMOOTH"
);
},
{
nodes = (
"656 499 LINE SMOOTH",
"656 512 OFFCURVE",
"642 539 OFFCURVE",
"621 560 OFFCURVE",
"595 573 OFFCURVE",
"582 573 QCURVE SMOOTH",
"410 573 LINE",
"410 410 LINE",
"522 410 LINE",
"522 287 LINE",
"410 287 LINE",
"410 123 LINE",
"582 123 LINE SMOOTH",
"595 123 OFFCURVE",
"621 137 OFFCURVE",
"642 158 OFFCURVE",
"656 184 OFFCURVE",
"656 197 QCURVE SMOOTH"
);
}
);
width = 807;
}
);
unicode = 0110;
},
{
glyphname = dcroat;
layers = (
{
layerId = "92FC523E-9234-4103-A150-1ABFFCFEAB52";
paths = (
{
nodes = (
"779 205 LINE SMOOTH",
"779 163 OFFCURVE",
"747 88 OFFCURVE",
"691 32 OFFCURVE",
"616 0 OFFCURVE",
"574 0 QCURVE SMOOTH",
"83 0 LINE",
"83 287 LINE",
"24 287 LINE",
"24 410 LINE",
"83 410 LINE",
"83 697 LINE",
"574 697 LINE SMOOTH",
"616 697 OFFCURVE",
"691 664 OFFCURVE",
"746 609 OFFCURVE",
"779 534 OFFCURVE",
"779 492 QCURVE SMOOTH"
);
},
{
nodes = (
"656 499 LINE SMOOTH",
"656 512 OFFCURVE",
"642 539 OFFCURVE",
"621 560 OFFCURVE",
"595 573 OFFCURVE",
"582 573 QCURVE SMOOTH",
"410 573 LINE",
"410 410 LINE",
"522 410 LINE",
"522 287 LINE",
"410 287 LINE",
"410 123 LINE",
"582 123 LINE SMOOTH",
"595 123 OFFCURVE",
"621 137 OFFCURVE",
"642 158 OFFCURVE",
"656 184 OFFCURVE",
"656 197 QCURVE SMOOTH"
);
}
);
width = 807;
}
);
unicode = 0111;
},
{
glyphname = Emacron;
layers = (
{
layerId = "92FC523E-9234-4103-A150-1ABFFCFEAB52";
paths = (
{
nodes = (
"349 410 LINE",
"554 410 LINE",
"554 328 LINE",
"349 328 LINE",
"349 123 LINE",
"595 123 LINE",
"595 0 LINE",
"22 0 LINE",
"22 696 LINE",
"595 696 LINE",
"595 573 LINE",
"349 573 LINE"
);
},
{
nodes = (
"482 830 LINE",
"482 740 LINE",
"125 740 LINE",
"125 830 LINE"
);
}
);
width = 616;
}
);
unicode = 0112;
},
{
glyphname = emacron;
layers = (
{
layerId = "92FC523E-9234-4103-A150-1ABFFCFEAB52";
paths = (
{
nodes = (
"349 410 LINE",
"554 410 LINE",
"554 328 LINE",
"349 328 LINE",
"349 123 LINE",
"595 123 LINE",
"595 0 LINE",
"22 0 LINE",
"22 696 LINE",
"595 696 LINE",
"595 573 LINE",
"349 573 LINE"
);
},
{
nodes = (
"482 830 LINE",
"482 740 LINE",
"125 740 LINE",
"125 830 LINE"
);
}
);
width = 616;
}
);
unicode = 0113;
},
{
glyphname = Ebreve;
layers = (
{
layerId = "92FC523E-9234-4103-A150-1ABFFCFEAB52";
paths = (
{
nodes = (
"479 905 LINE",
"479 859 LINE",
"468 828 OFFCURVE",
"450 804 QCURVE SMOOTH",
"433 783 OFFCURVE",
"373 745 OFFCURVE",
"325 743 QCURVE",
"272 745 OFFCURVE",
"209 783 OFFCURVE",
"191 804 QCURVE SMOOTH",
"170 830 OFFCURVE",
"161 859 QCURVE",
"161 905 LINE",
"205 905 LINE",
"205 882 LINE SMOOTH",
"205 872 OFFCURVE",
"234 858 OFFCURVE",
"273 849 OFFCURVE",
"311 844 OFFCURVE",
"320 844 QCURVE SMOOTH",
"328 844 OFFCURVE",
"365 849 OFFCURVE",
"404 858 OFFCURVE",
"434 872 OFFCURVE",
"435 882 QCURVE",
"435 905 LINE"
);
},
{
nodes = (
"349 410 LINE",
"554 410 LINE",
"554 328 LINE",
"349 328 LINE",
"349 123 LINE",
"595 123 LINE",
"595 0 LINE",
"22 0 LINE",
"22 696 LINE",
"595 696 LINE",
"595 573 LINE",
"349 573 LINE"
);
}
);
width = 616;
}
);
unicode = 0114;
},
{
glyphname = ebreve;
layers = (
{
layerId = "92FC523E-9234-4103-A150-1ABFFCFEAB52";
paths = (
{
nodes = (
"479 905 LINE",
"479 859 LINE",
"468 828 OFFCURVE",
"450 804 QCURVE SMOOTH",
"433 783 OFFCURVE",
"373 745 OFFCURVE",
"325 743 QCURVE",
"272 745 OFFCURVE",
"209 783 OFFCURVE",
"191 804 QCURVE SMOOTH",
"170 830 OFFCURVE",
"161 859 QCURVE",
"161 905 LINE",
"205 905 LINE",
"205 882 LINE SMOOTH",
"205 872 OFFCURVE",
"234 858 OFFCURVE",
"273 849 OFFCURVE",
"311 844 OFFCURVE",
"320 844 QCURVE SMOOTH",
"328 844 OFFCURVE",
"365 849 OFFCURVE",
"404 858 OFFCURVE",
"434 872 OFFCURVE",
"435 882 QCURVE",
"435 905 LINE"
);
},
{
nodes = (
"349 410 LINE",
"554 410 LINE",
"554 328 LINE",
"349 328 LINE",
"349 123 LINE",
"595 123 LINE",
"595 0 LINE",
"22 0 LINE",
"22 696 LINE",
"595 696 LINE",
"595 573 LINE",
"349 573 LINE"
);
}
);
width = 616;
}
);
unicode = 0115;
},
{
glyphname = Edotaccent;
layers = (
{
layerId = "92FC523E-9234-4103-A150-1ABFFCFEAB52";
paths = (
{
nodes = (
"208 868 OFFCURVE",
"263 924 OFFCURVE",
"305 924 QCURVE SMOOTH",
"347 924 OFFCURVE",
"403 868 OFFCURVE",
"403 826 QCURVE SMOOTH",
"403 784 OFFCURVE",
"347 729 OFFCURVE",
"305 729 QCURVE SMOOTH",
"263 729 OFFCURVE",
"208 784 OFFCURVE",
"208 826 QCURVE SMOOTH"
);
},
{
nodes = (
"349 410 LINE",
"554 410 LINE",
"554 328 LINE",
"349 328 LINE",
"349 123 LINE",
"595 123 LINE",
"595 0 LINE",
"22 0 LINE",
"22 696 LINE",
"595 696 LINE",
"595 573 LINE",
"349 573 LINE"
);
}
);
width = 616;
}
);
unicode = 0116;
},
{
glyphname = edotaccent;
layers = (
{
layerId = "92FC523E-9234-4103-A150-1ABFFCFEAB52";
paths = (
{
nodes = (
"208 868 OFFCURVE",
"263 924 OFFCURVE",
"305 924 QCURVE SMOOTH",
"347 924 OFFCURVE",
"403 868 OFFCURVE",
"403 826 QCURVE SMOOTH",
"403 784 OFFCURVE",
"347 729 OFFCURVE",
"305 729 QCURVE SMOOTH",
"263 729 OFFCURVE",
"208 784 OFFCURVE",
"208 826 QCURVE SMOOTH"
);
},
{
nodes = (
"349 410 LINE",
"554 410 LINE",
"554 328 LINE",
"349 328 LINE",
"349 123 LINE",
"595 123 LINE",
"595 0 LINE",
"22 0 LINE",
"22 696 LINE",
"595 696 LINE",
"595 573 LINE",
"349 573 LINE"
);
}
);
width = 616;
}
);
unicode = 0117;
},
{
glyphname = Eogonek;
layers = (
{
layerId = "92FC523E-9234-4103-A150-1ABFFCFEAB52";
paths = (
{
nodes = (
"553 415 LINE",
"553 322 LINE",
"351 322 LINE",
"351 134 LINE",
"593 134 LINE",
"593 0 LINE",
"368 0 LINE",
"354 -15 OFFCURVE",
"334 -40 OFFCURVE",
"326 -50 QCURVE SMOOTH",
"308 -73 OFFCURVE",
"305 -80 QCURVE SMOOTH",
"298 -93 OFFCURVE",
"298 -107 QCURVE SMOOTH",
"298 -118 OFFCURVE",
"314 -127 OFFCURVE",
"338 -127 OFFCURVE",
"367 -119 OFFCURVE",
"380 -112 QCURVE",
"405 -148 LINE",
"391 -159 OFFCURVE",
"355 -186 OFFCURVE",
"315 -208 OFFCURVE",
"272 -223 OFFCURVE",
"250 -223 QCURVE SMOOTH",
"213 -223 OFFCURVE",
"196 -200 QCURVE SMOOTH",
"184 -185 OFFCURVE",
"184 -165 QCURVE SMOOTH",
"184 -147 OFFCURVE",
"198 -110 OFFCURVE",
"221 -74 OFFCURVE",
"250 -41 OFFCURVE",
"265 -27 QCURVE",
"265 -26 LINE",
"272 -19 LINE",
"273 -18 LINE",
"291 0 LINE",
"25 0 LINE",
"25 696 LINE",
"593 696 LINE",
"593 562 LINE",
"351 562 LINE",
"351 415 LINE"
);
}
);
width = 616;
}
);
unicode = 0118;
},
{
glyphname = eogonek;
layers = (
{
layerId = "92FC523E-9234-4103-A150-1ABFFCFEAB52";
paths = (
{
nodes = (
"553 415 LINE",
"553 322 LINE",
"351 322 LINE",
"351 134 LINE",
"593 134 LINE",
"593 0 LINE",
"368 0 LINE",
"354 -15 OFFCURVE",
"334 -40 OFFCURVE",
"326 -50 QCURVE SMOOTH",
"308 -73 OFFCURVE",
"305 -80 QCURVE SMOOTH",
"298 -93 OFFCURVE",
"298 -107 QCURVE SMOOTH",
"298 -118 OFFCURVE",
"314 -127 OFFCURVE",
"338 -127 OFFCURVE",
"367 -119 OFFCURVE",
"380 -112 QCURVE",
"405 -148 LINE",
"391 -159 OFFCURVE",
"355 -186 OFFCURVE",
"315 -208 OFFCURVE",
"272 -223 OFFCURVE",
"250 -223 QCURVE SMOOTH",
"213 -223 OFFCURVE",
"196 -200 QCURVE SMOOTH",
"184 -185 OFFCURVE",
"184 -165 QCURVE SMOOTH",
"184 -147 OFFCURVE",
"198 -110 OFFCURVE",
"221 -74 OFFCURVE",
"250 -41 OFFCURVE",
"265 -27 QCURVE",
"265 -26 LINE",
"272 -19 LINE",
"273 -18 LINE",
"291 0 LINE",
"25 0 LINE",
"25 696 LINE",
"593 696 LINE",
"593 562 LINE",
"351 562 LINE",
"351 415 LINE"
);
}
);
width = 616;
}
);
unicode = 0119;
},
{
glyphname = Ecaron;
layers = (
{
layerId = "92FC523E-9234-4103-A150-1ABFFCFEAB52";
paths = (
{
nodes = (
"349 410 LINE",
"554 410 LINE",
"554 328 LINE",
"349 328 LINE",
"349 123 LINE",
"595 123 LINE",
"595 0 LINE",
"22 0 LINE",
"22 696 LINE",
"595 696 LINE",
"595 573 LINE",
"349 573 LINE"
);
},
{
nodes = (
"136 875 LINE",
"176 927 LINE",
"300 857 LINE",
"424 927 LINE",
"464 875 LINE",
"332 735 LINE",
"268 735 LINE"
);
}
);
width = 616;
}
);
unicode = 011A;
},
{
glyphname = ecaron;
layers = (
{
layerId = "92FC523E-9234-4103-A150-1ABFFCFEAB52";
paths = (
{
nodes = (
"349 410 LINE",
"554 410 LINE",
"554 328 LINE",
"349 328 LINE",
"349 123 LINE",
"595 123 LINE",
"595 0 LINE",
"22 0 LINE",
"22 696 LINE",
"595 696 LINE",
"595 573 LINE",
"349 573 LINE"
);
},
{
nodes = (
"136 875 LINE",
"176 927 LINE",
"300 857 LINE",
"424 927 LINE",
"464 875 LINE",
"332 735 LINE",
"268 735 LINE"
);
}
);
width = 616;
}
);
unicode = 011B;
},
{
glyphname = Gcircumflex;
layers = (
{
layerId = "92FC523E-9234-4103-A150-1ABFFCFEAB52";
paths = (
{
nodes = (
"335 927 LINE",
"399 927 LINE",
"531 787 LINE",
"491 735 LINE",
"367 805 LINE",
"243 735 LINE",
"203 787 LINE"
);
},
{
nodes = (
"591 492 LINE",
"591 496 LINE",
"591 497 LINE",
"591 499 LINE",
"591 500 LINE",
"591 533 OFFCURVE",
"547 568 OFFCURVE",
"512 574 QCURVE SMOOTH",
"477 579 OFFCURVE",
"406 574 OFFCURVE",
"386 574 QCURVE",
"386 123 LINE",
"399 123 OFFCURVE",
"436 120 OFFCURVE",
"453 120 QCURVE SMOOTH",
"456 120 OFFCURVE",
"477 120 OFFCURVE",
"505 123 OFFCURVE",
"538 130 OFFCURVE",
"553 137 QCURVE SMOOTH",
"591 156 OFFCURVE",
"591 197 QCURVE SMOOTH",
"591 201 LINE",
"591 202 LINE",
"591 204 LINE",
"591 205 LINE",
"468 205 LINE",
"468 328 LINE",
"714 328 LINE",
"714 205 LINE SMOOTH",
"714 163 OFFCURVE",
"681 89 OFFCURVE",
"626 33 OFFCURVE",
"551 0 OFFCURVE",
"509 0 QCURVE SMOOTH",
"204 0 LINE SMOOTH",
"165 0 OFFCURVE",
"97 37 OFFCURVE",
"46 95 OFFCURVE",
"17 169 OFFCURVE",
"17 205 QCURVE SMOOTH",
"17 492 LINE SMOOTH",
"17 529 OFFCURVE",
"46 602 OFFCURVE",
"97 660 OFFCURVE",
"165 696 OFFCURVE",
"204 696 QCURVE",
"509 697 LINE",
"552 697 OFFCURVE",
"627 665 OFFCURVE",
"681 609 OFFCURVE",
"713 534 OFFCURVE",
"714 492 QCURVE"
);
}
);
width = 744;
}
);
unicode = 011C;
},
{
glyphname = gcircumflex;
layers = (
{
layerId = "92FC523E-9234-4103-A150-1ABFFCFEAB52";
paths = (
{
nodes = (
"335 927 LINE",
"399 927 LINE",
"531 787 LINE",
"491 735 LINE",
"367 805 LINE",
"243 735 LINE",
"203 787 LINE"
);
},
{
nodes = (
"591 492 LINE",
"591 496 LINE",
"591 497 LINE",
"591 499 LINE",
"591 500 LINE",
"591 533 OFFCURVE",
"547 568 OFFCURVE",
"512 574 QCURVE SMOOTH",
"477 579 OFFCURVE",
"406 574 OFFCURVE",
"386 574 QCURVE",
"386 123 LINE",
"399 123 OFFCURVE",
"436 120 OFFCURVE",
"453 120 QCURVE SMOOTH",
"456 120 OFFCURVE",
"477 120 OFFCURVE",
"505 123 OFFCURVE",
"538 130 OFFCURVE",
"553 137 QCURVE SMOOTH",
"591 156 OFFCURVE",
"591 197 QCURVE SMOOTH",
"591 201 LINE",
"591 202 LINE",
"591 204 LINE",
"591 205 LINE",
"468 205 LINE",
"468 328 LINE",
"714 328 LINE",
"714 205 LINE SMOOTH",
"714 163 OFFCURVE",
"681 89 OFFCURVE",
"626 33 OFFCURVE",
"551 0 OFFCURVE",
"509 0 QCURVE SMOOTH",
"204 0 LINE SMOOTH",
"165 0 OFFCURVE",
"97 37 OFFCURVE",
"46 95 OFFCURVE",
"17 169 OFFCURVE",
"17 205 QCURVE SMOOTH",
"17 492 LINE SMOOTH",
"17 529 OFFCURVE",
"46 602 OFFCURVE",
"97 660 OFFCURVE",
"165 696 OFFCURVE",
"204 696 QCURVE",
"509 697 LINE",
"552 697 OFFCURVE",
"627 665 OFFCURVE",
"681 609 OFFCURVE",
"713 534 OFFCURVE",
"714 492 QCURVE"
);
}
);
width = 744;
}
);
unicode = 011D;
},
{
glyphname = Gbreve;
layers = (
{
layerId = "92FC523E-9234-4103-A150-1ABFFCFEAB52";
paths = (
{
nodes = (
"534 905 LINE",
"534 859 LINE",
"523 828 OFFCURVE",
"505 804 QCURVE SMOOTH",
"488 783 OFFCURVE",
"428 745 OFFCURVE",
"380 743 QCURVE",
"327 745 OFFCURVE",
"264 783 OFFCURVE",
"246 804 QCURVE SMOOTH",
"225 830 OFFCURVE",
"216 859 QCURVE",
"216 905 LINE",
"260 905 LINE",
"260 882 LINE SMOOTH",
"260 872 OFFCURVE",
"289 858 OFFCURVE",
"328 849 OFFCURVE",
"366 844 OFFCURVE",
"375 844 QCURVE SMOOTH",
"383 844 OFFCURVE",
"420 849 OFFCURVE",
"459 858 OFFCURVE",
"489 872 OFFCURVE",
"490 882 QCURVE",
"490 905 LINE"
);
},
{
nodes = (
"591 492 LINE",
"591 496 LINE",
"591 497 LINE",
"591 499 LINE",
"591 500 LINE",
"591 533 OFFCURVE",
"547 568 OFFCURVE",
"512 574 QCURVE SMOOTH",
"477 579 OFFCURVE",
"406 574 OFFCURVE",
"386 574 QCURVE",
"386 123 LINE",
"399 123 OFFCURVE",
"436 120 OFFCURVE",
"453 120 QCURVE SMOOTH",
"456 120 OFFCURVE",
"477 120 OFFCURVE",
"505 123 OFFCURVE",
"538 130 OFFCURVE",
"553 137 QCURVE SMOOTH",
"591 156 OFFCURVE",
"591 197 QCURVE SMOOTH",
"591 201 LINE",
"591 202 LINE",
"591 204 LINE",
"591 205 LINE",
"468 205 LINE",
"468 328 LINE",
"714 328 LINE",
"714 205 LINE SMOOTH",
"714 163 OFFCURVE",
"681 89 OFFCURVE",
"626 33 OFFCURVE",
"551 0 OFFCURVE",
"509 0 QCURVE SMOOTH",
"204 0 LINE SMOOTH",
"165 0 OFFCURVE",
"97 37 OFFCURVE",
"46 95 OFFCURVE",
"17 169 OFFCURVE",
"17 205 QCURVE SMOOTH",
"17 492 LINE SMOOTH",
"17 529 OFFCURVE",
"46 602 OFFCURVE",
"97 660 OFFCURVE",
"165 696 OFFCURVE",
"204 696 QCURVE",
"509 697 LINE",
"552 697 OFFCURVE",
"627 665 OFFCURVE",
"681 609 OFFCURVE",
"713 534 OFFCURVE",
"714 492 QCURVE"
);
}
);
width = 744;
}
);
unicode = 011E;
},
{
glyphname = gbreve;
layers = (
{
layerId = "92FC523E-9234-4103-A150-1ABFFCFEAB52";
paths = (
{
nodes = (
"534 905 LINE",
"534 859 LINE",
"523 828 OFFCURVE",
"505 804 QCURVE SMOOTH",
"488 783 OFFCURVE",
"428 745 OFFCURVE",
"380 743 QCURVE",
"327 745 OFFCURVE",
"264 783 OFFCURVE",
"246 804 QCURVE SMOOTH",
"225 830 OFFCURVE",
"216 859 QCURVE",
"216 905 LINE",
"260 905 LINE",
"260 882 LINE SMOOTH",
"260 872 OFFCURVE",
"289 858 OFFCURVE",
"328 849 OFFCURVE",
"366 844 OFFCURVE",
"375 844 QCURVE SMOOTH",
"383 844 OFFCURVE",
"420 849 OFFCURVE",
"459 858 OFFCURVE",
"489 872 OFFCURVE",
"490 882 QCURVE",
"490 905 LINE"
);
},
{
nodes = (
"591 492 LINE",
"591 496 LINE",
"591 497 LINE",
"591 499 LINE",
"591 500 LINE",
"591 533 OFFCURVE",
"547 568 OFFCURVE",
"512 574 QCURVE SMOOTH",
"477 579 OFFCURVE",
"406 574 OFFCURVE",
"386 574 QCURVE",
"386 123 LINE",
"399 123 OFFCURVE",
"436 120 OFFCURVE",
"453 120 QCURVE SMOOTH",
"456 120 OFFCURVE",
"477 120 OFFCURVE",
"505 123 OFFCURVE",
"538 130 OFFCURVE",
"553 137 QCURVE SMOOTH",
"591 156 OFFCURVE",
"591 197 QCURVE SMOOTH",
"591 201 LINE",
"591 202 LINE",
"591 204 LINE",
"591 205 LINE",
"468 205 LINE",
"468 328 LINE",
"714 328 LINE",
"714 205 LINE SMOOTH",
"714 163 OFFCURVE",
"681 89 OFFCURVE",
"626 33 OFFCURVE",
"551 0 OFFCURVE",
"509 0 QCURVE SMOOTH",
"204 0 LINE SMOOTH",
"165 0 OFFCURVE",
"97 37 OFFCURVE",
"46 95 OFFCURVE",
"17 169 OFFCURVE",
"17 205 QCURVE SMOOTH",
"17 492 LINE SMOOTH",
"17 529 OFFCURVE",
"46 602 OFFCURVE",
"97 660 OFFCURVE",
"165 696 OFFCURVE",
"204 696 QCURVE",
"509 697 LINE",
"552 697 OFFCURVE",
"627 665 OFFCURVE",
"681 609 OFFCURVE",
"713 534 OFFCURVE",
"714 492 QCURVE"
);
}
);
width = 744;
}
);
unicode = 011F;
},
{
glyphname = Gdotaccent;
layers = (
{
layerId = "92FC523E-9234-4103-A150-1ABFFCFEAB52";
paths = (
{
nodes = (
"273 866 OFFCURVE",
"328 922 OFFCURVE",
"370 922 QCURVE SMOOTH",
"412 922 OFFCURVE",
"468 866 OFFCURVE",
"468 824 QCURVE SMOOTH",
"468 782 OFFCURVE",
"412 727 OFFCURVE",
"370 727 QCURVE SMOOTH",
"328 727 OFFCURVE",
"273 782 OFFCURVE",
"273 824 QCURVE SMOOTH"
);
},
{
nodes = (
"591 492 LINE",
"591 496 LINE",
"591 497 LINE",
"591 499 LINE",
"591 500 LINE",
"591 533 OFFCURVE",
"547 568 OFFCURVE",
"512 574 QCURVE SMOOTH",
"477 579 OFFCURVE",
"406 574 OFFCURVE",
"386 574 QCURVE",
"386 123 LINE",
"399 123 OFFCURVE",
"436 120 OFFCURVE",
"453 120 QCURVE SMOOTH",
"456 120 OFFCURVE",
"477 120 OFFCURVE",
"505 123 OFFCURVE",
"538 130 OFFCURVE",
"553 137 QCURVE SMOOTH",
"591 156 OFFCURVE",
"591 197 QCURVE SMOOTH",
"591 201 LINE",
"591 202 LINE",
"591 204 LINE",
"591 205 LINE",
"468 205 LINE",
"468 328 LINE",
"714 328 LINE",
"714 205 LINE SMOOTH",
"714 163 OFFCURVE",
"681 89 OFFCURVE",
"626 33 OFFCURVE",
"551 0 OFFCURVE",
"509 0 QCURVE SMOOTH",
"204 0 LINE SMOOTH",
"165 0 OFFCURVE",
"97 37 OFFCURVE",
"46 95 OFFCURVE",
"17 169 OFFCURVE",
"17 205 QCURVE SMOOTH",
"17 492 LINE SMOOTH",
"17 529 OFFCURVE",
"46 602 OFFCURVE",
"97 660 OFFCURVE",
"165 696 OFFCURVE",
"204 696 QCURVE",
"509 697 LINE",
"552 697 OFFCURVE",
"627 665 OFFCURVE",
"681 609 OFFCURVE",
"713 534 OFFCURVE",
"714 492 QCURVE"
);
}
);
width = 744;
}
);
unicode = 0120;
},
{
glyphname = gdotaccent;
layers = (
{
layerId = "92FC523E-9234-4103-A150-1ABFFCFEAB52";
paths = (
{
nodes = (
"273 866 OFFCURVE",
"328 922 OFFCURVE",
"370 922 QCURVE SMOOTH",
"412 922 OFFCURVE",
"468 866 OFFCURVE",
"468 824 QCURVE SMOOTH",
"468 782 OFFCURVE",
"412 727 OFFCURVE",
"370 727 QCURVE SMOOTH",
"328 727 OFFCURVE",
"273 782 OFFCURVE",
"273 824 QCURVE SMOOTH"
);
},
{
nodes = (
"591 492 LINE",
"591 496 LINE",
"591 497 LINE",
"591 499 LINE",
"591 500 LINE",
"591 533 OFFCURVE",
"547 568 OFFCURVE",
"512 574 QCURVE SMOOTH",
"477 579 OFFCURVE",
"406 574 OFFCURVE",
"386 574 QCURVE",
"386 123 LINE",
"399 123 OFFCURVE",
"436 120 OFFCURVE",
"453 120 QCURVE SMOOTH",
"456 120 OFFCURVE",
"477 120 OFFCURVE",
"505 123 OFFCURVE",
"538 130 OFFCURVE",
"553 137 QCURVE SMOOTH",
"591 156 OFFCURVE",
"591 197 QCURVE SMOOTH",
"591 201 LINE",
"591 202 LINE",
"591 204 LINE",
"591 205 LINE",
"468 205 LINE",
"468 328 LINE",
"714 328 LINE",
"714 205 LINE SMOOTH",
"714 163 OFFCURVE",
"681 89 OFFCURVE",
"626 33 OFFCURVE",
"551 0 OFFCURVE",
"509 0 QCURVE SMOOTH",
"204 0 LINE SMOOTH",
"165 0 OFFCURVE",
"97 37 OFFCURVE",
"46 95 OFFCURVE",
"17 169 OFFCURVE",
"17 205 QCURVE SMOOTH",
"17 492 LINE SMOOTH",
"17 529 OFFCURVE",
"46 602 OFFCURVE",
"97 660 OFFCURVE",
"165 696 OFFCURVE",
"204 696 QCURVE",
"509 697 LINE",
"552 697 OFFCURVE",
"627 665 OFFCURVE",
"681 609 OFFCURVE",
"713 534 OFFCURVE",
"714 492 QCURVE"
);
}
);
width = 744;
}
);
unicode = 0121;
},
{
glyphname = Hcircumflex;
layers = (
{
layerId = "92FC523E-9234-4103-A150-1ABFFCFEAB52";
paths = (
{
nodes = (
"636 410 LINE",
"636 697 LINE",
"759 697 LINE",
"759 0 LINE",
"636 0 LINE",
"636 328 LINE",
"390 328 LINE",
"390 0 LINE",
"21 0 LINE",
"21 697 LINE",
"390 697 LINE",
"390 410 LINE"
);
},
{
nodes = (
"374 927 LINE",
"438 927 LINE",
"570 787 LINE",
"530 735 LINE",
"406 805 LINE",
"282 735 LINE",
"242 787 LINE"
);
}
);
width = 779;
}
);
unicode = 0124;
},
{
glyphname = hcircumflex;
layers = (
{
layerId = "92FC523E-9234-4103-A150-1ABFFCFEAB52";
paths = (
{
nodes = (
"636 410 LINE",
"636 697 LINE",
"759 697 LINE",
"759 0 LINE",
"636 0 LINE",
"636 328 LINE",
"390 328 LINE",
"390 0 LINE",
"21 0 LINE",
"21 697 LINE",
"390 697 LINE",
"390 410 LINE"
);
},
{
nodes = (
"374 927 LINE",
"438 927 LINE",
"570 787 LINE",
"530 735 LINE",
"406 805 LINE",
"282 735 LINE",
"242 787 LINE"
);
}
);
width = 779;
}
);
unicode = 0125;
},
{
glyphname = Hbar;
layers = (
{
layerId = "92FC523E-9234-4103-A150-1ABFFCFEAB52";
paths = (
{
nodes = (
"669 410 LINE",
"669 484 LINE",
"458 484 LINE",
"458 410 LINE"
);
},
{
nodes = (
"792 568 LINE",
"866 568 LINE",
"866 484 LINE",
"792 484 LINE",
"792 0 LINE",
"669 0 LINE",
"669 328 LINE",
"458 328 LINE",
"458 0 LINE",
"89 0 LINE",
"89 484 LINE",
"19 484 LINE",
"19 568 LINE",
"89 568 LINE",
"89 697 LINE",
"458 697 LINE",
"458 568 LINE",
"669 568 LINE",
"669 697 LINE",
"792 697 LINE"
);
}
);
width = 887;
}
);
unicode = 0126;
},
{
glyphname = hbar;
layers = (
{
layerId = "92FC523E-9234-4103-A150-1ABFFCFEAB52";
paths = (
{
nodes = (
"669 410 LINE",
"669 484 LINE",
"458 484 LINE",
"458 410 LINE"
);
},
{
nodes = (
"792 568 LINE",
"866 568 LINE",
"866 484 LINE",
"792 484 LINE",
"792 0 LINE",
"669 0 LINE",
"669 328 LINE",
"458 328 LINE",
"458 0 LINE",
"89 0 LINE",
"89 484 LINE",
"19 484 LINE",
"19 568 LINE",
"89 568 LINE",
"89 697 LINE",
"458 697 LINE",
"458 568 LINE",
"669 568 LINE",
"669 697 LINE",
"792 697 LINE"
);
}
);
width = 887;
}
);
unicode = 0127;
},
{
glyphname = Itilde;
layers = (
{
layerId = "92FC523E-9234-4103-A150-1ABFFCFEAB52";
paths = (
{
nodes = (
"297 867 OFFCURVE",
"307 867 QCURVE SMOOTH",
"314 867 OFFCURVE",
"337 875 OFFCURVE",
"349 884 QCURVE SMOOTH",
"362 894 OFFCURVE",
"376 911 QCURVE",
"404 901 LINE",
"379 832 OFFCURVE",
"324 767 OFFCURVE",
"301 755 QCURVE SMOOTH",
"282 745 OFFCURVE",
"263 745 QCURVE SMOOTH",
"257 745 OFFCURVE",
"247 747 QCURVE",
"226 755 OFFCURVE",
"200 764 OFFCURVE",
"177 773 OFFCURVE",
"150 783 OFFCURVE",
"127 792 QCURVE SMOOTH",
"118 795 OFFCURVE",
"110 795 QCURVE SMOOTH",
"102 795 OFFCURVE",
"78 787 OFFCURVE",
"66 778 QCURVE SMOOTH",
"54 769 OFFCURVE",
"39 752 QCURVE",
"11 761 LINE",
"36 829 OFFCURVE",
"91 895 OFFCURVE",
"114 907 QCURVE SMOOTH",
"133 917 OFFCURVE",
"152 917 QCURVE SMOOTH",
"158 917 OFFCURVE",
"168 915 QCURVE",
"189 907 OFFCURVE",
"216 897 OFFCURVE",
"239 888 OFFCURVE",
"266 879 OFFCURVE",
"288 871 QCURVE SMOOTH"
);
},
{
nodes = (
"356 696 LINE",
"356 0 LINE",
"29 0 LINE",
"29 696 LINE"
);
}
);
width = 383;
}
);
unicode = 0128;
},
{
glyphname = itilde;
layers = (
{
layerId = "92FC523E-9234-4103-A150-1ABFFCFEAB52";
paths = (
{
nodes = (
"297 867 OFFCURVE",
"307 867 QCURVE SMOOTH",
"314 867 OFFCURVE",
"337 875 OFFCURVE",
"349 884 QCURVE SMOOTH",
"362 894 OFFCURVE",
"376 911 QCURVE",
"404 901 LINE",
"379 832 OFFCURVE",
"324 767 OFFCURVE",
"301 755 QCURVE SMOOTH",
"282 745 OFFCURVE",
"263 745 QCURVE SMOOTH",
"257 745 OFFCURVE",
"247 747 QCURVE",
"226 755 OFFCURVE",
"200 764 OFFCURVE",
"177 773 OFFCURVE",
"150 783 OFFCURVE",
"127 792 QCURVE SMOOTH",
"118 795 OFFCURVE",
"110 795 QCURVE SMOOTH",
"102 795 OFFCURVE",
"78 787 OFFCURVE",
"66 778 QCURVE SMOOTH",
"54 769 OFFCURVE",
"39 752 QCURVE",
"11 761 LINE",
"36 829 OFFCURVE",
"91 895 OFFCURVE",
"114 907 QCURVE SMOOTH",
"133 917 OFFCURVE",
"152 917 QCURVE SMOOTH",
"158 917 OFFCURVE",
"168 915 QCURVE",
"189 907 OFFCURVE",
"216 897 OFFCURVE",
"239 888 OFFCURVE",
"266 879 OFFCURVE",
"288 871 QCURVE SMOOTH"
);
},
{
nodes = (
"356 696 LINE",
"356 0 LINE",
"29 0 LINE",
"29 696 LINE"
);
}
);
width = 383;
}
);
unicode = 0129;
},
{
glyphname = Imacron;
layers = (
{
layerId = "92FC523E-9234-4103-A150-1ABFFCFEAB52";
paths = (
{
nodes = (
"356 696 LINE",
"356 0 LINE",
"29 0 LINE",
"29 696 LINE"
);
},
{
nodes = (
"370 830 LINE",
"370 740 LINE",
"13 740 LINE",
"13 830 LINE"
);
}
);
width = 383;
}
);
unicode = 012A;
},
{
glyphname = imacron;
layers = (
{
layerId = "92FC523E-9234-4103-A150-1ABFFCFEAB52";
paths = (
{
nodes = (
"356 696 LINE",
"356 0 LINE",
"29 0 LINE",
"29 696 LINE"
);
},
{
nodes = (
"370 830 LINE",
"370 740 LINE",
"13 740 LINE",
"13 830 LINE"
);
}
);
width = 383;
}
);
unicode = 012B;
},
{
glyphname = Iogonek;
layers = (
{
layerId = "92FC523E-9234-4103-A150-1ABFFCFEAB52";
paths = (
{
nodes = (
"356 696 LINE",
"356 0 LINE",
"248 0 LINE",
"234 -15 OFFCURVE",
"214 -40 OFFCURVE",
"206 -50 QCURVE SMOOTH",
"188 -73 OFFCURVE",
"185 -80 QCURVE SMOOTH",
"178 -93 OFFCURVE",
"178 -107 QCURVE SMOOTH",
"178 -118 OFFCURVE",
"194 -127 OFFCURVE",
"218 -127 OFFCURVE",
"247 -119 OFFCURVE",
"260 -112 QCURVE",
"285 -148 LINE",
"271 -159 OFFCURVE",
"235 -186 OFFCURVE",
"195 -208 OFFCURVE",
"152 -223 OFFCURVE",
"130 -223 QCURVE SMOOTH",
"93 -223 OFFCURVE",
"76 -200 QCURVE SMOOTH",
"64 -185 OFFCURVE",
"64 -165 QCURVE SMOOTH",
"64 -147 OFFCURVE",
"78 -110 OFFCURVE",
"101 -74 OFFCURVE",
"130 -41 OFFCURVE",
"145 -27 QCURVE",
"145 -26 LINE",
"152 -19 LINE",
"153 -18 LINE",
"171 0 LINE",
"29 0 LINE",
"29 696 LINE"
);
}
);
width = 383;
}
);
unicode = 012E;
},
{
glyphname = iogonek;
layers = (
{
layerId = "92FC523E-9234-4103-A150-1ABFFCFEAB52";
paths = (
{
nodes = (
"356 696 LINE",
"356 0 LINE",
"248 0 LINE",
"234 -15 OFFCURVE",
"214 -40 OFFCURVE",
"206 -50 QCURVE SMOOTH",
"188 -73 OFFCURVE",
"185 -80 QCURVE SMOOTH",
"178 -93 OFFCURVE",
"178 -107 QCURVE SMOOTH",
"178 -118 OFFCURVE",
"194 -127 OFFCURVE",
"218 -127 OFFCURVE",
"247 -119 OFFCURVE",
"260 -112 QCURVE",
"285 -148 LINE",
"271 -159 OFFCURVE",
"235 -186 OFFCURVE",
"195 -208 OFFCURVE",
"152 -223 OFFCURVE",
"130 -223 QCURVE SMOOTH",
"93 -223 OFFCURVE",
"76 -200 QCURVE SMOOTH",
"64 -185 OFFCURVE",
"64 -165 QCURVE SMOOTH",
"64 -147 OFFCURVE",
"78 -110 OFFCURVE",
"101 -74 OFFCURVE",
"130 -41 OFFCURVE",
"145 -27 QCURVE",
"145 -26 LINE",
"152 -19 LINE",
"153 -18 LINE",
"171 0 LINE",
"29 0 LINE",
"29 696 LINE"
);
}
);
width = 383;
}
);
unicode = 012F;
},
{
glyphname = Idotaccent;
layers = (
{
layerId = "92FC523E-9234-4103-A150-1ABFFCFEAB52";
paths = (
{
nodes = (
"94 868 OFFCURVE",
"149 924 OFFCURVE",
"191 924 QCURVE SMOOTH",
"233 924 OFFCURVE",
"289 868 OFFCURVE",
"289 826 QCURVE SMOOTH",
"289 784 OFFCURVE",
"233 729 OFFCURVE",
"191 729 QCURVE SMOOTH",
"149 729 OFFCURVE",
"94 784 OFFCURVE",
"94 826 QCURVE SMOOTH"
);
},
{
nodes = (
"356 696 LINE",
"356 0 LINE",
"29 0 LINE",
"29 696 LINE"
);
}
);
width = 383;
}
);
unicode = 0130;
},
{
glyphname = dotlessi;
layers = (
{
layerId = "92FC523E-9234-4103-A150-1ABFFCFEAB52";
paths = (
{
nodes = (
"356 696 LINE",
"356 0 LINE",
"29 0 LINE",
"29 696 LINE"
);
}
);
width = 383;
}
);
unicode = 0131;
},
{
glyphname = IJ;
layers = (
{
layerId = "92FC523E-9234-4103-A150-1ABFFCFEAB52";
paths = (
{
nodes = (
"854 697 LINE",
"854 205 LINE SMOOTH",
"854 163 OFFCURVE",
"821 88 OFFCURVE",
"766 33 OFFCURVE",
"691 0 OFFCURVE",
"649 0 QCURVE SMOOTH",
"403 0 LINE",
"403 123 LINE",
"526 123 LINE",
"526 697 LINE"
);
},
{
nodes = (
"356 696 LINE",
"356 0 LINE",
"29 0 LINE",
"29 696 LINE"
);
}
);
width = 881;
}
);
unicode = 0132;
},
{
glyphname = ij;
layers = (
{
layerId = "92FC523E-9234-4103-A150-1ABFFCFEAB52";
paths = (
{
nodes = (
"854 697 LINE",
"854 205 LINE SMOOTH",
"854 163 OFFCURVE",
"821 88 OFFCURVE",
"766 33 OFFCURVE",
"691 0 OFFCURVE",
"649 0 QCURVE SMOOTH",
"403 0 LINE",
"403 123 LINE",
"526 123 LINE",
"526 697 LINE"
);
},
{
nodes = (
"356 696 LINE",
"356 0 LINE",
"29 0 LINE",
"29 696 LINE"
);
}
);
width = 881;
}
);
unicode = 0133;
},
{
glyphname = Jcircumflex;
layers = (
{
layerId = "92FC523E-9234-4103-A150-1ABFFCFEAB52";
paths = (
{
nodes = (
"280 927 LINE",
"344 927 LINE",
"476 787 LINE",
"436 735 LINE",
"312 805 LINE",
"188 735 LINE",
"148 787 LINE"
);
},
{
nodes = (
"469 697 LINE",
"469 205 LINE SMOOTH",
"469 163 OFFCURVE",
"436 88 OFFCURVE",
"381 33 OFFCURVE",
"306 0 OFFCURVE",
"264 0 QCURVE SMOOTH",
"18 0 LINE",
"18 123 LINE",
"141 123 LINE",
"141 697 LINE"
);
}
);
width = 491;
}
);
unicode = 0134;
},
{
glyphname = jcircumflex;
layers = (
{
layerId = "92FC523E-9234-4103-A150-1ABFFCFEAB52";
paths = (
{
nodes = (
"280 927 LINE",
"344 927 LINE",
"476 787 LINE",
"436 735 LINE",
"312 805 LINE",
"188 735 LINE",
"148 787 LINE"
);
},
{
nodes = (
"469 697 LINE",
"469 205 LINE SMOOTH",
"469 163 OFFCURVE",
"436 88 OFFCURVE",
"381 33 OFFCURVE",
"306 0 OFFCURVE",
"264 0 QCURVE SMOOTH",
"18 0 LINE",
"18 123 LINE",
"141 123 LINE",
"141 697 LINE"
);
}
);
width = 491;
}
);
unicode = 0135;
},
{
glyphname = Lacute;
layers = (
{
layerId = "92FC523E-9234-4103-A150-1ABFFCFEAB52";
paths = (
{
nodes = (
"599 123 LINE",
"599 0 LINE",
"26 0 LINE",
"26 697 LINE",
"354 697 LINE",
"354 123 LINE"
);
},
{
nodes = (
"337 927 LINE",
"412 829 LINE",
"245 735 LINE",
"205 787 LINE"
);
}
);
width = 626;
}
);
unicode = 0139;
},
{
glyphname = lacute;
layers = (
{
layerId = "92FC523E-9234-4103-A150-1ABFFCFEAB52";
paths = (
{
nodes = (
"599 123 LINE",
"599 0 LINE",
"26 0 LINE",
"26 697 LINE",
"354 697 LINE",
"354 123 LINE"
);
},
{
nodes = (
"337 927 LINE",
"412 829 LINE",
"245 735 LINE",
"205 787 LINE"
);
}
);
width = 626;
}
);
unicode = 013A;
},
{
glyphname = Lcaron;
layers = (
{
layerId = "92FC523E-9234-4103-A150-1ABFFCFEAB52";
paths = (
{
nodes = (
"599 123 LINE",
"599 0 LINE",
"26 0 LINE",
"26 697 LINE",
"354 697 LINE",
"354 123 LINE"
);
},
{
nodes = (
"599 700 LINE",
"598 587 LINE",
"453 490 LINE",
"399 535 LINE",
"503 700 LINE"
);
}
);
width = 626;
}
);
unicode = 013D;
},
{
glyphname = lcaron;
layers = (
{
layerId = "92FC523E-9234-4103-A150-1ABFFCFEAB52";
paths = (
{
nodes = (
"599 123 LINE",
"599 0 LINE",
"26 0 LINE",
"26 697 LINE",
"354 697 LINE",
"354 123 LINE"
);
},
{
nodes = (
"599 700 LINE",
"598 587 LINE",
"453 490 LINE",
"399 535 LINE",
"503 700 LINE"
);
}
);
width = 626;
}
);
unicode = 013E;
},
{
glyphname = Ldot;
layers = (
{
layerId = "92FC523E-9234-4103-A150-1ABFFCFEAB52";
paths = (
{
nodes = (
"599 123 LINE",
"599 0 LINE",
"26 0 LINE",
"26 697 LINE",
"354 697 LINE",
"354 123 LINE"
);
},
{
nodes = (
"405 403 OFFCURVE",
"460 459 OFFCURVE",
"502 459 QCURVE SMOOTH",
"544 459 OFFCURVE",
"600 403 OFFCURVE",
"600 361 QCURVE SMOOTH",
"600 319 OFFCURVE",
"544 264 OFFCURVE",
"502 264 QCURVE SMOOTH",
"460 264 OFFCURVE",
"405 319 OFFCURVE",
"405 361 QCURVE SMOOTH"
);
}
);
width = 626;
}
);
unicode = 013F;
},
{
glyphname = ldot;
layers = (
{
layerId = "92FC523E-9234-4103-A150-1ABFFCFEAB52";
paths = (
{
nodes = (
"599 123 LINE",
"599 0 LINE",
"26 0 LINE",
"26 697 LINE",
"354 697 LINE",
"354 123 LINE"
);
},
{
nodes = (
"405 403 OFFCURVE",
"460 459 OFFCURVE",
"502 459 QCURVE SMOOTH",
"544 459 OFFCURVE",
"600 403 OFFCURVE",
"600 361 QCURVE SMOOTH",
"600 319 OFFCURVE",
"544 264 OFFCURVE",
"502 264 QCURVE SMOOTH",
"460 264 OFFCURVE",
"405 319 OFFCURVE",
"405 361 QCURVE SMOOTH"
);
}
);
width = 622;
}
);
unicode = 0140;
},
{
glyphname = Lslash;
layers = (
{
layerId = "92FC523E-9234-4103-A150-1ABFFCFEAB52";
paths = (
{
nodes = (
"554 565 LINE",
"605 481 LINE",
"460 388 LINE",
"460 123 LINE",
"705 123 LINE",
"705 0 LINE",
"132 0 LINE",
"132 179 LINE",
"70 139 LINE",
"18 222 LINE",
"132 295 LINE",
"132 697 LINE",
"460 697 LINE",
"460 505 LINE"
);
}
);
width = 720;
}
);
unicode = 0141;
},
{
glyphname = lslash;
layers = (
{
layerId = "92FC523E-9234-4103-A150-1ABFFCFEAB52";
paths = (
{
nodes = (
"554 565 LINE",
"605 481 LINE",
"460 388 LINE",
"460 123 LINE",
"705 123 LINE",
"705 0 LINE",
"132 0 LINE",
"132 179 LINE",
"70 139 LINE",
"18 222 LINE",
"132 295 LINE",
"132 697 LINE",
"460 697 LINE",
"460 505 LINE"
);
}
);
width = 720;
}
);
unicode = 0142;
},
{
glyphname = Nacute;
layers = (
{
layerId = "92FC523E-9234-4103-A150-1ABFFCFEAB52";
paths = (
{
nodes = (
"395 697 LINE",
"641 232 LINE",
"641 697 LINE",
"763 697 LINE",
"763 0 LINE",
"641 0 LINE",
"395 464 LINE",
"395 0 LINE",
"26 0 LINE",
"26 697 LINE"
);
},
{
nodes = (
"465 927 LINE",
"540 829 LINE",
"373 735 LINE",
"333 787 LINE"
);
}
);
width = 794;
}
);
unicode = 0143;
},
{
glyphname = nacute;
layers = (
{
layerId = "92FC523E-9234-4103-A150-1ABFFCFEAB52";
paths = (
{
nodes = (
"395 697 LINE",
"641 232 LINE",
"641 697 LINE",
"763 697 LINE",
"763 0 LINE",
"641 0 LINE",
"395 464 LINE",
"395 0 LINE",
"26 0 LINE",
"26 697 LINE"
);
},
{
nodes = (
"465 927 LINE",
"540 829 LINE",
"373 735 LINE",
"333 787 LINE"
);
}
);
width = 794;
}
);
unicode = 0144;
},
{
glyphname = Ncaron;
layers = (
{
layerId = "92FC523E-9234-4103-A150-1ABFFCFEAB52";
paths = (
{
nodes = (
"395 697 LINE",
"641 232 LINE",
"641 697 LINE",
"763 697 LINE",
"763 0 LINE",
"641 0 LINE",
"395 464 LINE",
"395 0 LINE",
"26 0 LINE",
"26 697 LINE"
);
},
{
nodes = (
"230 875 LINE",
"270 927 LINE",
"394 857 LINE",
"518 927 LINE",
"558 875 LINE",
"426 735 LINE",
"362 735 LINE"
);
}
);
width = 794;
}
);
unicode = 0147;
},
{
glyphname = ncaron;
layers = (
{
layerId = "92FC523E-9234-4103-A150-1ABFFCFEAB52";
paths = (
{
nodes = (
"395 697 LINE",
"641 232 LINE",
"641 697 LINE",
"763 697 LINE",
"763 0 LINE",
"641 0 LINE",
"395 464 LINE",
"395 0 LINE",
"26 0 LINE",
"26 697 LINE"
);
},
{
nodes = (
"230 875 LINE",
"270 927 LINE",
"394 857 LINE",
"518 927 LINE",
"558 875 LINE",
"426 735 LINE",
"362 735 LINE"
);
}
);
width = 794;
}
);
unicode = 0148;
},
{
glyphname = Eng;
layers = (
{
layerId = "92FC523E-9234-4103-A150-1ABFFCFEAB52";
paths = (
{
nodes = (
"759 0 LINE",
"759 -5 LINE",
"759 -6 LINE",
"759 -18 LINE",
"759 -20 LINE",
"759 -21 LINE",
"759 -23 LINE",
"759 -24 LINE",
"759 -42 LINE SMOOTH",
"759 -53 OFFCURVE",
"757 -67 OFFCURVE",
"754 -79 OFFCURVE",
"749 -91 OFFCURVE",
"745 -101 QCURVE SMOOTH",
"733 -127 OFFCURVE",
"675 -191 OFFCURVE",
"618 -212 QCURVE",
"577 -99 LINE",
"600 -91 OFFCURVE",
"636 -57 OFFCURVE",
"638 -29 QCURVE",
"638 1 LINE",
"393 464 LINE",
"393 0 LINE",
"24 0 LINE",
"24 697 LINE",
"393 697 LINE",
"639 232 LINE",
"639 697 LINE",
"761 697 LINE",
"761 0 LINE"
);
}
);
width = 794;
}
);
unicode = 014A;
},
{
glyphname = eng;
layers = (
{
layerId = "92FC523E-9234-4103-A150-1ABFFCFEAB52";
paths = (
{
nodes = (
"759 0 LINE",
"759 -5 LINE",
"759 -6 LINE",
"759 -18 LINE",
"759 -20 LINE",
"759 -21 LINE",
"759 -23 LINE",
"759 -24 LINE",
"759 -42 LINE SMOOTH",
"759 -53 OFFCURVE",
"757 -67 OFFCURVE",
"754 -79 OFFCURVE",
"749 -91 OFFCURVE",
"745 -101 QCURVE SMOOTH",
"733 -127 OFFCURVE",
"675 -191 OFFCURVE",
"618 -212 QCURVE",
"577 -99 LINE",
"600 -91 OFFCURVE",
"636 -57 OFFCURVE",
"638 -29 QCURVE",
"638 1 LINE",
"393 464 LINE",
"393 0 LINE",
"24 0 LINE",
"24 697 LINE",
"393 697 LINE",
"639 232 LINE",
"639 697 LINE",
"761 697 LINE",
"761 0 LINE"
);
}
);
width = 794;
}
);
unicode = 014B;
},
{
glyphname = Omacron;
layers = (
{
layerId = "92FC523E-9234-4103-A150-1ABFFCFEAB52";
paths = (
{
nodes = (
"543 830 LINE",
"543 740 LINE",
"186 740 LINE",
"186 830 LINE"
);
},
{
nodes = (
"719 186 LINE SMOOTH",
"719 148 OFFCURVE",
"683 80 OFFCURVE",
"624 29 OFFCURVE",
"551 0 OFFCURVE",
"515 0 QCURVE",
"210 1 LINE",
"171 1 OFFCURVE",
"103 37 OFFCURVE",
"52 95 OFFCURVE",
"23 168 OFFCURVE",
"23 205 QCURVE SMOOTH",
"23 510 LINE SMOOTH",
"23 543 OFFCURVE",
"57 609 OFFCURVE",
"110 663 OFFCURVE",
"177 696 OFFCURVE",
"210 696 QCURVE SMOOTH",
"533 696 LINE SMOOTH",
"571 696 OFFCURVE",
"639 659 OFFCURVE",
"690 601 OFFCURVE",
"719 528 OFFCURVE",
"719 492 QCURVE SMOOTH"
);
},
{
nodes = (
"596 492 LINE SMOOTH",
"596 507 OFFCURVE",
"584 536 OFFCURVE",
"564 559 OFFCURVE",
"537 573 OFFCURVE",
"522 573 QCURVE SMOOTH",
"392 573 LINE",
"392 123 LINE",
"522 123 LINE SMOOTH",
"535 123 OFFCURVE",
"562 136 OFFCURVE",
"583 157 OFFCURVE",
"596 183 OFFCURVE",
"596 197 QCURVE SMOOTH"
);
}
);
width = 744;
}
);
unicode = 014C;
},
{
glyphname = omacron;
layers = (
{
layerId = "92FC523E-9234-4103-A150-1ABFFCFEAB52";
paths = (
{
nodes = (
"543 830 LINE",
"543 740 LINE",
"186 740 LINE",
"186 830 LINE"
);
},
{
nodes = (
"719 186 LINE SMOOTH",
"719 148 OFFCURVE",
"683 80 OFFCURVE",
"624 29 OFFCURVE",
"551 0 OFFCURVE",
"515 0 QCURVE",
"210 1 LINE",
"171 1 OFFCURVE",
"103 37 OFFCURVE",
"52 95 OFFCURVE",
"23 168 OFFCURVE",
"23 205 QCURVE SMOOTH",
"23 510 LINE SMOOTH",
"23 543 OFFCURVE",
"57 609 OFFCURVE",
"110 663 OFFCURVE",
"177 696 OFFCURVE",
"210 696 QCURVE SMOOTH",
"533 696 LINE SMOOTH",
"571 696 OFFCURVE",
"639 659 OFFCURVE",
"690 601 OFFCURVE",
"719 528 OFFCURVE",
"719 492 QCURVE SMOOTH"
);
},
{
nodes = (
"596 492 LINE SMOOTH",
"596 507 OFFCURVE",
"584 536 OFFCURVE",
"564 559 OFFCURVE",
"537 573 OFFCURVE",
"522 573 QCURVE SMOOTH",
"392 573 LINE",
"392 123 LINE",
"522 123 LINE SMOOTH",
"535 123 OFFCURVE",
"562 136 OFFCURVE",
"583 157 OFFCURVE",
"596 183 OFFCURVE",
"596 197 QCURVE SMOOTH"
);
}
);
width = 744;
}
);
unicode = 014D;
},
{
glyphname = Obreve;
layers = (
{
layerId = "92FC523E-9234-4103-A150-1ABFFCFEAB52";
paths = (
{
nodes = (
"533 905 LINE",
"533 859 LINE",
"522 828 OFFCURVE",
"504 804 QCURVE SMOOTH",
"487 783 OFFCURVE",
"427 745 OFFCURVE",
"379 743 QCURVE",
"326 745 OFFCURVE",
"263 783 OFFCURVE",
"245 804 QCURVE SMOOTH",
"224 830 OFFCURVE",
"215 859 QCURVE",
"215 905 LINE",
"259 905 LINE",
"259 882 LINE SMOOTH",
"259 872 OFFCURVE",
"288 858 OFFCURVE",
"327 849 OFFCURVE",
"365 844 OFFCURVE",
"374 844 QCURVE SMOOTH",
"382 844 OFFCURVE",
"419 849 OFFCURVE",
"458 858 OFFCURVE",
"488 872 OFFCURVE",
"489 882 QCURVE",
"489 905 LINE"
);
},
{
nodes = (
"719 186 LINE SMOOTH",
"719 148 OFFCURVE",
"683 80 OFFCURVE",
"624 29 OFFCURVE",
"551 0 OFFCURVE",
"515 0 QCURVE",
"210 1 LINE",
"171 1 OFFCURVE",
"103 37 OFFCURVE",
"52 95 OFFCURVE",
"23 168 OFFCURVE",
"23 205 QCURVE SMOOTH",
"23 510 LINE SMOOTH",
"23 543 OFFCURVE",
"57 609 OFFCURVE",
"110 663 OFFCURVE",
"177 696 OFFCURVE",
"210 696 QCURVE SMOOTH",
"533 696 LINE SMOOTH",
"571 696 OFFCURVE",
"639 659 OFFCURVE",
"690 601 OFFCURVE",
"719 528 OFFCURVE",
"719 492 QCURVE SMOOTH"
);
},
{
nodes = (
"596 492 LINE SMOOTH",
"596 507 OFFCURVE",
"584 536 OFFCURVE",
"564 559 OFFCURVE",
"537 573 OFFCURVE",
"522 573 QCURVE SMOOTH",
"392 573 LINE",
"392 123 LINE",
"522 123 LINE SMOOTH",
"535 123 OFFCURVE",
"562 136 OFFCURVE",
"583 157 OFFCURVE",
"596 183 OFFCURVE",
"596 197 QCURVE SMOOTH"
);
}
);
width = 744;
}
);
unicode = 014E;
},
{
glyphname = obreve;
layers = (
{
layerId = "92FC523E-9234-4103-A150-1ABFFCFEAB52";
paths = (
{
nodes = (
"533 905 LINE",
"533 859 LINE",
"522 828 OFFCURVE",
"504 804 QCURVE SMOOTH",
"487 783 OFFCURVE",
"427 745 OFFCURVE",
"379 743 QCURVE",
"326 745 OFFCURVE",
"263 783 OFFCURVE",
"245 804 QCURVE SMOOTH",
"224 830 OFFCURVE",
"215 859 QCURVE",
"215 905 LINE",
"259 905 LINE",
"259 882 LINE SMOOTH",
"259 872 OFFCURVE",
"288 858 OFFCURVE",
"327 849 OFFCURVE",
"365 844 OFFCURVE",
"374 844 QCURVE SMOOTH",
"382 844 OFFCURVE",
"419 849 OFFCURVE",
"458 858 OFFCURVE",
"488 872 OFFCURVE",
"489 882 QCURVE",
"489 905 LINE"
);
},
{
nodes = (
"719 186 LINE SMOOTH",
"719 148 OFFCURVE",
"683 80 OFFCURVE",
"624 29 OFFCURVE",
"551 0 OFFCURVE",
"515 0 QCURVE",
"210 1 LINE",
"171 1 OFFCURVE",
"103 37 OFFCURVE",
"52 95 OFFCURVE",
"23 168 OFFCURVE",
"23 205 QCURVE SMOOTH",
"23 510 LINE SMOOTH",
"23 543 OFFCURVE",
"57 609 OFFCURVE",
"110 663 OFFCURVE",
"177 696 OFFCURVE",
"210 696 QCURVE SMOOTH",
"533 696 LINE SMOOTH",
"571 696 OFFCURVE",
"639 659 OFFCURVE",
"690 601 OFFCURVE",
"719 528 OFFCURVE",
"719 492 QCURVE SMOOTH"
);
},
{
nodes = (
"596 492 LINE SMOOTH",
"596 507 OFFCURVE",
"584 536 OFFCURVE",
"564 559 OFFCURVE",
"537 573 OFFCURVE",
"522 573 QCURVE SMOOTH",
"392 573 LINE",
"392 123 LINE",
"522 123 LINE SMOOTH",
"535 123 OFFCURVE",
"562 136 OFFCURVE",
"583 157 OFFCURVE",
"596 183 OFFCURVE",
"596 197 QCURVE SMOOTH"
);
}
);
width = 744;
}
);
unicode = 014F;
},
{
glyphname = Ohungarumlaut;
layers = (
{
layerId = "92FC523E-9234-4103-A150-1ABFFCFEAB52";
paths = (
{
nodes = (
"536 927 LINE",
"611 829 LINE",
"444 735 LINE",
"404 787 LINE"
);
},
{
nodes = (
"297 927 LINE",
"372 829 LINE",
"205 735 LINE",
"165 787 LINE"
);
},
{
nodes = (
"719 186 LINE SMOOTH",
"719 148 OFFCURVE",
"683 80 OFFCURVE",
"624 29 OFFCURVE",
"551 0 OFFCURVE",
"515 0 QCURVE",
"210 1 LINE",
"171 1 OFFCURVE",
"103 37 OFFCURVE",
"52 95 OFFCURVE",
"23 168 OFFCURVE",
"23 205 QCURVE SMOOTH",
"23 510 LINE SMOOTH",
"23 543 OFFCURVE",
"57 609 OFFCURVE",
"110 663 OFFCURVE",
"177 696 OFFCURVE",
"210 696 QCURVE SMOOTH",
"533 696 LINE SMOOTH",
"571 696 OFFCURVE",
"639 659 OFFCURVE",
"690 601 OFFCURVE",
"719 528 OFFCURVE",
"719 492 QCURVE SMOOTH"
);
},
{
nodes = (
"596 492 LINE SMOOTH",
"596 507 OFFCURVE",
"584 536 OFFCURVE",
"564 559 OFFCURVE",
"537 573 OFFCURVE",
"522 573 QCURVE SMOOTH",
"392 573 LINE",
"392 123 LINE",
"522 123 LINE SMOOTH",
"535 123 OFFCURVE",
"562 136 OFFCURVE",
"583 157 OFFCURVE",
"596 183 OFFCURVE",
"596 197 QCURVE SMOOTH"
);
}
);
width = 744;
}
);
unicode = 0150;
},
{
glyphname = ohungarumlaut;
layers = (
{
layerId = "92FC523E-9234-4103-A150-1ABFFCFEAB52";
paths = (
{
nodes = (
"536 927 LINE",
"611 829 LINE",
"444 735 LINE",
"404 787 LINE"
);
},
{
nodes = (
"297 927 LINE",
"372 829 LINE",
"205 735 LINE",
"165 787 LINE"
);
},
{
nodes = (
"719 186 LINE SMOOTH",
"719 148 OFFCURVE",
"683 80 OFFCURVE",
"624 29 OFFCURVE",
"551 0 OFFCURVE",
"515 0 QCURVE",
"210 1 LINE",
"171 1 OFFCURVE",
"103 37 OFFCURVE",
"52 95 OFFCURVE",
"23 168 OFFCURVE",
"23 205 QCURVE SMOOTH",
"23 510 LINE SMOOTH",
"23 543 OFFCURVE",
"57 609 OFFCURVE",
"110 663 OFFCURVE",
"177 696 OFFCURVE",
"210 696 QCURVE SMOOTH",
"533 696 LINE SMOOTH",
"571 696 OFFCURVE",
"639 659 OFFCURVE",
"690 601 OFFCURVE",
"719 528 OFFCURVE",
"719 492 QCURVE SMOOTH"
);
},
{
nodes = (
"596 492 LINE SMOOTH",
"596 507 OFFCURVE",
"584 536 OFFCURVE",
"564 559 OFFCURVE",
"537 573 OFFCURVE",
"522 573 QCURVE SMOOTH",
"392 573 LINE",
"392 123 LINE",
"522 123 LINE SMOOTH",
"535 123 OFFCURVE",
"562 136 OFFCURVE",
"583 157 OFFCURVE",
"596 183 OFFCURVE",
"596 197 QCURVE SMOOTH"
);
}
);
width = 744;
}
);
unicode = 0151;
},
{
glyphname = OE;
layers = (
{
layerId = "92FC523E-9234-4103-A150-1ABFFCFEAB52";
paths = (
{
nodes = (
"970 410 LINE",
"1175 410 LINE",
"1175 328 LINE",
"970 328 LINE",
"970 123 LINE",
"1216 123 LINE",
"1216 0 LINE",
"643 0 LINE",
"643 46 LINE",
"614 24 OFFCURVE",
"548 0 OFFCURVE",
"515 0 QCURVE",
"210 1 LINE",
"171 1 OFFCURVE",
"103 37 OFFCURVE",
"52 95 OFFCURVE",
"23 168 OFFCURVE",
"23 205 QCURVE SMOOTH",
"23 510 LINE SMOOTH",
"23 543 OFFCURVE",
"57 609 OFFCURVE",
"110 663 OFFCURVE",
"177 696 OFFCURVE",
"210 696 QCURVE SMOOTH",
"533 696 LINE SMOOTH",
"564 696 OFFCURVE",
"620 671 OFFCURVE",
"643 651 QCURVE",
"643 696 LINE",
"1216 696 LINE",
"1216 573 LINE",
"970 573 LINE"
);
},
{
nodes = (
"596 492 LINE SMOOTH",
"596 507 OFFCURVE",
"584 536 OFFCURVE",
"564 559 OFFCURVE",
"537 573 OFFCURVE",
"522 573 QCURVE SMOOTH",
"392 573 LINE",
"392 123 LINE",
"522 123 LINE SMOOTH",
"535 123 OFFCURVE",
"562 136 OFFCURVE",
"583 157 OFFCURVE",
"596 183 OFFCURVE",
"596 197 QCURVE SMOOTH"
);
}
);
width = 1235;
}
);
unicode = 0152;
},
{
glyphname = oe;
layers = (
{
layerId = "92FC523E-9234-4103-A150-1ABFFCFEAB52";
paths = (
{
nodes = (
"970 410 LINE",
"1175 410 LINE",
"1175 328 LINE",
"970 328 LINE",
"970 123 LINE",
"1216 123 LINE",
"1216 0 LINE",
"643 0 LINE",
"643 46 LINE",
"614 24 OFFCURVE",
"548 0 OFFCURVE",
"515 0 QCURVE",
"210 1 LINE",
"171 1 OFFCURVE",
"103 37 OFFCURVE",
"52 95 OFFCURVE",
"23 168 OFFCURVE",
"23 205 QCURVE SMOOTH",
"23 510 LINE SMOOTH",
"23 543 OFFCURVE",
"57 609 OFFCURVE",
"110 663 OFFCURVE",
"177 696 OFFCURVE",
"210 696 QCURVE SMOOTH",
"533 696 LINE SMOOTH",
"564 696 OFFCURVE",
"620 671 OFFCURVE",
"643 651 QCURVE",
"643 696 LINE",
"1216 696 LINE",
"1216 573 LINE",
"970 573 LINE"
);
},
{
nodes = (
"596 492 LINE SMOOTH",
"596 507 OFFCURVE",
"584 536 OFFCURVE",
"564 559 OFFCURVE",
"537 573 OFFCURVE",
"522 573 QCURVE SMOOTH",
"392 573 LINE",
"392 123 LINE",
"522 123 LINE SMOOTH",
"535 123 OFFCURVE",
"562 136 OFFCURVE",
"583 157 OFFCURVE",
"596 183 OFFCURVE",
"596 197 QCURVE SMOOTH"
);
}
);
width = 1235;
}
);
unicode = 0153;
},
{
glyphname = Racute;
layers = (
{
layerId = "92FC523E-9234-4103-A150-1ABFFCFEAB52";
paths = (
{
nodes = (
"413 927 LINE",
"488 829 LINE",
"321 735 LINE",
"281 787 LINE"
);
},
{
nodes = (
"645 438 OFFCURVE",
"595 350 OFFCURVE",
"550 319 QCURVE",
"727 0 LINE",
"481 0 LINE",
"465 36 OFFCURVE",
"419 109 OFFCURVE",
"399 144 QCURVE",
"399 0 LINE",
"30 0 LINE",
"30 697 LINE",
"440 697 LINE SMOOTH",
"482 697 OFFCURVE",
"557 664 OFFCURVE",
"612 609 OFFCURVE",
"645 534 OFFCURVE",
"645 492 QCURVE SMOOTH"
);
},
{
nodes = (
"522 526 OFFCURVE",
"473 574 OFFCURVE",
"440 574 QCURVE SMOOTH",
"399 574 LINE",
"399 410 LINE",
"447 410 LINE SMOOTH",
"462 410 OFFCURVE",
"490 425 OFFCURVE",
"510 449 OFFCURVE",
"522 478 OFFCURVE",
"522 492 QCURVE SMOOTH"
);
}
);
width = 739;
}
);
unicode = 0154;
},
{
glyphname = racute;
layers = (
{
layerId = "92FC523E-9234-4103-A150-1ABFFCFEAB52";
paths = (
{
nodes = (
"413 927 LINE",
"488 829 LINE",
"321 735 LINE",
"281 787 LINE"
);
},
{
nodes = (
"645 438 OFFCURVE",
"595 350 OFFCURVE",
"550 319 QCURVE",
"727 0 LINE",
"481 0 LINE",
"465 36 OFFCURVE",
"419 109 OFFCURVE",
"399 144 QCURVE",
"399 0 LINE",
"30 0 LINE",
"30 697 LINE",
"440 697 LINE SMOOTH",
"482 697 OFFCURVE",
"557 664 OFFCURVE",
"612 609 OFFCURVE",
"645 534 OFFCURVE",
"645 492 QCURVE SMOOTH"
);
},
{
nodes = (
"522 526 OFFCURVE",
"473 574 OFFCURVE",
"440 574 QCURVE SMOOTH",
"399 574 LINE",
"399 410 LINE",
"447 410 LINE SMOOTH",
"462 410 OFFCURVE",
"490 425 OFFCURVE",
"510 449 OFFCURVE",
"522 478 OFFCURVE",
"522 492 QCURVE SMOOTH"
);
}
);
width = 739;
}
);
unicode = 0155;
},
{
glyphname = Rcaron;
layers = (
{
layerId = "92FC523E-9234-4103-A150-1ABFFCFEAB52";
paths = (
{
nodes = (
"181 875 LINE",
"221 927 LINE",
"345 857 LINE",
"469 927 LINE",
"509 875 LINE",
"377 735 LINE",
"313 735 LINE"
);
},
{
nodes = (
"645 438 OFFCURVE",
"595 350 OFFCURVE",
"550 319 QCURVE",
"727 0 LINE",
"481 0 LINE",
"465 36 OFFCURVE",
"419 109 OFFCURVE",
"399 144 QCURVE",
"399 0 LINE",
"30 0 LINE",
"30 697 LINE",
"440 697 LINE SMOOTH",
"482 697 OFFCURVE",
"557 664 OFFCURVE",
"612 609 OFFCURVE",
"645 534 OFFCURVE",
"645 492 QCURVE SMOOTH"
);
},
{
nodes = (
"522 526 OFFCURVE",
"473 574 OFFCURVE",
"440 574 QCURVE SMOOTH",
"399 574 LINE",
"399 410 LINE",
"447 410 LINE SMOOTH",
"462 410 OFFCURVE",
"490 425 OFFCURVE",
"510 449 OFFCURVE",
"522 478 OFFCURVE",
"522 492 QCURVE SMOOTH"
);
}
);
width = 739;
}
);
unicode = 0158;
},
{
glyphname = rcaron;
layers = (
{
layerId = "92FC523E-9234-4103-A150-1ABFFCFEAB52";
paths = (
{
nodes = (
"181 875 LINE",
"221 927 LINE",
"345 857 LINE",
"469 927 LINE",
"509 875 LINE",
"377 735 LINE",
"313 735 LINE"
);
},
{
nodes = (
"645 438 OFFCURVE",
"595 350 OFFCURVE",
"550 319 QCURVE",
"727 0 LINE",
"481 0 LINE",
"465 36 OFFCURVE",
"419 109 OFFCURVE",
"399 144 QCURVE",
"399 0 LINE",
"30 0 LINE",
"30 697 LINE",
"440 697 LINE SMOOTH",
"482 697 OFFCURVE",
"557 664 OFFCURVE",
"612 609 OFFCURVE",
"645 534 OFFCURVE",
"645 492 QCURVE SMOOTH"
);
},
{
nodes = (
"522 526 OFFCURVE",
"473 574 OFFCURVE",
"440 574 QCURVE SMOOTH",
"399 574 LINE",
"399 410 LINE",
"447 410 LINE SMOOTH",
"462 410 OFFCURVE",
"490 425 OFFCURVE",
"510 449 OFFCURVE",
"522 478 OFFCURVE",
"522 492 QCURVE SMOOTH"
);
}
);
width = 739;
}
);
unicode = 0159;
},
{
glyphname = Sacute;
layers = (
{
layerId = "92FC523E-9234-4103-A150-1ABFFCFEAB52";
paths = (
{
nodes = (
"434 927 LINE",
"509 829 LINE",
"342 735 LINE",
"302 787 LINE"
);
},
{
nodes = (
"723 205 LINE SMOOTH",
"723 163 OFFCURVE",
"691 88 OFFCURVE",
"635 32 OFFCURVE",
"560 0 OFFCURVE",
"518 0 QCURVE",
"213 1 LINE",
"174 1 OFFCURVE",
"107 37 OFFCURVE",
"56 96 OFFCURVE",
"27 169 OFFCURVE",
"27 205 QCURVE SMOOTH",
"27 287 LINE",
"395 287 LINE",
"395 123 LINE",
"526 123 LINE SMOOTH",
"539 123 OFFCURVE",
"565 137 OFFCURVE",
"586 158 OFFCURVE",
"600 184 OFFCURVE",
"600 197 QCURVE SMOOTH",
"600 291 LINE SMOOTH",
"600 306 OFFCURVE",
"573 328 OFFCURVE",
"559 328 QCURVE SMOOTH",
"139 328 LINE SMOOTH",
"116 328 OFFCURVE",
"75 350 OFFCURVE",
"45 385 OFFCURVE",
"27 429 OFFCURVE",
"27 451 QCURVE SMOOTH",
"27 470 OFFCURVE",
"26 492 OFFCURVE",
"26 494 QCURVE",
"26 514 OFFCURVE",
"30 529 QCURVE",
"36 559 OFFCURVE",
"70 619 OFFCURVE",
"119 667 OFFCURVE",
"180 696 OFFCURVE",
"213 696 QCURVE SMOOTH",
"537 696 LINE SMOOTH",
"576 696 OFFCURVE",
"643 660 OFFCURVE",
"693 601 OFFCURVE",
"722 528 OFFCURVE",
"723 492 QCURVE",
"600 492 LINE",
"600 494 LINE",
"600 495 LINE",
"600 496 LINE",
"600 508 OFFCURVE",
"588 535 OFFCURVE",
"568 558 OFFCURVE",
"541 573 OFFCURVE",
"526 573 QCURVE SMOOTH",
"395 573 LINE",
"395 451 LINE",
"600 451 LINE SMOOTH",
"622 451 OFFCURVE",
"666 433 OFFCURVE",
"701 403 OFFCURVE",
"723 362 OFFCURVE",
"723 339 QCURVE SMOOTH"
);
}
);
width = 750;
}
);
unicode = 015A;
},
{
glyphname = sacute;
layers = (
{
layerId = "92FC523E-9234-4103-A150-1ABFFCFEAB52";
paths = (
{
nodes = (
"434 927 LINE",
"509 829 LINE",
"342 735 LINE",
"302 787 LINE"
);
},
{
nodes = (
"723 205 LINE SMOOTH",
"723 163 OFFCURVE",
"691 88 OFFCURVE",
"635 32 OFFCURVE",
"560 0 OFFCURVE",
"518 0 QCURVE",
"213 1 LINE",
"174 1 OFFCURVE",
"107 37 OFFCURVE",
"56 96 OFFCURVE",
"27 169 OFFCURVE",
"27 205 QCURVE SMOOTH",
"27 287 LINE",
"395 287 LINE",
"395 123 LINE",
"526 123 LINE SMOOTH",
"539 123 OFFCURVE",
"565 137 OFFCURVE",
"586 158 OFFCURVE",
"600 184 OFFCURVE",
"600 197 QCURVE SMOOTH",
"600 291 LINE SMOOTH",
"600 306 OFFCURVE",
"573 328 OFFCURVE",
"559 328 QCURVE SMOOTH",
"139 328 LINE SMOOTH",
"116 328 OFFCURVE",
"75 350 OFFCURVE",
"45 385 OFFCURVE",
"27 429 OFFCURVE",
"27 451 QCURVE SMOOTH",
"27 470 OFFCURVE",
"26 492 OFFCURVE",
"26 494 QCURVE",
"26 514 OFFCURVE",
"30 529 QCURVE",
"36 559 OFFCURVE",
"70 619 OFFCURVE",
"119 667 OFFCURVE",
"180 696 OFFCURVE",
"213 696 QCURVE SMOOTH",
"537 696 LINE SMOOTH",
"576 696 OFFCURVE",
"643 660 OFFCURVE",
"693 601 OFFCURVE",
"722 528 OFFCURVE",
"723 492 QCURVE",
"600 492 LINE",
"600 494 LINE",
"600 495 LINE",
"600 496 LINE",
"600 508 OFFCURVE",
"588 535 OFFCURVE",
"568 558 OFFCURVE",
"541 573 OFFCURVE",
"526 573 QCURVE SMOOTH",
"395 573 LINE",
"395 451 LINE",
"600 451 LINE SMOOTH",
"622 451 OFFCURVE",
"666 433 OFFCURVE",
"701 403 OFFCURVE",
"723 362 OFFCURVE",
"723 339 QCURVE SMOOTH"
);
}
);
width = 750;
}
);
unicode = 015B;
},
{
glyphname = Scircumflex;
layers = (
{
layerId = "92FC523E-9234-4103-A150-1ABFFCFEAB52";
paths = (
{
nodes = (
"331 927 LINE",
"395 927 LINE",
"527 787 LINE",
"487 735 LINE",
"363 805 LINE",
"239 735 LINE",
"199 787 LINE"
);
},
{
nodes = (
"723 205 LINE SMOOTH",
"723 163 OFFCURVE",
"691 88 OFFCURVE",
"635 32 OFFCURVE",
"560 0 OFFCURVE",
"518 0 QCURVE",
"213 1 LINE",
"174 1 OFFCURVE",
"107 37 OFFCURVE",
"56 96 OFFCURVE",
"27 169 OFFCURVE",
"27 205 QCURVE SMOOTH",
"27 287 LINE",
"395 287 LINE",
"395 123 LINE",
"526 123 LINE SMOOTH",
"539 123 OFFCURVE",
"565 137 OFFCURVE",
"586 158 OFFCURVE",
"600 184 OFFCURVE",
"600 197 QCURVE SMOOTH",
"600 291 LINE SMOOTH",
"600 306 OFFCURVE",
"573 328 OFFCURVE",
"559 328 QCURVE SMOOTH",
"139 328 LINE SMOOTH",
"116 328 OFFCURVE",
"75 350 OFFCURVE",
"45 385 OFFCURVE",
"27 429 OFFCURVE",
"27 451 QCURVE SMOOTH",
"27 470 OFFCURVE",
"26 492 OFFCURVE",
"26 494 QCURVE",
"26 514 OFFCURVE",
"30 529 QCURVE",
"36 559 OFFCURVE",
"70 619 OFFCURVE",
"119 667 OFFCURVE",
"180 696 OFFCURVE",
"213 696 QCURVE SMOOTH",
"537 696 LINE SMOOTH",
"576 696 OFFCURVE",
"643 660 OFFCURVE",
"693 601 OFFCURVE",
"722 528 OFFCURVE",
"723 492 QCURVE",
"600 492 LINE",
"600 494 LINE",
"600 495 LINE",
"600 496 LINE",
"600 508 OFFCURVE",
"588 535 OFFCURVE",
"568 558 OFFCURVE",
"541 573 OFFCURVE",
"526 573 QCURVE SMOOTH",
"395 573 LINE",
"395 451 LINE",
"600 451 LINE SMOOTH",
"622 451 OFFCURVE",
"666 433 OFFCURVE",
"701 403 OFFCURVE",
"723 362 OFFCURVE",
"723 339 QCURVE SMOOTH"
);
}
);
width = 750;
}
);
unicode = 015C;
},
